<?xml version="1.0" encoding="utf-8"?>
<!-- Generator: Adobe Illustrator 25.4.1, SVG Export Plug-In . SVG Version: 6.00 Build 0)  -->
<svg version="1.1" id="Layer_1" xmlns="http://www.w3.org/2000/svg" xmlns:xlink="http://www.w3.org/1999/xlink" x="0px" y="0px"
	 viewBox="0 0 105 107.8" style="enable-background:new 0 0 105 107.8;" xml:space="preserve">
<style type="text/css">
	.st0{fill:#1A479D;}
</style>
<g id="carbon_usermangment" transform="translate(0 0)">
	<path id="Path_113" class="st0" d="M94.9,56.8v-5.9l7.4-6.5c2.8-2.5,3.4-6.6,1.5-9.8l-9.1-15.4c-1.9-3.2-5.7-4.6-9.2-3.5l-9.4,3.2
		c-1.6-1.1-3.3-2-5.1-2.9l-2-9.7c-0.7-3.7-4-6.3-7.7-6.2H43.3c-3.7-0.1-7,2.5-7.7,6.2l-2,9.7c-1.8,0.9-3.5,1.8-5.1,2.9l-9.2-3.3
		c-0.8-0.2-1.6-0.3-2.5-0.2c-2.8,0-5.3,1.5-6.7,3.9L1.1,34.6c-1.9,3.2-1.2,7.3,1.6,9.7L10,51v5.9l-7.3,6.5c-2.9,2.5-3.5,6.6-1.6,9.8
		l9.1,15.4c1.9,3.2,5.7,4.6,9.1,3.5l9.4-3.2c1.6,1.1,3.3,2,5.1,2.9l2,9.7c0.7,3.7,4,6.3,7.7,6.2h18.2c3.7,0.1,7-2.5,7.7-6.2l2-9.7
		c1.8-0.9,3.5-1.8,5.1-2.9l9.3,3.2c3.5,1.2,7.3-0.3,9.2-3.5l8.8-15.4c1.9-3.2,1.2-7.3-1.6-9.7L94.9,56.8z M88,84.8l-13.2-4.5
		c-3.1,2.6-6.6,4.7-10.5,6.1l-2.7,13.9H43.3l-2.7-13.7c-3.8-1.4-7.3-3.5-10.4-6.1l-13.3,4.3L7.8,69.3l10.5-9.3
		c-0.7-4-0.7-8.1,0-12.1L7.8,38.5L16.9,23l13.2,4.5c3.1-2.6,6.6-4.7,10.5-6.1l2.7-13.9h18.2l2.7,13.7c3.8,1.4,7.3,3.5,10.4,6.1
		L88,23l9.1,15.4l-10.5,9.3c0.7,4,0.7,8.1,0,12.1l10.5,9.5L88,84.8z"/>
	<path id="Path_114" class="st0" d="M52.5,77.1c-12.7-0.1-22.8-10.5-22.7-23.2c0.1-12.7,10.5-22.8,23.2-22.7
		c12.7,0.1,22.8,10.5,22.7,23.2c0,2.9-0.6,5.8-1.7,8.4C70.4,71.5,61.9,77.2,52.5,77.1z M52.5,38.5c-8.3-0.2-15.3,6.4-15.4,14.7
		c0,0.2,0,0.5,0,0.7c-0.2,8.3,6.4,15.3,14.7,15.4c0.2,0,0.5,0,0.7,0c8.3,0.2,15.3-6.4,15.4-14.7c0-0.2,0-0.5,0-0.7
		c0.2-8.3-6.4-15.3-14.7-15.4C52.9,38.5,52.7,38.5,52.5,38.5L52.5,38.5z"/>
</g>
</svg>
