<?xml version="1.0" encoding="utf-8"?>
<!-- Generator: Adobe Illustrator 25.4.1, SVG Export Plug-In . SVG Version: 6.00 Build 0)  -->
<svg version="1.1" id="carbon_personel" xmlns="http://www.w3.org/2000/svg" xmlns:xlink="http://www.w3.org/1999/xlink" x="0px"
	 y="0px" viewBox="0 0 113.2 97" style="enable-background:new 0 0 113.2 97;" xml:space="preserve">
<style type="text/css">
	.st0{fill:#1A479D;}
</style>
<path id="Path_130" class="st0" d="M105.1,8.1v80.8h-97V8.1H105.1z M105.1,0h-97C3.6,0,0,3.6,0,8.1c0,0,0,0,0,0v80.8
	C0,93.4,3.6,97,8.1,97h0h97c4.5,0,8.1-3.6,8.1-8.1l0,0V8.1C113.2,3.6,109.5,0,105.1,0C105.1,0,105.1,0,105.1,0z"/>
<path id="Path_131" class="st0" d="M16.2,24.2h28.3v8.1H16.2V24.2z"/>
<path id="Path_132" class="st0" d="M16.2,40.4h16.2v8.1H16.2V40.4z"/>
<path id="Path_133" class="st0" d="M84.9,56.6H60.6c-6.7,0-12.1,5.4-12.1,12.1c0,0,0,0,0,0v8.1h8.1v-8.1c0-2.2,1.8-4,4-4
	c0,0,0,0,0,0h24.2c2.2,0,4,1.8,4,4l0,0v8.1H97v-8.1C97,62,91.6,56.6,84.9,56.6z"/>
<path id="Path_134" class="st0" d="M72.7,52.5c8.9,0,16.2-7.2,16.2-16.2s-7.2-16.2-16.2-16.2c-8.9,0-16.2,7.2-16.2,16.2
	c0,4.3,1.7,8.4,4.7,11.4C64.3,50.8,68.5,52.5,72.7,52.5z M72.7,28.3c4.5,0,8.1,3.6,8.1,8.1s-3.6,8.1-8.1,8.1c-4.5,0-8.1-3.6-8.1-8.1
	c0-2.1,0.9-4.2,2.4-5.7C68.5,29.1,70.6,28.3,72.7,28.3z"/>
</svg>
