<?xml version="1.0" encoding="utf-8"?>
<!-- Generator: Adobe Illustrator 25.4.1, SVG Export Plug-In . SVG Version: 6.00 Build 0)  -->
<svg version="1.1" id="Layer_1" xmlns="http://www.w3.org/2000/svg" xmlns:xlink="http://www.w3.org/1999/xlink" x="0px" y="0px"
	 viewBox="0 0 110.5 110.5" style="enable-background:new 0 0 110.5 110.5;" xml:space="preserve">
<style type="text/css">
	.st0{fill:#1A479D;}
</style>
<path id="carbon_organization" class="st0" d="M98.6,78.9V59.2c0-4.4-3.5-7.9-7.9-7.9H59.2V31.6H71c4.4,0,7.9-3.5,7.9-7.9V7.9
	C78.9,3.5,75.4,0,71,0H39.5c-4.4,0-7.9,3.5-7.9,7.9v15.8c0,4.4,3.5,7.9,7.9,7.9h11.8v19.7H19.7c-4.4,0-7.9,3.5-7.9,7.9v19.7H0v31.6
	h31.6V78.9H19.7V59.2h31.6v19.7H39.5v31.6H71V78.9H59.2V59.2h31.6v19.7H78.9v31.6h31.6V78.9H98.6z M39.5,7.9H71v15.8H39.5V7.9z
	 M23.7,102.6H7.9V86.8h15.8L23.7,102.6z M63.1,102.6H47.3V86.8h15.8L63.1,102.6z M102.6,102.6H86.8V86.8h15.8L102.6,102.6z"/>
</svg>
