<?xml version="1.0" encoding="utf-8"?>
<!-- Generator: Adobe Illustrator 25.4.1, SVG Export Plug-In . SVG Version: 6.00 Build 0)  -->
<svg version="1.1" id="Layer_1" xmlns="http://www.w3.org/2000/svg" xmlns:xlink="http://www.w3.org/1999/xlink" x="0px" y="0px"
	 viewBox="0 0 140.6 140.5" style="enable-background:new 0 0 140.6 140.5;" xml:space="preserve">
<style type="text/css">
	.st0{fill:#1A479D;}
</style>
<path id="carbon_vacation" class="st0" d="M140.4,69.4c-5.8-32.2-32.5-56.5-65.2-59.1V0h-10v10.3C32.6,12.9,5.9,37.2,0.1,69.4
	c-0.5,2.7,1.4,5.3,4.1,5.8c1.2,0.2,2.4,0,3.4-0.6c3.7-2.6,8-4.1,12.5-4.3c8.7,0.2,16.6,5,20.8,12.6c1.6,2.4,4.9,3,7.3,1.4
	c0.5-0.4,1-0.8,1.4-1.4c3.4-6,9.1-10.3,15.8-12v47c0,6.9-5.6,12.5-12.5,12.5s-12.5-5.6-12.5-12.5v-2.5h-10v2.5
	c0.1,12.5,10.3,22.5,22.7,22.4c12.4-0.1,22.4-10.1,22.4-22.4V70.9c6.7,1.7,12.4,6,15.8,12c1.4,2.4,4.5,3.2,6.9,1.8
	c0.7-0.4,1.3-1,1.8-1.8c4.2-7.6,12.1-12.4,20.8-12.6c4.5,0.3,8.8,1.8,12.5,4.3c2.4,1.4,5.5,0.7,6.9-1.7
	C140.5,71.8,140.7,70.6,140.4,69.4L140.4,69.4z M20.1,60.2c-2.5,0-5.1,0.4-7.5,1.1C19.5,42,35.4,27.4,55.1,22.1
	c-9.9,12.8-15.3,28.6-15.3,44.8C34.2,62.6,27.2,60.2,20.1,60.2L20.1,60.2z M70.3,60.2c-7.4,0-14.6,2.6-20.4,7.2
	c0.2-11.1,3.1-32.6,20.4-46.1c17.2,13.4,20.1,34.9,20.3,46C84.8,62.8,77.7,60.3,70.3,60.2L70.3,60.2z M120.4,60.2
	c-7.1,0-14.1,2.4-19.8,6.7c0-16.2-5.3-32-15.3-44.8c19.8,5.3,35.7,20,42.6,39.2C125.5,60.6,123,60.2,120.4,60.2L120.4,60.2z"/>
</svg>
