<?xml version="1.0" encoding="utf-8"?>
<!-- Generator: Adobe Illustrator 25.4.1, SVG Export Plug-In . SVG Version: 6.00 Build 0)  -->
<svg version="1.1" id="carbon_reqruitment" xmlns="http://www.w3.org/2000/svg" xmlns:xlink="http://www.w3.org/1999/xlink" x="0px"
	 y="0px" viewBox="0 0 98 91.5" style="enable-background:new 0 0 98 91.5;" xml:space="preserve">
<style type="text/css">
	.st0{fill:#1A479D;}
</style>
<path id="Path_135" class="st0" d="M98,39.2H84.9V26.1h-6.5v13.1H65.3v6.5h13.1v13.1h6.5V45.7H98V39.2z"/>
<path id="Path_136" class="st0" d="M32.7,6.5c9,0,16.3,7.3,16.3,16.3s-7.3,16.3-16.3,16.3s-16.3-7.3-16.3-16.3
	c0-4.3,1.7-8.5,4.8-11.5C24.2,8.3,28.3,6.5,32.7,6.5z M32.7,0C20,0,9.8,10.2,9.8,22.9c0,12.6,10.2,22.9,22.9,22.9
	s22.9-10.2,22.9-22.9c0-6.1-2.4-11.9-6.7-16.2C44.5,2.4,38.7,0,32.7,0z"/>
<path id="Path_137" class="st0" d="M65.3,91.5h-6.5V75.1c0-9-7.3-16.3-16.3-16.3c0,0,0,0,0,0H22.9c-9,0-16.3,7.3-16.3,16.3
	c0,0,0,0,0,0v16.3H0V75.1c0-12.6,10.2-22.9,22.9-22.9h19.6c12.6,0,22.9,10.2,22.9,22.9V91.5z"/>
</svg>
