<?xml version="1.0" encoding="utf-8"?>
<!-- Generator: Adobe Illustrator 25.4.1, SVG Export Plug-In . SVG Version: 6.00 Build 0)  -->
<svg version="1.1" id="carbon_performance" xmlns="http://www.w3.org/2000/svg" xmlns:xlink="http://www.w3.org/1999/xlink" x="0px"
	 y="0px" viewBox="0 0 127.5 109.3" style="enable-background:new 0 0 127.5 109.3;" xml:space="preserve">
<style type="text/css">
	.st0{fill:#1A479D;}
</style>
<path id="Path_126" class="st0" d="M72.9,86.5h-9.1v-9.1c0-7.5-6.1-13.7-13.7-13.7c0,0,0,0,0,0H31.9c-7.5,0-13.7,6.1-13.7,13.7v9.1
	H9.1v-9.1c0-12.6,10.2-22.8,22.8-22.8h18.2c12.6,0,22.8,10.2,22.8,22.8V86.5z"/>
<path id="Path_127" class="st0" d="M41,9.1c7.5,0,13.7,6.1,13.7,13.7S48.5,36.4,41,36.4c-7.5,0-13.7-6.1-13.7-13.7
	c0-3.6,1.4-7.1,4-9.7C33.9,10.5,37.4,9.1,41,9.1z M41,0C28.4,0,18.2,10.2,18.2,22.8S28.4,45.5,41,45.5s22.8-10.2,22.8-22.8
	c0-6-2.4-11.8-6.7-16.1C52.8,2.4,47,0,41,0z"/>
<path id="Path_128" class="st0" d="M0,100.2h127.5v9.1H0V100.2z"/>
<path id="Path_129" class="st0" d="M91.1,0v9.1H112l-30,30l6.4,6.4l30-30v20.9h9.1V0H91.1z"/>
</svg>
