<?xml version="1.0" encoding="utf-8"?>
<!-- Generator: Adobe Illustrator 25.4.1, SVG Export Plug-In . SVG Version: 6.00 Build 0)  -->
<svg version="1.1" id="Layer_1" xmlns="http://www.w3.org/2000/svg" xmlns:xlink="http://www.w3.org/1999/xlink" x="0px" y="0px"
	 viewBox="0 0 95.4 103.4" style="enable-background:new 0 0 95.4 103.4;" xml:space="preserve">
<style type="text/css">
	.st0{fill:#1A479D;}
</style>
<path id="carbon_attendance" class="st0" d="M87.4,7.9H71.6V0h-7.9v7.9H31.8V0h-8v7.9H7.9C3.6,8,0,11.5,0,15.9v79.5
	c0,4.4,3.6,7.9,7.9,7.9h79.5c4.4,0,7.9-3.6,7.9-7.9V15.9C95.4,11.5,91.8,8,87.4,7.9z M7.9,15.9h15.9v7.9h7.9v-8h31.8v8h8v-8h15.9
	v15.9H7.9L7.9,15.9z M7.9,39.8h19.9v23.9H7.9L7.9,39.8z M59.6,95.4H35.8V71.6h23.9V95.4z M59.6,63.6H35.8V39.8h23.9V63.6z
	 M67.6,95.4V71.6h19.9v23.9H67.6z"/>
</svg>
