<?xml version="1.0" encoding="utf-8"?>
<!-- Generator: Adobe Illustrator 25.4.1, SVG Export Plug-In . SVG Version: 6.00 Build 0)  -->
<svg version="1.1" id="carbon_payroll" xmlns="http://www.w3.org/2000/svg" xmlns:xlink="http://www.w3.org/1999/xlink" x="0px"
	 y="0px" viewBox="0 0 114 118.3" style="enable-background:new 0 0 114 118.3;" xml:space="preserve">
<style type="text/css">
	.st0{fill:#1A479D;}
</style>
<path id="Path_115" class="st0" d="M84.5,103.9L73.5,92.9l-6,6l16.9,16.9L114,86.2l-6-6L84.5,103.9z"/>
<path id="Path_116" class="st0" d="M46.5,88.7h8.4v8.4h-8.4V88.7z"/>
<path id="Path_117" class="st0" d="M21.1,88.7h8.4v8.4h-8.4V88.7z"/>
<path id="Path_118" class="st0" d="M71.8,67.6h8.4V76h-8.4V67.6z"/>
<path id="Path_119" class="st0" d="M46.5,67.6h8.4V76h-8.4V67.6z"/>
<path id="Path_120" class="st0" d="M21.1,67.6h8.4V76h-8.4V67.6z"/>
<path id="Path_121" class="st0" d="M71.8,46.5h8.4v8.4h-8.4V46.5z"/>
<path id="Path_122" class="st0" d="M46.5,46.5h8.4v8.4h-8.4V46.5z"/>
<path id="Path_123" class="st0" d="M21.1,46.5h8.4v8.4h-8.4V46.5z"/>
<path id="Path_124" class="st0" d="M21.1,21.1h59.1v12.7H21.1V21.1z"/>
<path id="Path_125" class="st0" d="M54.9,118.3H8.5c-4.7,0-8.5-3.8-8.5-8.4V8.4C0,3.8,3.8,0,8.4,0c0,0,0,0,0,0h84.5
	c4.7,0,8.4,3.8,8.4,8.4v59.1h-8.4V8.4H8.4v101.4h46.5V118.3z"/>
</svg>
