<?xml version="1.0" encoding="utf-8"?>
<!-- Generator: Adobe Illustrator 25.4.1, SVG Export Plug-In . SVG Version: 6.00 Build 0)  -->
<svg version="1.1" id="Layer_1" xmlns="http://www.w3.org/2000/svg" xmlns:xlink="http://www.w3.org/1999/xlink" x="0px" y="0px"
	 viewBox="0 0 135.3 135.3" style="enable-background:new 0 0 135.3 135.3;" xml:space="preserve">
<style type="text/css">
	.st0{fill:#1A479D;}
</style>
<g id="Group_16" transform="translate(-1529 -1230)">
	<g id="carbon_self_service-1" transform="translate(2049.234 1375.109)">
		<g id="Group_13" transform="translate(-458.405 -90.405)">
			<path id="Path_78" class="st0" d="M73.5-16v-9.7H63.3c-0.6-3-1.8-5.9-3.5-8.5l7.2-7.2l-6.8-6.8L53-41c-2.6-1.7-5.4-2.9-8.5-3.5
				v-10.2h-9.7v10.2c-3,0.6-5.9,1.8-8.5,3.5l-7.1-7.2l-6.8,6.8l7.2,7.2c-1.7,2.6-2.9,5.4-3.5,8.5H5.9v9.7h10.2
				c0.6,3,1.8,5.9,3.5,8.5l-7.2,7.2l6.8,6.8l7.2-7.2C29,1,31.8,2.2,34.9,2.8V13h9.7V2.8c3-0.6,5.9-1.8,8.5-3.5l7.2,7.2l6.8-6.8
				l-7.2-7.2c1.7-2.6,2.9-5.5,3.5-8.5H73.5z M39.7-6.4c-8,0-14.5-6.5-14.5-14.5s6.5-14.5,14.5-14.5s14.5,6.5,14.5,14.5
				c0,3.8-1.5,7.5-4.2,10.3C47.2-7.9,43.6-6.4,39.7-6.4z"/>
			<path id="Path_79" class="st0" d="M5.9,80.6h-9.7V56.4c0-8-6.5-14.5-14.5-14.5h-19.3c-8,0-14.5,6.5-14.5,14.5v24.2h-9.7V56.4
				c0-13.3,10.8-24.1,24.2-24.1h19.3C-5,32.3,5.9,43.1,5.9,56.5V80.6z"/>
			<path id="Path_80" class="st0" d="M-28-16c8,0,14.5,6.5,14.5,14.5S-20,13-28,13S-42.5,6.5-42.5-1.5c0-3.8,1.5-7.5,4.2-10.3
				C-35.5-14.5-31.8-16-28-16z M-28-25.7c-13.3,0-24.1,10.8-24.1,24.2s10.8,24.2,24.2,24.2S-3.8,11.8-3.8-1.5
				c0-9.8-5.9-18.6-14.9-22.3C-21.6-25.1-24.8-25.7-28-25.7z"/>
		</g>
	</g>
</g>
</svg>
