<?xml version="1.0" encoding="utf-8"?>
<!-- Generator: Adobe Illustrator 25.4.1, SVG Export Plug-In . SVG Version: 6.00 Build 0)  -->
<svg version="1.1" id="Layer_1" xmlns="http://www.w3.org/2000/svg" xmlns:xlink="http://www.w3.org/1999/xlink" x="0px" y="0px"
	 viewBox="0 0 28 28" style="enable-background:new 0 0 28 28;" xml:space="preserve">
<style type="text/css">
	.st0{fill:#1A479D;}
</style>
<g transform="translate(-5.953 -6)">
	<g>
		<path class="st0" d="M33.5,18.2L33.5,18.2H16.7h0v-0.1v-0.9v-0.1h0H33V7H7v8.8v0.1h0H6h0v-0.1V6.5c0-0.3,0.2-0.5,0.5-0.5h27
			c0.1,0,0.3,0.1,0.4,0.2C33.9,6.2,34,6.3,34,6.5v11.2C34,17.9,33.8,18.2,33.5,18.2z"/>
		<path class="st0" d="M6.5,6C6.2,6,6,6.2,6,6.5c0,0,0,0,0,0v9.3h0.9V6.9H33v10.2H16.7v0.9h16.8c0.3,0,0.5-0.2,0.5-0.5c0,0,0,0,0,0
			V6.5C34,6.2,33.7,6,33.5,6c0,0,0,0,0,0H6.5C6.5,6,6.5,6,6.5,6 M6.5,5.9h27c0.2,0,0.3,0.1,0.4,0.2c0.1,0.1,0.2,0.2,0.2,0.4v11.2
			c0,0.3-0.3,0.6-0.6,0.6H16.7c-0.1,0-0.1,0-0.1-0.1v-0.9c0-0.1,0-0.1,0.1-0.1h16.2V7H7v8.8c0,0.1,0,0.1-0.1,0.1H6
			c-0.1,0-0.1,0-0.1-0.1V6.5C5.9,6.2,6.2,5.9,6.5,5.9z"/>
	</g>
	<path class="st0" d="M30.3,8.2H21v1h9.3V8.2z"/>
	<path class="st0" d="M31.8,11.1h-9.3v1h9.3V11.1z"/>
	<path class="st0" d="M30.3,13.9H21v1h9.3V13.9z"/>
	<path class="st0" d="M20,12.3c-0.3-0.7-1.1-1-1.7-0.7l0,0l-3.3,1.7c0.1-0.3,0.2-0.6,0.2-0.9c0-1.1-0.9-2-2-2c-1.1,0-2,0.9-2,2
		c0,0.4,0.1,0.9,0.4,1.2h0c-1.2,0-2.2,0.7-2.6,1.8l-1.1,3.8C7.5,20,7.8,20.7,8.5,21s1.4-0.1,1.7-0.7c0,0,0,0,0,0l0.4-1.4v5.9
		c-0.9-0.7-2.2-0.5-2.9,0.4c-0.6,0.8-0.5,2,0.2,2.7c-0.6,0.3-1,1-1,1.7v3.4c0,0.2,0.2,0.4,0.4,0.4h4.1c0.2,0,0.4-0.2,0.4-0.4l0,0
		v-3.4c0-0.6-0.3-1.1-0.7-1.5h3.1c-0.5,0.4-0.7,0.9-0.7,1.5v3.4c0,0.2,0.2,0.4,0.4,0.4H18c0.2,0,0.4-0.2,0.4-0.4l0,0v-3.4
		c0-0.7-0.4-1.3-1-1.7c0.8-0.8,0.8-2.1,0-2.9c-0.5-0.5-1.2-0.7-1.9-0.6V16l3.8-1.9C20,13.8,20.3,13,20,12.3z M13.1,11.3
		c0.7,0,1.2,0.6,1.2,1.2s-0.6,1.2-1.2,1.2c-0.7,0-1.2-0.5-1.2-1.2C11.9,11.8,12.4,11.3,13.1,11.3C13.1,11.3,13.1,11.3,13.1,11.3z
		 M9.4,25.1c0.7,0,1.2,0.6,1.2,1.2c0,0.7-0.6,1.2-1.2,1.2c-0.7,0-1.2-0.5-1.2-1.2C8.2,25.7,8.7,25.1,9.4,25.1z M11,32.5H7.8v-3
		c0-0.6,0.5-1.1,1.1-1.1H10c0.6,0,1.1,0.5,1.1,1.1V32.5z M17.6,29.5v3h-3.3v-3c0-0.6,0.5-1.1,1.1-1.1h1.1
		C17.1,28.4,17.6,28.9,17.6,29.5L17.6,29.5z M16,25.1c0.7,0,1.2,0.6,1.2,1.2s-0.6,1.2-1.2,1.2c-0.7,0-1.2-0.5-1.2-1.2
		C14.7,25.7,15.3,25.1,16,25.1z M19.3,13c-0.1,0.1-0.2,0.2-0.3,0.3l-4,2.1c-0.1,0.1-0.2,0.2-0.2,0.4v9c-0.8,0.6-1,1.6-0.6,2.5h-0.6
		v-6.9h-0.8v6.9h-1.4c0.1-0.3,0.2-0.5,0.2-0.8l0,0V16.2c0-0.2-0.2-0.4-0.4-0.4c-0.2,0-0.3,0.1-0.4,0.3l-1.2,3.9
		c-0.1,0.3-0.4,0.4-0.6,0.3c-0.3-0.1-0.4-0.4-0.3-0.6c0,0,0,0,0,0l1.1-3.8c0.3-0.8,1-1.3,1.8-1.3h2.9c0.1,0,0.1,0,0.2,0l4.1-2.1
		c0.2-0.1,0.5,0,0.6,0.2C19.3,12.7,19.3,12.9,19.3,13L19.3,13z"/>
	<path class="st0" d="M23.8,27.9c0.8-0.8,0.8-2.1,0-2.9c-0.8-0.8-2.1-0.8-2.9,0c-0.8,0.8-0.8,2.1,0,2.9c0,0,0,0,0,0l0,0
		c-0.6,0.3-1,1-1,1.7V33c0,0.2,0.2,0.4,0.4,0.4h4.1c0.2,0,0.4-0.2,0.4-0.4c0,0,0,0,0,0l0,0v-3.4C24.9,28.9,24.5,28.2,23.8,27.9z
		 M22.4,25.2c0.7,0,1.2,0.5,1.2,1.2s-0.5,1.2-1.2,1.2s-1.2-0.5-1.2-1.2C21.2,25.8,21.7,25.2,22.4,25.2
		C22.4,25.2,22.4,25.2,22.4,25.2L22.4,25.2z M24.1,32.6h-3.3v-3c0-0.6,0.5-1.1,1.1-1.1H23c0.6,0,1.1,0.5,1.1,1.1L24.1,32.6
		L24.1,32.6z"/>
	<path class="st0" d="M30.2,27.9c0.8-0.8,0.8-2.1,0-2.9c-0.8-0.8-2.1-0.8-2.9,0c-0.8,0.8-0.8,2.1,0,2.9c0,0,0,0,0,0l0,0
		c-0.6,0.3-1,1-1,1.7V33c0,0.2,0.2,0.4,0.4,0.4h4.1c0.2,0,0.4-0.2,0.4-0.4c0,0,0,0,0,0l0,0v-3.4C31.2,28.9,30.8,28.2,30.2,27.9z
		 M28.8,25.2c0.7,0,1.2,0.5,1.2,1.2s-0.5,1.2-1.2,1.2s-1.2-0.5-1.2-1.2C27.6,25.8,28.1,25.2,28.8,25.2
		C28.8,25.2,28.8,25.2,28.8,25.2L28.8,25.2z M30.4,32.6h-3.3v-3c0-0.6,0.5-1.1,1.1-1.1h1.1c0.6,0,1.1,0.5,1.1,1.1V32.6L30.4,32.6z"
		/>
</g>
</svg>
