<?xml version="1.0" encoding="utf-8"?>
<!-- Generator: Adobe Illustrator 25.4.1, SVG Export Plug-In . SVG Version: 6.00 Build 0)  -->
<svg version="1.1" id="Layer_1" xmlns="http://www.w3.org/2000/svg" xmlns:xlink="http://www.w3.org/1999/xlink" x="0px" y="0px"
	 viewBox="0 0 2320.4 471.3" style="enable-background:new 0 0 2320.4 471.3;" xml:space="preserve">
<style type="text/css">
	.st0{fill:#FFFFFF;}
</style>
<g id="Group_8" transform="translate(160.604 -31.329) rotate(14)">
	<path id="Path_14" class="st0" d="M2007.3-363.4c-19.8,3.6-38.5,11.7-54.8,23.5c-8.2-24.9-34.2-40.6-61.3-35.5
		c-12.9,2.4-24.6,9.3-32.8,19.6c-14.2-24.4-43.2-38.4-73.1-32.9c-37.9,7-63.1,42.7-56.3,79.8c0.4,2.2,0.9,4.5,1.6,6.7
		c-12.3-2.3-25-2.3-37.4,0c-54.2,10-90.2,61-80.4,113.9c1.9,10.2,5.5,20.1,10.5,29.2c-37.9,10.9-62.1,48.2-55,86.9
		c7.6,41.1,48,68.2,90.1,60.4c12.8-2.3,24.8-7.8,35-15.9c30.2,31.2,80,31.9,111.2,1.7c7.8-7.5,13.9-16.6,18-26.7
		c25.7,12.3,54.6,16.1,82.5,10.9c40.3-7.3,75-32.8,94.1-69.1c18,4.2,36.7,4.6,54.9,1.2c71.7-13.3,119.4-80.8,106.4-150.8
		S2079.1-376.7,2007.3-363.4z"/>
	<path id="Path_14_00000098914557195254796320000014124728854741202348_" class="st0" d="M2008.8-415.3
		c-17.7,9.6-32.9,23.2-44.7,39.5c-15.6-21.1-45.2-27.9-69.3-14.5c-11.5,6.3-20.5,16.5-25,28.9c-21.1-18.7-53-23-79.7-8.4
		c-33.8,18.5-46.6,60.3-28.5,93.4c1.1,2,2.3,4,3.6,5.9c-12.4,1.7-24.5,5.6-35.5,11.7c-48.3,26.5-66.6,86.2-40.7,133.3
		c5,9.1,11.5,17.4,19.1,24.4c-32.6,22.2-43.9,65.2-25,99.7c20.1,36.7,66.9,49.8,104.5,29.2c11.4-6.2,21.1-15.2,28.3-26.1
		c38.4,20.2,86,5.3,106.1-33.2c5.1-9.6,8-20.1,8.7-31c28.3,3.6,56.9-1.8,81.8-15.5c36-19.5,61-54.6,67.8-95.1
		c18.4-1.6,36.3-7.1,52.5-16c63.9-35.1,88.1-114.1,53.9-176.5C2152.3-427.9,2072.8-450.4,2008.8-415.3z"/>
	<path id="Path_15" class="st0" d="M803.1-4.6c-19.7-4.1-40-3.7-59.6,1.1c1.9-26.2-16.3-50.4-43.3-56c-12.9-2.7-26.3-0.7-37.8,5.7
		c-4-28-25.5-51.9-55.3-58c-37.8-7.8-74.6,15.8-82.2,52.6c-0.5,2.2-0.8,4.5-1,6.8c-10.6-6.8-22.3-11.6-34.6-14.1
		C435.2-77.7,382.6-44,371.7,8.7c-2.1,10.2-2.5,20.7-1.2,31c-39.2-4.2-75.7,21.2-83.7,59.7c-8.5,41,18.7,81.2,60.7,89.9
		c12.7,2.7,25.9,2.1,38.4-1.6c16.2,40.3,62.1,59.8,102.3,43.5c10.1-4.1,19.2-10.1,26.7-17.9c19.1,21.1,44.4,35.5,72.3,41.2
		c40.1,8.4,81.9-2.1,113.2-28.5c15.1,10.7,32.3,18.1,50.4,21.8c71.4,14.8,141-29.8,155.4-99.5S874.5,10.2,803.1-4.6z"/>
	<path id="Path_16" class="st0" d="M1635.6-159.6c9.3-21.4,12-45,7.8-67.9c-12-64.8-75.5-107.4-141.9-95.1
		c-41.6,7.5-76.4,35.9-92.2,75.1c-11.7-7.7-25.9-10.6-39.7-8c-19.7,3.5-35.7,17.8-41.6,36.9c-14-5.9-29.4-7.6-44.4-4.8
		c-40.8,7.5-68,45.5-61.5,85.3c-67.4,12.8-112.2,76.4-100,142.3c12.2,66.1,77.1,109.5,144.8,97c12.7-2.4,25-6.6,36.5-12.7
		c16.8,29.5,51.5,46.6,87.5,39.9c19-3.5,36.2-13.3,48.7-28c36.5,25.2,81.5,34.7,125.1,26.5c89.4-16.6,148.8-100.7,132.6-188
		C1690-100.6,1667.9-135.8,1635.6-159.6z"/>
	<path id="Path_17" class="st0" d="M373.3,167.1c12.8-16.6,20.2-36.7,21.5-57.6C398.3,50.3,352.1-0.7,291.4-4.4
		c-37.9-2.4-74.6,14.8-96.8,45.6c-8.5-9.3-20.3-14.9-32.9-15.6c-17.9-1.3-35.1,7.7-44.3,23.1C106.4,40.5,93.3,35.7,79.7,35
		C42.4,32.7,10.4,60,7.4,96.2c-61.7-3.5-114.6,42.3-118.2,102.6c-3.7,60.4,43.6,112.4,105.5,116.2c11.7,0.7,23.3-0.4,34.6-3.2
		c8.2,29.5,34.9,51.8,67.8,53.8c17.3,1.1,34.5-3.8,48.7-13.9c26.4,29.9,63.7,48.1,103.5,50.3c81.7,4.9,151.9-55.7,156.7-135.4
		C408,230.5,396.3,194.9,373.3,167.1z"/>
	<path id="Path_17_00000136400174237173673240000000990911622263645086_" class="st0" d="M-136,288.2c-19.1-8.7-35.1-22.9-46-40.8
		c-30.9-50.6-14.1-117.4,37.8-149.1c32.4-19.9,72.8-22,106.9-5.2C-34.1,81-26.4,70.5-15.5,64c15.2-9.5,34.6-9.7,49.9-0.4
		c5.8-12.4,15.1-22.8,26.8-29.9c31.8-19.5,72.9-10.4,92.5,20.1c52.8-32,121-16.4,152.6,35.1c31.6,51.6,14.3,119.7-38.6,152.1
		c-10,6.1-20.7,10.6-32,13.4c6.5,29.9-6.5,62.2-34.6,79.4c-14.8,9.1-32.3,12.9-49.5,10.6c-9.2,38.8-33.7,72.3-67.8,93
		c-69.8,42.7-160.3,22.1-201.9-46C-136.9,360.5-143.3,323.6-136,288.2z"/>
	<path id="Path_18" class="st0" d="M1235.1-79.6c1.1-10.2,0.7-20.5-1.2-30.6c-10.9-59-68.8-97.7-129.2-86.5
		c-17.7,3.2-34.4,10.7-48.6,21.7c-15.4-15.8-37.7-22.9-59.4-18.7c-31.5,5.8-53.6,32.8-53.7,63c-13.7-8-29.8-10.8-45.4-7.8
		c-35.5,6.6-59.1,40-52.7,74.7c0.5,2.7,1.2,5.4,2.1,8.1c-10.9-1.2-22-0.7-32.8,1.3c-60.4,11.2-100.6,68.1-89.6,127
		s68.8,97.7,129.2,86.5c39.5-7.1,72.1-34.9,85.5-72.7c24.5,31.4,65.8,48.4,108.4,40.5c25.3-4.6,48.2-17.7,65-37.1
		c24.4,32.2,66.2,49.7,109.4,41.7c60.4-11.2,100.6-68.1,89.6-127C1304.1-37,1273.5-68.3,1235.1-79.6z"/>
</g>
</svg>
