<?xml version="1.0" encoding="utf-8"?>
<!-- Generator: Adobe Illustrator 25.4.1, SVG Export Plug-In . SVG Version: 6.00 Build 0)  -->
<svg version="1.1" id="Layer_1" xmlns="http://www.w3.org/2000/svg" xmlns:xlink="http://www.w3.org/1999/xlink" x="0px" y="0px"
	 viewBox="0 0 1911 2548" style="enable-background:new 0 0 1911 2548;" xml:space="preserve">
<style type="text/css">
	.st0{opacity:0.1;}
	.st1{fill:#FFFFFF;}
</style>
<g id="Group_25" transform="translate(-4.5 -1069)" class="st0">
	<g id="Group_14" transform="translate(4.501 1069)">
		<path id="Path_81" class="st1" d="M455.8,1274H0v-221.3l88.5-88.5c17-17,44.6-17,61.6,0c0,0,0,0,0,0l296.5,296.5
			C450.5,1264.5,453.6,1269,455.8,1274z"/>
		<path id="Path_82" class="st1" d="M1911,226.3v571.4l-254.9-254.9c-17-17-17-44.6,0-61.6c0,0,0,0,0,0L1911,226.3z"/>
		<path id="Path_83" class="st1" d="M647.6,0l-206,206c-17,17-44.6,17-61.6,0c0,0,0,0,0,0L174,0H647.6z"/>
		<path id="Rectangle_64" class="st1" d="M28.3,225.4L161.5,92.2c6.7-6.7,17.5-6.7,24.2,0l133.1,133.1c6.7,6.7,6.7,17.5,0,24.2
			L185.7,382.7c-6.7,6.7-17.5,6.7-24.2,0L28.3,249.5C21.7,242.9,21.7,232,28.3,225.4z"/>
		<path id="Path_84" class="st1" d="M1594.5,1274h-239l88.7-88.6c17-17,44.6-17,61.6,0c0,0,0,0,0,0L1594.5,1274z"/>
		<path id="Rectangle_65" class="st1" d="M1650.4,264.6l60-60c6.7-6.7,17.5-6.7,24.2,0l60,60c6.7,6.7,6.7,17.5,0,24.2l-60,60
			c-6.7,6.7-17.5,6.7-24.2,0l-60-60C1643.7,282.1,1643.7,271.3,1650.4,264.6z"/>
		<path id="Path_85" class="st1" d="M1772.5,104.1l-80.2,80.2c-17,17-44.6,17-61.6,0c0,0,0,0,0,0l-80.2-80.2c-17-17-17-44.6,0-61.6
			c0,0,0,0,0,0L1593,0h137l42.5,42.5C1789.5,59.5,1789.5,87.1,1772.5,104.1C1772.5,104.1,1772.5,104.1,1772.5,104.1z"/>
	</g>
	<g id="Group_15" transform="translate(4.5 2343)">
		<path id="Path_81-2" class="st1" d="M455.8,0H0v221.3l88.5,88.5c17,17,44.6,17,61.6,0c0,0,0,0,0,0L446.7,13.3
			C450.5,9.5,453.6,5,455.8,0z"/>
		<path id="Path_84-2" class="st1" d="M1594.5,0h-239l88.7,88.6c17,17,44.6,17,61.6,0c0,0,0,0,0,0L1594.5,0z"/>
		<path id="Rectangle_65-2" class="st1" d="M1734.6,925.2l60,60c6.7,6.7,6.7,17.5,0,24.2l-60,60c-6.7,6.7-17.5,6.7-24.2,0l-60-60
			c-6.7-6.7-6.7-17.5,0-24.2l60-60C1717,918.5,1727.9,918.5,1734.6,925.2z"/>
		<path id="Path_85-2" class="st1" d="M1772.5,1169.9l-80.2-80.2c-17-17-44.6-17-61.6,0c0,0,0,0,0,0l-80.2,80.2
			c-17,17-17,44.6,0,61.6c0,0,0,0,0,0l42.5,42.5h137l42.5-42.5C1789.5,1214.5,1789.5,1186.9,1772.5,1169.9
			C1772.5,1169.9,1772.5,1169.9,1772.5,1169.9z"/>
	</g>
</g>
</svg>
