<?xml version="1.0" encoding="utf-8"?>
<!-- Generator: Adobe Illustrator 25.4.1, SVG Export Plug-In . SVG Version: 6.00 Build 0)  -->
<svg version="1.1" id="Layer_1" xmlns="http://www.w3.org/2000/svg" xmlns:xlink="http://www.w3.org/1999/xlink" x="0px" y="0px"
	 viewBox="0 0 5460 6035" style="enable-background:new 0 0 5460 6035;" xml:space="preserve">
<style type="text/css">
	.st0{clip-path:url(#SVGID_00000165194896050541732350000018152263893493120141_);}
	.st1{opacity:0.49;fill:url(#SVGID_00000119097553422716838880000015464331894366781841_);enable-background:new    ;}
	.st2{fill:#99BBE3;}
	.st3{fill:url(#SVGID_00000095324238517879678000000010178718547302124966_);}
	.st4{fill:url(#SVGID_00000145736791371789535410000011617540718819049914_);}
	.st5{fill:url(#SVGID_00000117652485106306021420000008746726289103053741_);}
	.st6{fill:url(#SVGID_00000075852892219592637540000008656908398318665884_);}
	.st7{fill:url(#SVGID_00000181051473556906856450000008831626868604593032_);}
	.st8{fill:url(#SVGID_00000102530751840567212200000010273555486790075823_);}
	.st9{fill:url(#SVGID_00000093143759346435138040000000062763892551775146_);}
	.st10{fill:url(#SVGID_00000090993242980806785020000001264737852108713645_);}
	.st11{fill:url(#SVGID_00000074404975088433567350000006697836762032987011_);}
	.st12{fill:url(#SVGID_00000084491492450156198440000017954138154598497174_);}
	.st13{fill:#232A65;}
	.st14{fill:#FFFFFF;}
	.st15{fill:#96BDE5;}
	.st16{fill:#7AA8D9;}
	.st17{fill:#3B52A3;}
	.st18{opacity:0.42;fill:#C5DAF1;enable-background:new    ;}
	.st19{fill:url(#SVGID_00000017518227337811762670000011435347491419462305_);}
	.st20{fill:#C5DAF1;}
	.st21{opacity:0.92;fill:url(#SVGID_00000024706239441428169590000007498169965883007165_);enable-background:new    ;}
	.st22{opacity:0.7;fill:url(#SVGID_00000171679767532525601150000018341937460119862203_);enable-background:new    ;}
	.st23{opacity:0.7;fill:url(#SVGID_00000077322061657908690630000008135395273386929564_);enable-background:new    ;}
	.st24{fill:url(#SVGID_00000119095881391402720440000005987176211808455580_);}
	.st25{fill:url(#SVGID_00000164514457490773215630000008581122125691150466_);}
	.st26{opacity:0.17;}
	.st27{fill:#EBEFF9;}
	.st28{opacity:0.33;}
	.st29{fill:#DAE4F4;}
	.st30{opacity:0.5;}
	.st31{fill:#C9D9F0;}
	.st32{opacity:0.67;}
	.st33{fill:#B9CEEB;}
	.st34{opacity:0.83;}
	.st35{fill:#A9C4E7;}
	.st36{fill:#507DBF;}
	.st37{fill:url(#SVGID_00000156545990536435570550000008108124531743191715_);}
	.st38{fill:url(#SVGID_00000063614014443439871760000008705942212896508050_);}
	.st39{fill:url(#SVGID_00000044894976873380673840000013915716582209666994_);}
	.st40{fill:url(#SVGID_00000177469697292182435010000014121998610988082598_);}
	.st41{fill:#3371A4;}
	.st42{fill:url(#SVGID_00000022536213914316551590000013398143066791384200_);}
	.st43{fill:#D5E5F6;}
	.st44{fill:url(#SVGID_00000061457358100901114660000012434944480558161027_);}
	.st45{fill:url(#SVGID_00000036248881030817540060000001735939297729773224_);}
	.st46{fill:url(#SVGID_00000060015818559960776110000009248991157226791867_);}
	.st47{fill:#2C317B;}
	.st48{fill:#9AB6DF;}
	.st49{fill:url(#SVGID_00000034777986782929339380000002641970616403709090_);}
	.st50{fill:url(#SVGID_00000050662131768504455160000011510213185960466331_);}
	.st51{opacity:0.92;}
	.st52{opacity:0.92;fill:url(#SVGID_00000137849587409518082740000016787869581280453255_);enable-background:new    ;}
	.st53{fill:url(#SVGID_00000024717995065197104640000009358336841061251514_);}
	.st54{fill:url(#SVGID_00000102522956491882104180000004735621279848855458_);}
	.st55{fill:#F7FCFE;}
	.st56{fill:#253C97;}
	.st57{fill:url(#SVGID_00000081623789225811025280000001323520023367150754_);}
	.st58{fill:url(#SVGID_00000059284392106057210520000011408573015098471866_);}
	.st59{fill:url(#SVGID_00000009588916193815830680000008843214241079045784_);}
</style>
<g>
	<g>
		<defs>
			<rect id="SVGID_1_" width="5460" height="6035"/>
		</defs>
		<clipPath id="SVGID_00000021090260889734915110000000949513600518487220_">
			<use xlink:href="#SVGID_1_"  style="overflow:visible;"/>
		</clipPath>
		<g style="clip-path:url(#SVGID_00000021090260889734915110000000949513600518487220_);">
			
				<linearGradient id="SVGID_00000142165387763804657570000016274391347026962330_" gradientUnits="userSpaceOnUse" x1="7323.6484" y1="9077.9453" x2="11407.0557" y2="9077.9453" gradientTransform="matrix(1 0 0 -1 -7080 10990.4678)">
				<stop  offset="0" style="stop-color:#FFFFFF"/>
				<stop  offset="1" style="stop-color:#C5DAF1"/>
			</linearGradient>
			
				<path style="opacity:0.49;fill:url(#SVGID_00000142165387763804657570000016274391347026962330_);enable-background:new    ;" d="
				M484,1030.5c-593.2,1642.7-117.4,2946.3,1752,2780.7C4105.5,3645.5,5103,1637.9,3590.1,671C2077.2-296,947.8-254.2,484,1030.5z"
				/>
			<path class="st2" d="M3144.9,2391.6c-1.5,0-3-0.3-4.4-0.9c-2.7-1.2-4.9-3.3-6-6.1c-1.1-2.7-1.1-5.8,0.1-8.5
				c68.8-162.3,240.7-349.8,510.7-557.3c123.5-94.7,252.1-182.7,385.1-263.5c1.3-0.9,2.7-1.6,4.2-1.9s3.1-0.3,4.6,0s3,1,4.2,1.9
				c1.3,0.9,2.3,2.1,3.1,3.4c0.8,1.3,1.3,2.8,1.4,4.4c0.2,1.6,0,3.1-0.5,4.6s-1.3,2.9-2.3,4c-1.1,1.2-2.3,2.1-3.7,2.8
				c-7.3,4.2-725.6,431.4-886.6,810.3c-0.8,2-2.2,3.7-4,4.9C3149.1,2390.9,3147,2391.5,3144.9,2391.6L3144.9,2391.6z"/>
			
				<linearGradient id="SVGID_00000066517747392058845880000013006568659974082713_" gradientUnits="userSpaceOnUse" x1="11538.7764" y1="9683.4502" x2="10934.0957" y2="9301.04" gradientTransform="matrix(1 0 0 -1 -7080 10990.4678)">
				<stop  offset="4.000000e-02" style="stop-color:#C5DAF1"/>
				<stop  offset="1" style="stop-color:#99BBE3"/>
			</linearGradient>
			<path style="fill:url(#SVGID_00000066517747392058845880000013006568659974082713_);" d="M4098.8,1587.1
				c451.4,98.5,122.3-474.9-44.7-127.6c-93.1-191.2-338.2,54.6-51.5,115C3903.3,1961.1,4315.5,1750.9,4098.8,1587.1z"/>
			<path class="st2" d="M3149.7,3110.5c-2.3,0-4.6-0.7-6.5-2.1c-1.9-1.3-3.3-3.2-4.1-5.4c-147.5-422.9-5.4-725.5,120-992.5
				c87.7-187,163.6-348.4,131.6-522.3c-0.3-1.5-0.2-3,0.1-4.4c0.3-1.5,0.9-2.8,1.8-4.1c0.8-1.2,1.9-2.3,3.2-3.1
				c1.3-0.8,2.7-1.4,4.1-1.6c1.5-0.3,3-0.2,4.4,0.1c1.5,0.3,2.8,0.9,4.1,1.8c1.2,0.8,2.3,1.9,3.1,3.2c0.8,1.2,1.4,2.6,1.6,4.1
				c33.5,180.9-47.6,353.4-133.3,536.4c-123.6,263.2-263.6,561.3-119.1,975.6c0.5,1.4,0.7,2.9,0.6,4.3c-0.1,1.5-0.4,2.9-1.1,4.2
				c-0.6,1.3-1.5,2.5-2.6,3.5s-2.4,1.8-3.8,2.2C3152.4,3110.7,3151.1,3110.7,3149.7,3110.5L3149.7,3110.5z"/>
			
				<linearGradient id="SVGID_00000107581183582086352010000012027773140308670395_" gradientUnits="userSpaceOnUse" x1="-1121790.875" y1="1080.2887" x2="-1038150.875" y2="1790.2892" gradientTransform="matrix(1 0 0 -1 -7080 10990.4678)">
				<stop  offset="4.000000e-02" style="stop-color:#C5DAF1"/>
				<stop  offset="1" style="stop-color:#99BBE3"/>
			</linearGradient>
			<path style="fill:url(#SVGID_00000107581183582086352010000012027773140308670395_);" d="M2210.2,84.6
				c-126.3,50.8-261.9,241-127.8,382.7c134.1,141.7,353.6,36.8,373.2-120.5C2479.4,157.5,2245.6,70.4,2210.2,84.6z"/>
			
				<linearGradient id="SVGID_00000023962798418897642500000007039478855384903605_" gradientUnits="userSpaceOnUse" x1="-79326.2969" y1="-58417.9336" x2="-268526.2812" y2="-202867.9375" gradientTransform="matrix(1 0 0 -1 -7080 10990.4678)">
				<stop  offset="4.000000e-02" style="stop-color:#C5DAF1"/>
				<stop  offset="1" style="stop-color:#99BBE3"/>
			</linearGradient>
			<path style="fill:url(#SVGID_00000023962798418897642500000007039478855384903605_);" d="M2072.9,1538.7
				c-67.1,185.4,109.5,411.4,272.8,405.6s232.4-180.6,194.5-335.3c-38-154.7-86.8-205.9-217.1-210.4
				C2192.6,1394.1,2088.1,1497,2072.9,1538.7z"/>
			
				<linearGradient id="SVGID_00000120528797954470337240000014447340402026239122_" gradientUnits="userSpaceOnUse" x1="118231" y1="10374.7412" x2="139332" y2="10374.7412" gradientTransform="matrix(1 0 0 -1 -7080 10990.4678)">
				<stop  offset="4.000000e-02" style="stop-color:#C5DAF1"/>
				<stop  offset="1" style="stop-color:#99BBE3"/>
			</linearGradient>
			<path style="fill:url(#SVGID_00000120528797954470337240000014447340402026239122_);" d="M1773.1,514.5
				c-28.1,82.4,144,204.5,282.2,237.7c138.1,33.2,196.5-32.6,200.4-80.8s-157-157.1-309.3-191.5
				C1794,445.4,1773.1,514.5,1773.1,514.5z"/>
			<path class="st2" d="M2926.6,2357.9c-2.5,0.1-5-0.7-7-2.2s-3.5-3.6-4.2-6.1c-57.8-203.1-129.6-402-214.9-595.2
				c-138.8-312.3-389.8-1082.8-414.8-1309.8c-0.2-1.5,0-3,0.4-4.4s1.1-2.7,2-3.9c0.9-1.2,2.1-2.1,3.4-2.8c1.3-0.7,2.7-1.2,4.2-1.3
				c1.5-0.2,2.9,0,4.4,0.4c1.4,0.4,2.7,1.1,3.9,2s2.1,2.1,2.8,3.4s1.2,2.7,1.3,4.2c24.2,219.3,276.9,996.8,413.5,1303.2
				c85.8,194.2,157.9,394.2,216,598.4c0.4,1.4,0.5,2.9,0.3,4.4c-0.2,1.4-0.6,2.9-1.4,4.1c-0.7,1.3-1.7,2.4-2.9,3.3
				c-1.2,0.9-2.5,1.6-3.9,2L2926.6,2357.9z"/>
			
				<linearGradient id="SVGID_00000093872820341522760430000008699319038046974358_" gradientUnits="userSpaceOnUse" x1="103245.0234" y1="-90293.0312" x2="118473.0234" y2="-106535.0312" gradientTransform="matrix(1 0 0 -1 -7080 10990.4678)">
				<stop  offset="4.000000e-02" style="stop-color:#C5DAF1"/>
				<stop  offset="1" style="stop-color:#99BBE3"/>
			</linearGradient>
			<path style="fill:url(#SVGID_00000093872820341522760430000008699319038046974358_);" d="M1834.6,761.3
				c-107.8,168.7,130.8,485.6,367.8,243.1C2439.4,761.8,1946.4,586.6,1834.6,761.3z"/>
			<path class="st2" d="M2380.1,807.1c-2.1,0-4.1-0.6-5.8-1.7l-254-155.2l11.7-19.1l254,155.3c1.3,0.8,2.4,1.8,3.2,3
				c0.9,1.2,1.5,2.5,1.8,4c0.3,1.4,0.4,2.9,0.2,4.4s-0.8,2.8-1.5,4.1c-1,1.6-2.4,3-4.1,3.9C2383.9,806.6,2382,807.1,2380.1,807.1z"
				/>
			<path class="st2" d="M2449.2,1041.5c-2,0-4-0.6-5.7-1.7c-56.5-34.1-287.4-129.2-289.8-130.1c-1.4-0.6-2.6-1.4-3.6-2.4
				s-1.9-2.3-2.4-3.6c-0.6-1.4-0.9-2.8-0.9-4.3s0.3-2.9,0.8-4.3c0.6-1.4,1.4-2.6,2.4-3.6s2.3-1.9,3.6-2.4c1.4-0.6,2.8-0.9,4.3-0.9
				s2.9,0.3,4.3,0.8c9.5,3.9,234.7,96.7,292.8,131.6c2.1,1.2,3.8,3.2,4.7,5.4c0.9,2.3,1.1,4.8,0.4,7.2c-0.7,2.4-2.1,4.5-4.1,5.9
				C2454.1,1040.8,2451.7,1041.6,2449.2,1041.5L2449.2,1041.5z"/>
			
				<linearGradient id="SVGID_00000001635411781384313060000007590218606658121856_" gradientUnits="userSpaceOnUse" x1="-129151.0781" y1="731249.6875" x2="-124897.0859" y2="709084.6875" gradientTransform="matrix(1 0 0 -1 -7080 10990.4678)">
				<stop  offset="0" style="stop-color:#FFFFFF"/>
				<stop  offset="1" style="stop-color:#C5DAF1"/>
			</linearGradient>
			<path style="fill:url(#SVGID_00000001635411781384313060000007590218606658121856_);" d="M2072.9,1538.7
				c67,86.2,256.3,211,462.6,52.4c0,0-36.4-153.8-63.2-177C2445.4,1390.8,2107.3,1350.4,2072.9,1538.7z"/>
			
				<linearGradient id="SVGID_00000177463076552479502710000007923401507854435480_" gradientUnits="userSpaceOnUse" x1="-308202.75" y1="-174588.2969" x2="-449592.7188" y2="-256608.3281" gradientTransform="matrix(1 0 0 -1 -7080 10990.4678)">
				<stop  offset="4.000000e-02" style="stop-color:#C5DAF1"/>
				<stop  offset="1" style="stop-color:#99BBE3"/>
			</linearGradient>
			<path style="fill:url(#SVGID_00000177463076552479502710000007923401507854435480_);" d="M2062.8,1261.7
				c-66.5,148,85.7,276.2,165.8,319.2c80.1,42.9,277.1-41,286.3-177.3s-87.1-297.7-208.2-288.7
				C2185.6,1123.9,2086.9,1207.9,2062.8,1261.7z"/>
			<path class="st2" d="M2632.7,1568.2c-2.6,0-5.1-0.9-7.1-2.6c-65.6-54.9-134-106.3-204.9-154.1c-1.3-0.8-2.5-1.8-3.4-3
				s-1.6-2.6-1.9-4.1c-0.4-1.5-0.4-3-0.2-4.5s0.8-2.9,1.6-4.2c0.8-1.3,1.9-2.4,3.1-3.2c1.3-0.9,2.7-1.4,4.2-1.7
				c1.5-0.3,3-0.3,4.5,0.1c1.5,0.3,2.9,1,4.1,1.8c71.8,48.3,141,100.3,207.3,155.8c1.7,1.5,3,3.5,3.6,5.7s0.5,4.5-0.3,6.7
				c-0.8,2.1-2.2,4-4.1,5.3C2637.2,1567.5,2635,1568.2,2632.7,1568.2L2632.7,1568.2z"/>
			<path class="st2" d="M2789.1,1948.7c-2.8,0-5.5-1-7.6-2.9c-81.6-74.9-336.7-216.1-339.3-217.6s-4.5-3.9-5.3-6.8s-0.4-6,1.1-8.6
				s3.9-4.5,6.8-5.3c2.9-0.8,6-0.4,8.6,1.1c10.5,5.8,260,144,343.5,220.6c1.1,1,2,2.2,2.6,3.5s1,2.8,1,4.3c0.1,1.5-0.2,3-0.7,4.3
				c-0.5,1.4-1.3,2.7-2.3,3.7c-1.1,1.2-2.4,2.1-3.9,2.7C2792.2,1948.5,2790.6,1948.8,2789.1,1948.7z"/>
			
				<linearGradient id="SVGID_00000041259419989888078380000012836534721581947566_" gradientUnits="userSpaceOnUse" x1="2766.8523" y1="3875.3845" x2="-125323.1719" y2="-104274.6016" gradientTransform="matrix(1 0 0 -1 -7080 10990.4678)">
				<stop  offset="4.000000e-02" style="stop-color:#C5DAF1"/>
				<stop  offset="1" style="stop-color:#99BBE3"/>
			</linearGradient>
			<path style="fill:url(#SVGID_00000041259419989888078380000012836534721581947566_);" d="M2662.4,930.4
				c-37.4,157.8-32.8,322.4,65.8,394c98.7,71.6,262.1-3.9,308-94.2c45.9-90.3,13.2-284-71.3-413.5
				C2880.5,687.3,2685.9,831.5,2662.4,930.4z"/>
			<path class="st2" d="M2607.8,1501.7c-1,0.1-1.9,0.1-2.9,0c-1.4-0.4-2.8-1-3.9-1.9s-2.1-2-2.9-3.3c-0.7-1.3-1.2-2.7-1.4-4.1
				c-0.2-1.5-0.1-2.9,0.3-4.4c19.2-69.3,72.4-130.3,119.3-184c28.2-32.3,54.7-62.7,68.1-88.8c1.3-2.6,3.7-4.6,6.5-5.5
				s5.9-0.7,8.5,0.6c1.3,0.7,2.5,1.6,3.5,2.7s1.7,2.4,2.2,3.8c0.4,1.4,0.6,2.9,0.5,4.3c-0.1,1.5-0.5,2.9-1.2,4.2
				c-14.6,28.6-42,60-71.1,93.3c-45.4,52.1-96.8,111.1-114.7,175.3c-0.7,2.3-2.2,4.3-4.1,5.7S2610.2,1501.8,2607.8,1501.7z"/>
			
				<linearGradient id="SVGID_00000008142908421807009150000016355338532131286960_" gradientUnits="userSpaceOnUse" x1="-59.5697" y1="-38903.4688" x2="-4551.5703" y2="-61587.9766" gradientTransform="matrix(1 0 0 -1 -7080 10990.4678)">
				<stop  offset="4.000000e-02" style="stop-color:#C5DAF1"/>
				<stop  offset="1" style="stop-color:#99BBE3"/>
			</linearGradient>
			<path style="fill:url(#SVGID_00000008142908421807009150000016355338532131286960_);" d="M2388.3,629.5
				c-122.4,127.2-69.1,279.4,93.5,342.3s340.7-42.7,367-162.3s-91.8-264.6-178.1-279.4C2584.3,515.4,2451.6,564.2,2388.3,629.5z"/>
			
				<linearGradient id="SVGID_00000169559747197287369990000016027056085730992262_" gradientUnits="userSpaceOnUse" x1="4700.5469" y1="5199.8018" x2="-24089.4512" y2="-17660.2031" gradientTransform="matrix(1 0 0 -1 -7080 10990.4678)">
				<stop  offset="4.000000e-02" style="stop-color:#C5DAF1"/>
				<stop  offset="1" style="stop-color:#99BBE3"/>
			</linearGradient>
			<path style="fill:url(#SVGID_00000169559747197287369990000016027056085730992262_);" d="M2702.1,1507.1
				c-40.8,164.9,97.9,410.5,153.9,402.3c56-8.2,23.2-382.7-37.5-444.7C2757.7,1402.8,2712.5,1464.8,2702.1,1507.1z"/>
			<path class="st13" d="M2820.5,2037.6c-1.4,0.2-2.8,0.2-4.1,0c-2.1-0.5-4.1-1.5-5.9-2.8c-1.8-1.3-3.2-3-4.4-4.9
				c-1.1-1.9-1.9-4-2.2-6.2s-0.2-4.4,0.4-6.5c20.3-79.7,19.4-204.6,19.4-206c-0.2-2.3,0.2-4.6,0.9-6.7c0.8-2.2,2-4.1,3.5-5.8
				c1.6-1.7,3.5-3,5.6-3.9s4.4-1.4,6.6-1.4c4.4,0,8.7,1.8,11.8,4.9s4.9,7.4,5,11.8c0,5.3,0.9,130.5-20.6,214.5
				c-0.8,3.7-2.9,6.9-5.8,9.3C2827.9,2036.2,2824.2,2037.5,2820.5,2037.6L2820.5,2037.6z"/>
			<path class="st14" d="M2723.7,4815.2c1.3,102.9,144.7,100.6,240.3,76.1c87.6-22.3,126.2,55,78.2,130.2
				c-123.9,194.7-205.8,98.7-479.9,187.4c-104.2,33.5-194.6-44.7-186.6-88.3c11.9-65.4,44.7-194,42.4-280.4
				C2415,4746.4,2723.7,4815.2,2723.7,4815.2z"/>
			<path class="st15" d="M2763.5,4801c-163.8,214-382.6,99.8-401.7,37.4c-19.1-62.4,337.4-148.1,337.4-148.1L2763.5,4801z"/>
			<path class="st2" d="M3043,4906.8c58.7,49.1-57.7,199.8-167.1,187.8c-109.4-12.1-148.1,2.1-201.1,33.5
				c-53.1,31.4-198.2,54.7-241.7,25.1c-70.2-47.7-60.8-108.9-60.8-108.9l-79.4,154.5l174.8,93.4l604-118.2l103.9-158.1L3043,4906.8z
				"/>
			<g>
				<path class="st16" d="M2763.5,4801c-163.8,214-382.6,99.8-401.7,37.4c-19.1-62.4,337.4-148.1,337.4-148.1L2763.5,4801z"/>
			</g>
			<path class="st14" d="M4060.9,5030.8c85.4,85.4,301.7,86.6,459.5,85.6c94-0.6,101.6,78.2,68.9,104.9
				c-140.8,117-398.2,142.9-658.5,227.8c-99,32.3-139.6-47.3-133-89.4c9.9-62.2-8.8-178.8-13.5-261.2
				C3779.1,5009.8,4010.5,4980.5,4060.9,5030.8z"/>
			<path class="st2" d="M4584.4,5134.9c58.7,89.4-217.6,184.8-322.6,173.7c-105-11.2-175.3,33.5-225.1,62.9
				c-49.7,29.4-177.9,30.4-210.8-7.5c-19.3-21.3-30.9-48.4-33-77.1l-72.5,147.7l169.4,88.4l653.3-168.7l153.9-167.7L4584.4,5134.9z"
				/>
			<path class="st15" d="M4062.3,5076.7c-17,37.8-121.6,107.1-179.6,111.8c-92.2,7-146.5-71.4-147.8-109.5
				c-2.3-62.2,144.5-174.8,144.5-174.8S4075,5048.8,4062.3,5076.7z"/>
			<g>
				<path class="st15" d="M2763.5,4801c-163.8,214-382.6,99.8-401.7,37.4c-19.1-62.4,337.4-148.1,337.4-148.1L2763.5,4801z"/>
			</g>
			<g>
				<path class="st15" d="M4062.3,5076.7c-17,37.8-121.6,107.1-179.6,111.8c-92.2,7-146.5-71.4-147.8-109.5
					c-2.3-62.2,144.5-174.8,144.5-174.8S4075,5048.8,4062.3,5076.7z"/>
			</g>
			<path class="st17" d="M895.9,4203.2c370.2,47.2,1308.5-600.2,1341-392c71.4,465.4,116.2,223.5,175.7,971.1
				c11.2,136.3,338.5,95.7,338.4,15.8c0-303.3,22.4-1295.5-12.6-1439.1c-27.7-113.4-132.3-212.3-257-220.5
				c-131.8-10.2-264.5-0.3-393.4,29.2c-465.9,108.6-1151,236-1419.2,308.2C358.1,3559.1,525.3,4156,895.9,4203.2z"/>
			<path class="st18" d="M2798.6,4387.2c-65.5-604.6-179.1-1198.6-338.2-1192.4c-215.6,8.4-517.6,95.4-718.9,165.2
				s-171.8,285.6-171.8,285.6L455,3872l2069.7-1240.4l706.8,360.8L2798.6,4387.2z"/>
			
				<linearGradient id="SVGID_00000177447053905281647550000010295061126598503045_" gradientUnits="userSpaceOnUse" x1="8318.1992" y1="6869.9297" x2="9845.7002" y2="6869.9297" gradientTransform="matrix(1 0 0 -1 -7080 10990.4678)">
				<stop  offset="0" style="stop-color:#F7FCFE"/>
				<stop  offset="0.85" style="stop-color:#C5DAF1"/>
			</linearGradient>
			<path style="fill:url(#SVGID_00000177447053905281647550000010295061126598503045_);" d="M2765.7,4049
				c-187.2-161.1-496.1-155.4-496.1-155.4l-1031.4,234.7l637,219.2l843.6-137.2l44.7-115.3L2765.7,4049z"/>
			<path class="st17" d="M668.4,3475.8c-5.8,98.4-215.3,789.9,274.8,845.6c70.4,8,140.8,55.1,229.4,75.9
				c254.6,59.9,655.1-19.9,1091.2-204.8c460.4-195.1,512.7-218.9,584-169.3c62.2,43.2,91.5,215,293.4,484
				c176.2,234.7,166.6,203.7,615.2,664.8c76.6,78.9,345.8-157.4,265.4-243.6c-260.7-279.4-371.6-580.6-691.9-1141.8
				c-156.4-273.2-211.3-421.1-611.7-352c-450.7,77.7-763.1,135.1-1079.3,211C980.5,3803.7,668.4,3475.8,668.4,3475.8z"/>
			<path class="st18" d="M4115.2,5137.9c-284.8-293-800.8-1252.8-952.9-1369.9c-192.1-147.8-250.9-271.6-409.4-212.3
				c-158.6,59.2-1023.8,278-1238.4,252.1c-421.9-51.1-63.5-120.2-63.5-120.2L3306,3144l1121.2,1223.5L4115.2,5137.9z"/>
			<path class="st20" d="M830.6,4198.7c216.5,44.7,482.1,21.3,395.5-198.4c-86.6-219.7-486.2-120.7-561-375
				c-104.5-356.7-202.2-331.6-202.2-331.6L57.7,4576.8C57.8,4576.9,620.7,4155.6,830.6,4198.7z"/>
			
				<linearGradient id="SVGID_00000152952530370266769070000002576653283822585260_" gradientUnits="userSpaceOnUse" x1="75470.8047" y1="-687442.6875" x2="59730.8047" y2="-520111.6875" gradientTransform="matrix(1 0 0 -1 -7080 10990.4678)">
				<stop  offset="0" style="stop-color:#FFFFFF"/>
				<stop  offset="1" style="stop-color:#F7FCFE"/>
			</linearGradient>
			
				<path style="opacity:0.92;fill:url(#SVGID_00000152952530370266769070000002576653283822585260_);enable-background:new    ;" d="
				M5460,3152.5L2200.9,1966.3L466.2,2597.7l3259.1,1186.2L5460,3152.5z"/>
			
				<linearGradient id="SVGID_00000134933285899148655810000004536553037102687915_" gradientUnits="userSpaceOnUse" x1="-19861.7207" y1="-239015.6719" x2="-23999.7227" y2="-274181.6875" gradientTransform="matrix(1 0 0 -1 -7080 10990.4678)">
				<stop  offset="0" style="stop-color:#F7FCFE"/>
				<stop  offset="0.85" style="stop-color:#C5DAF1"/>
			</linearGradient>
			<path style="opacity:0.7;fill:url(#SVGID_00000134933285899148655810000004536553037102687915_);enable-background:new    ;" d="
				M466.2,2689.5v-91.9l3259.1,1186.3v91.9L466.2,2689.5z"/>
			
				<linearGradient id="SVGID_00000026866822322190803460000017687564275435094408_" gradientUnits="userSpaceOnUse" x1="39971.1758" y1="-167004.7344" x2="23981.1758" y2="-68414.7266" gradientTransform="matrix(1 0 0 -1 -7080 10990.4678)">
				<stop  offset="0" style="stop-color:#F7FCFE"/>
				<stop  offset="0.85" style="stop-color:#C5DAF1"/>
			</linearGradient>
			<path style="opacity:0.7;fill:url(#SVGID_00000026866822322190803460000017687564275435094408_);enable-background:new    ;" d="
				M5460,3244.4v-91.9l-1734.7,631.4v91.9L5460,3244.4z"/>
			
				<linearGradient id="SVGID_00000021111089040643667950000008716635056810840470_" gradientUnits="userSpaceOnUse" x1="10239.8848" y1="8825.8633" x2="10262.5752" y2="8758.9229" gradientTransform="matrix(1 0 0 -1 -7080 10990.4678)">
				<stop  offset="0" style="stop-color:#D5E5F6"/>
				<stop  offset="0.49" style="stop-color:#C5DAF1"/>
				<stop  offset="0.97" style="stop-color:#99BBE3"/>
			</linearGradient>
			<path style="fill:url(#SVGID_00000021111089040643667950000008716635056810840470_);" d="M2481.2,2251.7l242.7-611.9
				c7.6-18.7,22.2-33.7,40.6-41.9c18.4-8.2,39.3-9,58.3-2.2l956.2,348.4c9.1,3.3,17.5,8.5,24.6,15.2c7,6.7,12.6,14.8,16.4,23.7
				c3.8,9,5.7,18.6,5.5,28.3c-0.1,9.7-2.3,19.3-6.3,28.2l-261.7,585.8c-7.7,17-21.4,30.4-38.6,37.7c-17.1,7.3-36.4,7.8-53.9,1.5
				l-953-343.7c-6.7-2.4-12.8-6.1-18-10.9c-5.2-4.8-9.4-10.6-12.3-17.1c-2.9-6.5-4.4-13.5-4.5-20.5
				C2477.1,2265.2,2478.5,2258.2,2481.2,2251.7L2481.2,2251.7z"/>
			
				<linearGradient id="SVGID_00000034078407080545991530000000296981453187935677_" gradientUnits="userSpaceOnUse" x1="11333.9561" y1="10750.0938" x2="10354.6855" y2="9107.0273" gradientTransform="matrix(1 0 0 -1 -7080 10990.4678)">
				<stop  offset="0" style="stop-color:#F6FAFE"/>
				<stop  offset="0.18" style="stop-color:#F1F7FD"/>
				<stop  offset="0.38" style="stop-color:#E4EEF9"/>
				<stop  offset="0.58" style="stop-color:#CEE0F3"/>
				<stop  offset="0.65" style="stop-color:#C5DAF1"/>
				<stop  offset="1" style="stop-color:#C5DAF1"/>
			</linearGradient>
			<path style="fill:url(#SVGID_00000034078407080545991530000000296981453187935677_);" d="M2468.8,2248.6l242.7-611.6
				c7.6-18.7,22.2-33.7,40.6-41.9c18.4-8.2,39.3-9,58.3-2.1l956.1,348c9.1,3.3,17.5,8.5,24.5,15.2s12.6,14.8,16.4,23.7
				c3.8,9,5.7,18.6,5.5,28.3c-0.1,9.7-2.2,19.3-6.2,28.2l-261.8,585.8c-7.6,17-21.4,30.4-38.5,37.7s-36.4,7.8-53.9,1.5l-953-344.1
				c-6.6-2.4-12.7-6.1-17.8-10.8c-5.2-4.8-9.3-10.6-12.2-17s-4.4-13.4-4.5-20.4C2464.9,2262.1,2466.1,2255.2,2468.8,2248.6
				L2468.8,2248.6z"/>
			<path class="st17" d="M2512.1,2281.8l263.2-662.7l998.5,363.4L3483.2,2632L2512.1,2281.8z"/>
			<g>
				<g class="st26">
					<path class="st27" d="M2716.6,1874.4c12.2-30.6,35.7-55.2,65.8-68.7c30-13.5,64.1-14.7,95-3.4l715.2,256.5
						c16.3,6,31.2,15.2,43.8,27.2c12.6,12,22.5,26.4,29.3,42.4s10.1,33.2,9.9,50.6c-0.2,17.4-4,34.5-11.1,50.3l0,0
						c-13.1,29.1-36.6,52.2-66,64.6c-29.4,12.4-62.4,13.3-92.3,2.5L2791,2040.3c-15.9-5.8-30.6-14.7-43-26.2s-22.4-25.5-29.3-40.9
						c-6.9-15.5-10.7-32.2-11-49.1C2707.3,1907,2710.4,1890.1,2716.6,1874.4L2716.6,1874.4z"/>
				</g>
				<g class="st28">
					<path class="st29" d="M2731.1,1877.3c11.8-29.7,34.8-53.7,64-66.7c29.2-13.1,62.4-14.2,92.4-3.2l692.9,248.6
						c15.8,5.8,30.2,14.8,42.4,26.4c12.2,11.6,21.9,25.6,28.4,41.1c6.6,15.5,9.9,32.2,9.7,49c-0.1,16.8-3.8,33.4-10.6,48.8l0,0
						c-12.7,28.2-35.5,50.6-64,62.7c-28.5,12.1-60.5,13.1-89.6,2.6l-692.9-248.4c-15.5-5.5-29.8-14.2-41.9-25.3
						c-12.1-11.2-21.9-24.7-28.7-39.7s-10.5-31.2-10.9-47.7C2722.1,1909,2725,1892.6,2731.1,1877.3L2731.1,1877.3z"/>
				</g>
				<g class="st30">
					<path class="st31" d="M2745.6,1880.1c11.3-28.7,33.4-51.8,61.5-64.5s60.1-14,89.1-3.6l671.3,240.9
						c15.3,5.6,29.3,14.3,41.2,25.5c11.8,11.2,21.2,24.8,27.6,39.8c6.4,15,9.6,31.2,9.4,47.5c-0.1,16.3-3.7,32.4-10.3,47.3l0,0
						c-12.3,27.4-34.4,49.1-62,60.8s-58.6,12.6-86.8,2.5l-671.4-240.6c-14.9-5.4-28.6-13.8-40.3-24.7c-11.6-10.8-21-23.9-27.5-38.4
						s-10-30.2-10.3-46.1C2736.8,1910.7,2739.7,1894.9,2745.6,1880.1z"/>
				</g>
				<g class="st32">
					<path class="st33" d="M2760,1882.9c11.1-27.8,32.5-50.2,59.8-62.4c27.3-12.2,58.3-13.4,86.4-3.2l649.4,233.2
						c14.8,5.4,28.4,13.8,39.8,24.6c11.5,10.9,20.5,24,26.7,38.5c6.2,14.5,9.3,30.2,9.1,46c-0.1,15.8-3.5,31.4-10,45.8l0,0
						c-11.9,26.4-33.4,47.4-60,58.6s-56.7,12-83.9,2.2l-649.6-232.8c-14.5-5.2-27.8-13.3-39-23.8c-11.3-10.5-20.4-23.1-26.7-37.1
						s-9.8-29.2-10.1-44.6C2751.6,1912.5,2754.3,1897.2,2760,1882.9L2760,1882.9z"/>
				</g>
				<g class="st34">
					<path class="st35" d="M2774.5,1885.7c10.6-26.9,31.4-48.6,57.7-60.4c26.4-11.9,56.3-13,83.5-3.1l627.6,225.3
						c14.3,5.3,27.3,13.4,38.3,24c11,10.5,19.8,23.2,25.7,37.2c6,14,9,29.1,8.9,44.3s-3.3,30.3-9.4,44.2l0,0
						c-11.5,25.6-32.2,45.9-58,56.9c-25.8,11-54.8,11.8-81.2,2.2l-627.4-225.2c-14-5-26.9-12.8-37.9-22.9s-19.8-22.3-25.9-35.9
						c-6.1-13.6-9.5-28.2-9.8-43.2C2766.4,1914.4,2769,1899.5,2774.5,1885.7L2774.5,1885.7z"/>
				</g>
				<g>
					<path class="st2" d="M2788.9,1888.5c10.3-25.9,30.3-46.8,55.7-58.3c25.5-11.4,54.4-12.5,80.6-3l605.9,217.5
						c13.8,5,26.5,12.9,37.2,23c10.7,10.1,19.1,22.4,24.9,35.9c5.7,13.6,8.6,28.2,8.5,42.9s-3.3,29.2-9.3,42.7
						c-11,24.7-31,44.3-55.8,54.9c-24.9,10.6-52.8,11.4-78.2,2.2l-606-217.1c-13.6-4.9-26-12.4-36.6-22.2
						c-10.6-9.8-19.1-21.6-25-34.7s-9.1-27.3-9.4-41.7C2781,1916.2,2783.6,1901.9,2788.9,1888.5L2788.9,1888.5z"/>
				</g>
			</g>
			<path class="st36" d="M2774.9,1857c10.3-25.9,30.3-46.8,55.8-58.3c25.4-11.4,54.4-12.5,80.6-3l605.9,217.5
				c13.8,5,26.5,12.9,37.1,23c10.7,10.1,19.1,22.4,24.9,35.9c5.8,13.6,8.6,28.1,8.5,42.9c-0.1,14.7-3.3,29.3-9.3,42.7l0,0
				c-11.1,24.7-31,44.2-55.9,54.8s-52.8,11.4-78.2,2.3l-606.1-217.4c-13.5-4.9-25.9-12.4-36.5-22.2c-10.5-9.8-19-21.5-24.9-34.7
				c-5.9-13.1-9.1-27.3-9.4-41.6C2767,1884.6,2769.5,1870.3,2774.9,1857z"/>
			
				<linearGradient id="SVGID_00000015351201014721363420000002036542085030412419_" gradientUnits="userSpaceOnUse" x1="573603.125" y1="-17614.5254" x2="557556.125" y2="-16875.5254" gradientTransform="matrix(1 0 0 -1 -7080 10990.4678)">
				<stop  offset="0" style="stop-color:#D5E5F6"/>
				<stop  offset="0.49" style="stop-color:#C5DAF1"/>
				<stop  offset="0.97" style="stop-color:#99BBE3"/>
			</linearGradient>
			<path style="fill:url(#SVGID_00000015351201014721363420000002036542085030412419_);" d="M1796.1,2583.9l988.3,359.8
				c31.4,11.4,65.7,11.4,97.1,0l596.6-217.1c4.1-1.4,7.5-4.2,9.9-7.8c2.3-3.6,3.4-7.9,3.1-12.1c0-3.7,0-28.8,0-34.8
				c0-3.7-8.7,19-12.8,17.6l-988.4-359.6c-31.4-11.4-65.8-11.4-97.1,0L1796.2,2514c-17.1,11.2-12.8,22.4-12.8,49.2
				c-0.4,4.4,0.7,8.8,3,12.5C1788.6,2579.4,1792.1,2582.2,1796.1,2583.9L1796.1,2583.9z"/>
			
				<linearGradient id="SVGID_00000083090134481643252190000002986674951979366028_" gradientUnits="userSpaceOnUse" x1="30023.0664" y1="-296757.0938" x2="20868.0586" y2="-159182.0938" gradientTransform="matrix(1 0 0 -1 -7080 10990.4678)">
				<stop  offset="0" style="stop-color:#FFFFFF"/>
				<stop  offset="1" style="stop-color:#C5DAF1"/>
			</linearGradient>
			<path style="fill:url(#SVGID_00000083090134481643252190000002986674951979366028_);" d="M1796.2,2550.8l988.3,360.2
				c31.4,11.4,65.7,11.4,97.1,0l596.6-217.2c3.8-1.4,7.1-3.9,9.4-7.2s3.5-7.3,3.5-11.3s-1.2-8-3.5-11.3s-5.6-5.8-9.4-7.2
				l-988.3-360.3c-31.4-11.4-65.8-11.4-97.1,0l-596.6,217.2c-3.8,1.4-7.1,3.9-9.5,7.2c-2.3,3.3-3.6,7.3-3.6,11.4s1.3,8,3.6,11.4
				C1789,2546.9,1792.3,2549.4,1796.2,2550.8L1796.2,2550.8z"/>
			
				<linearGradient id="SVGID_00000091724675592545111340000012853158656079360428_" gradientUnits="userSpaceOnUse" x1="9494.4004" y1="-35246.7305" x2="9494.4004" y2="-71059.8281" gradientTransform="matrix(1 0 0 -1 -7080 10990.4678)">
				<stop  offset="0" style="stop-color:#F6FAFE"/>
				<stop  offset="0.18" style="stop-color:#F1F7FD"/>
				<stop  offset="0.38" style="stop-color:#E4EEF9"/>
				<stop  offset="0.58" style="stop-color:#CEE0F3"/>
				<stop  offset="0.65" style="stop-color:#C5DAF1"/>
				<stop  offset="1" style="stop-color:#C5DAF1"/>
			</linearGradient>
			<path style="fill:url(#SVGID_00000091724675592545111340000012853158656079360428_);" d="M2169.9,2635.5l286.8,104.4
				c9.1,3.4,19.1,3.4,28.2,0l173.1-63c1.3-0.3,2.4-1,3.3-2c0.8-1,1.3-2.3,1.3-3.6s-0.5-2.6-1.3-3.6s-2-1.7-3.3-2l-286.9-103.9
				c-9.1-3.4-19.1-3.4-28.3,0l-172.9,63c-1.1,0.4-2.1,1.1-2.7,2.1c-0.7,1-1,2.1-1,3.3s0.4,2.3,1,3.3
				C2167.8,2634.4,2168.7,2635.1,2169.9,2635.5L2169.9,2635.5z"/>
			
				<linearGradient id="SVGID_00000071523938812358608570000000535034523539148457_" gradientUnits="userSpaceOnUse" x1="9834.4502" y1="-101619.5312" x2="9834.4502" y2="-192037.5312" gradientTransform="matrix(1 0 0 -1 -7080 10990.4678)">
				<stop  offset="0" style="stop-color:#F6FAFE"/>
				<stop  offset="0.18" style="stop-color:#F1F7FD"/>
				<stop  offset="0.38" style="stop-color:#E4EEF9"/>
				<stop  offset="0.58" style="stop-color:#CEE0F3"/>
				<stop  offset="0.65" style="stop-color:#C5DAF1"/>
				<stop  offset="1" style="stop-color:#C5DAF1"/>
			</linearGradient>
			<path style="fill:url(#SVGID_00000071523938812358608570000000535034523539148457_);" d="M2130.3,2451.1l960.4,349.6
				c13,4.8,27.3,4.8,40.3,0l247.9-90.2c1.6-0.6,2.9-1.7,3.8-3c0.9-1.4,1.4-3,1.4-4.7s-0.5-3.3-1.4-4.7s-2.3-2.4-3.8-3l-960.4-349.7
				c-13-4.7-27.3-4.7-40.3,0l-247.9,90.3c-1.6,0.6-3,1.6-4,3s-1.5,3-1.5,4.7s0.5,3.4,1.5,4.7
				C2127.3,2449.6,2128.7,2450.6,2130.3,2451.1L2130.3,2451.1z"/>
			<path class="st14" d="M2906.9,1821.1l-62.8,133.5l10.1,4.8l62.8-133.5L2906.9,1821.1z"/>
			<path class="st41" d="M746.5,2008.3c-148.2-1.8-142.5,190,2.2,454.1c90.4,164.7,167.6,223.5,312.9,375.7
				c87,91.5,126.2,178,182.4,172.2c360.6-37.3,398.3-62.5,880.2-285.8c0,0,28.8-151.3-47.4-134.1c-317.4,69.7-211,36.7-440.3,92.2
				c-237.5,57.4-310.3,40.9-310.3,40.9s-104.9-84.7-232.5-294.8C966,2218.7,896.7,2009.9,746.5,2008.3z"/>
			<path class="st41" d="M2111.3,2724.7c102.9,0,277.4-35.4,303.1-83.8c25.7-48.4-15.5-33.5-49.8-20.9s-81.7,23.9-93.1,12.5
				c-11.4-11.4,54.6-128.7,105.7-147.3c51.1-18.6,83.3,37.1,110.1,27.4c26.8-9.7,19.9-58.1-38.6-79.3
				c-58.4-21.2-97.2-44.7-122.2-44.7c-44,1.7-87.6,9.6-129.4,23.6c-43.2,15.8-71.2,94-95.8,135.9c-16.2,25.6-41.5,44.2-70.9,51.8
				L2111.3,2724.7z"/>
			
				<linearGradient id="SVGID_00000132067269623001558620000000195203161779919003_" gradientUnits="userSpaceOnUse" x1="8317.1787" y1="7755.3096" x2="7750.9336" y2="8632.8799" gradientTransform="matrix(1 0 0 -1 -7080 10990.4678)">
				<stop  offset="0" style="stop-color:#FFFFFF"/>
				<stop  offset="1" style="stop-color:#F7FCFE"/>
			</linearGradient>
			<path style="fill:url(#SVGID_00000132067269623001558620000000195203161779919003_);" d="M1642.4,2127.4
				c-8.4-20.9-23.4-38.5-42.8-50c-203.2-123.6-513-270.2-697.3-257c-93.3,6.5-185.3,40.4-264.5,233.6
				c-42.2,103-108.3,346.4-108.1,689.7c0,254-35.5,651.4-35,1044.2c0,315.7,1172.3,260.8,1102.1-25.7
				c-68.6-280.2-55.9-627-18.4-836.7c25.1-140.1,74.5-325.4,42.8-455.4C1587.1,2329.9,1659.7,2172.1,1642.4,2127.4z"/>
			<path class="st43" d="M1388.7,4101.1c0,0-748.7-230.1-674.1-526.6c73-288.9-422.4-472.7-248.4-885
				c143.6-340.2,68.3-664.9,300.7-845.2c26.1-20.3,479.1,98.9,706.3,290.6c199.9,168.3,45.3,636-88.8,1188.5
				c-89.4,366.6,835.3,966.8,835.3,966.8C2220,4298,1553.2,4171.8,1388.7,4101.1z"/>
			
				<linearGradient id="SVGID_00000147900745200044452060000016179571182060888251_" gradientUnits="userSpaceOnUse" x1="334085.5" y1="15345.1777" x2="320983.5" y2="15041.1758" gradientTransform="matrix(1 0 0 -1 -7080 10990.4678)">
				<stop  offset="0" style="stop-color:#D5E5F6"/>
				<stop  offset="0.49" style="stop-color:#C5DAF1"/>
				<stop  offset="0.97" style="stop-color:#99BBE3"/>
			</linearGradient>
			<path style="fill:url(#SVGID_00000147900745200044452060000016179571182060888251_);" d="M2990.3,3193.1l317.5,115.8
				c24.1,8.7,50.4,8.7,74.5,0l458.2-166.7c3.1-1.1,5.8-3.1,7.6-5.9c1.8-2.8,2.6-6,2.4-9.3c0-2.8,0-22.3,0-26.7
				c0-2.8-6.7,14.6-9.8,13.5L3523.1,2998c-24.1-8.7-50.4-8.7-74.4,0l-458.2,141.2c-13.2,8.6-9.9,16.9-9.9,37.8
				c-0.3,3.4,0.5,6.8,2.3,9.7C2984.5,3189.5,2987.2,3191.8,2990.3,3193.1L2990.3,3193.1z"/>
			
				<linearGradient id="SVGID_00000165938119626756618870000008649786643238922652_" gradientUnits="userSpaceOnUse" x1="11864.0889" y1="-114224.6016" x2="12493.0918" y2="-170331.5938" gradientTransform="matrix(1 0 0 -1 -7080 10990.4678)">
				<stop  offset="0" style="stop-color:#FFFFFF"/>
				<stop  offset="1" style="stop-color:#C5DAF1"/>
			</linearGradient>
			<path style="fill:url(#SVGID_00000165938119626756618870000008649786643238922652_);" d="M2990.3,3168l317.5,115.7
				c24.1,8.8,50.5,8.8,74.5,0l458.2-166.6c2.9-1.1,5.4-3,7.2-5.6s2.7-5.6,2.7-8.7c0-3.1-0.9-6.1-2.7-8.7c-1.8-2.5-4.3-4.5-7.2-5.6
				l-317.6-115.7c-24-8.8-50.4-8.8-74.4,0l-458.2,166.6c-2.9,1.1-5.4,3-7.2,5.6c-1.8,2.5-2.7,5.6-2.7,8.7c0,3.1,1,6.1,2.7,8.7
				C2984.9,3165,2987.4,3166.9,2990.3,3168z"/>
			
				<linearGradient id="SVGID_00000050657128065284294380000011812165750349653145_" gradientUnits="userSpaceOnUse" x1="9552.752" y1="-32088.4688" x2="8649.7539" y2="-70538.8672" gradientTransform="matrix(1 0 0 -1 -7080 10990.4678)">
				<stop  offset="0" style="stop-color:#F6FAFE"/>
				<stop  offset="0.18" style="stop-color:#F1F7FD"/>
				<stop  offset="0.38" style="stop-color:#E4EEF9"/>
				<stop  offset="0.58" style="stop-color:#CEE0F3"/>
				<stop  offset="0.65" style="stop-color:#C5DAF1"/>
				<stop  offset="1" style="stop-color:#C5DAF1"/>
			</linearGradient>
			<path style="fill:url(#SVGID_00000050657128065284294380000011812165750349653145_);" d="M2998.4,3147.5l355.9,131l469.3-170.9
				l-355.9-130.9L2998.4,3147.5z"/>
			<path class="st2" d="M2915.9,2829.1l-20.5,26.5l424.1,327.5l20.5-26.5L2915.9,2829.1z"/>
			<path class="st47" d="M1576.8,2057.8c0,0,65.8,35.6,83.8,78.2c18,42.6,120.7,451.9,69.2,476.2c-51.5,24.2-152.4,447-300.1,158.7
				c-109.5-213.8-132.4-588.2-58-662.5C1446.2,2034.1,1546.8,2039.3,1576.8,2057.8z"/>
			<path class="st41" d="M3382.2,3128.6c-5.9-17.3-111-78.2-182.4-118.7c-19.4-11.2-106.2-12.5-146.6-18.5
				c-117.1-17.4-169.3,74.2-248.1,82.5c-325.9-11.2-219.2,17.9-472.3-23.7c-240.5-39.6-274.8-5-341.1-58.9
				c-55.9-45.7-48.3-158.6-163-410.5c-111.8-246.5-104.9-453.2-267-497c-159.9-43.1-203,131.1-152.1,458.2
				c21.6,138.6,76.9,258.1,130.7,332.2c36.3,50,58.2,160.9,93.1,243.1c54.5,128.5,136.4,205.6,199.6,207.9
				c373.2,13.1,428.8,9.3,990.1-89.4c12.4,3.2,112.4,28.6,169.1,35.8c60.5,7.7,152.4,15,206.5,49.5s141.7-65.7,125.3-102.6
				c-15.3-31.3-32.6-61.5-51.7-90.6C3356.6,3178.3,3387.9,3145.7,3382.2,3128.6z"/>
			<g>
				<path class="st15" d="M3481.4,3518.9l-122-326.1c0,0-90.1,70.6-141.6,64.8s-281.7-115.8-339.3-115.8s-341.4,9.9-419.9,9.9
					s-491.7,5.8-554.8-88.6c-63.1-94.4-168.8-394.6-183-497.6c-14.3-103-91.5-337.5-248.5-577.6l-587.5,357.6L1243,3824.4
					L3481.4,3518.9z"/>
			</g>
			<path class="st48" d="M1639,5885.2c18.2-44-2.7-94.5-46.7-112.7s-94.5,2.7-112.7,46.7s2.7,94.5,46.7,112.7
				C1570.3,5950.1,1620.8,5929.2,1639,5885.2z"/>
			<path class="st48" d="M532.9,5696.4c47.6,0,86.3-38.6,86.3-86.3s-38.6-86.3-86.3-86.3s-86.3,38.6-86.3,86.3
				S485.3,5696.4,532.9,5696.4z"/>
			<path class="st48" d="M983.3,5250c18.2-44-2.7-94.5-46.7-112.7s-94.5,2.7-112.7,46.7s2.7,94.5,46.7,112.7
				C914.6,5315,965.1,5294.1,983.3,5250z"/>
			<path class="st48" d="M2276,5278c33.7-33.7,33.7-88.3,0-122s-88.3-33.7-122,0s-33.7,88.3,0,122S2242.3,5311.7,2276,5278z"/>
			<path class="st48" d="M2585.8,5696.4c47.6,0,86.3-38.6,86.3-86.3s-38.6-86.3-86.3-86.3s-86.3,38.6-86.3,86.3
				S2538.1,5696.4,2585.8,5696.4z"/>
			
				<linearGradient id="SVGID_00000067198180717925815630000005960949677259324834_" gradientUnits="userSpaceOnUse" x1="8804.7256" y1="5243.5464" x2="11427.7256" y2="5780.2866" gradientTransform="matrix(1 0 0 -1 -7080 10990.4678)">
				<stop  offset="0" style="stop-color:#6A818E"/>
				<stop  offset="1" style="stop-color:#D0E1EC"/>
			</linearGradient>
			<path style="fill:url(#SVGID_00000067198180717925815630000005960949677259324834_);" d="M2667.7,5569.3
				c0-19.2-33.5-34.9-75.2-34.9s-75.2,15.6-75.2,35c0,19.3,33.5,34.9,75.2,34.9S2667.7,5588.7,2667.7,5569.3z"/>
			
				<linearGradient id="SVGID_00000042738953750994521270000016081286180820305084_" gradientUnits="userSpaceOnUse" x1="7559.1294" y1="4766.7212" x2="38376.7266" y2="18357.6191" gradientTransform="matrix(1 0 0 -1 -7080 10990.4678)">
				<stop  offset="0" style="stop-color:#6A818E"/>
				<stop  offset="1" style="stop-color:#D0E1EC"/>
			</linearGradient>
			<path style="fill:url(#SVGID_00000042738953750994521270000016081286180820305084_);" d="M1634.6,5747.4c0-19.3-33.5-35-75.2-35
				s-75.3,15.6-75.3,35c0,19.3,33.5,34.9,75.3,34.9S1634.6,5766.6,1634.6,5747.4z"/>
			<path class="st43" d="M2654.9,5459.7h-4.9c-8.4-1.7-12.5,2-22.3,1l-726.4-76.8l399.2-169c17.1-7.2,25-15.6,24.9-24v-139.2
				l-63.6,29.9v6.3c-57.8-11.2-134.1-7-174.1,10.1l-480.5,203.4c-31.5,10.2-65.5,10.2-97,0l-480.5-207.9
				c-40.5-17.4-116.3-22.4-174.1-11.2v-5.6l-63.7-32.5v142.5c0.7,8,8.8,16,25,23l399.1,172.7l-726.4,70c-9.7,0.9-11.2-3.6-19.1-2
				l-8.2-0.7l-63.6-29.8v139.8c0.4,4.8,2.8,9.3,6.5,12.4l0,0c22.4,21.6,96.6,33.5,165.6,26.9l777.2-74.9
				c38.7-3.7,78.2,5.5,78.2,18.1v254c0,22.4,58.9,41.1,131.5,41.5c72.6,0.3,131.4-17.7,131.4-40.2v-255c0-12.6,39.8-21.5,78.2-17.3
				l777.1,82c69.1,7.4,143.3-4,165.7-25.5c1.8-1.5,3.3-3.3,4.4-5.4c1.1-2.1,1.8-4.3,2-6.7v-139.8L2654.9,5459.7z"/>
			<g class="st51">
				
					<linearGradient id="SVGID_00000024687598764547830590000010450774667326969217_" gradientUnits="userSpaceOnUse" x1="10756.6035" y1="-384385.4062" x2="11490.6035" y2="-519564.375" gradientTransform="matrix(1 0 0 -1 -7080 10990.4678)">
					<stop  offset="0" style="stop-color:#FFFFFF"/>
					<stop  offset="1" style="stop-color:#F7FCFE"/>
				</linearGradient>
				
					<path style="opacity:0.92;fill:url(#SVGID_00000024687598764547830590000010450774667326969217_);enable-background:new    ;" d="
					M2712.1,5441.4c-22.4,21.3-96.7,32.7-165.7,25.5l-777.1-82.1c-38.7-4-78.2,4.7-78.2,17.4v254c0,22.3-58.9,40.6-131.4,40.2
					c-72.6,0-131.5-18.9-131.5-41.5v-254c0-12.6-39.7-21.8-78.2-18.1l-778,74.9c-69.1,6.7-143.2-5.4-165.6-26.9
					c-22.4-21.7,15.3-44.7,84.4-51.2l777.2-74.9c38.7-3.7,53.9-18.2,30-28.5l-480.5-207.8c-42.7-18.4-29.7-44,29.1-57
					c58.8-13,140.9-8.6,183.6,9.9l480.5,207.7c31.5,10.2,65.5,10.2,97,0l480.5-203.3c42.6-18.1,124.8-21.8,183.6-8.3
					c58.7,13.5,71.8,39.2,29.1,57.2l-480.5,203.3c-23.9,10.2-8.7,24.8,30,28.8l778,82.6C2696.6,5396.8,2734.4,5420,2712.1,5441.4z"
					/>
			</g>
			
				<linearGradient id="SVGID_00000008830540889843259660000006322346327176218038_" gradientUnits="userSpaceOnUse" x1="40575.5" y1="6244.7764" x2="46437.8008" y2="6244.7764" gradientTransform="matrix(1 0 0 -1 -7080 10990.4678)">
				<stop  offset="0" style="stop-color:#F7FCFE"/>
				<stop  offset="0.85" style="stop-color:#C5DAF1"/>
			</linearGradient>
			<path style="fill:url(#SVGID_00000008830540889843259660000006322346327176218038_);" d="M1645.3,5318.7
				c0,43.4-173.1,40.8-172.3,0c1.4-84.1,0-1177.6,0-1177.6h172.3C1645.3,4141,1644.6,5234.5,1645.3,5318.7z"/>
			
				<linearGradient id="SVGID_00000036230641321641603240000017700573509660038823_" gradientUnits="userSpaceOnUse" x1="176739.125" y1="-624860.4375" x2="332537.125" y2="-1210271.5" gradientTransform="matrix(1 0 0 -1 -7080 10990.4678)">
				<stop  offset="0" style="stop-color:#F7FCFE"/>
				<stop  offset="0.85" style="stop-color:#C5DAF1"/>
			</linearGradient>
			<path style="fill:url(#SVGID_00000036230641321641603240000017700573509660038823_);" d="M2.5,2531.1
				c-4.1-19.6-3.1-39.8,2.8-58.9c6-19.1,16.7-36.3,31.2-50s32.3-23.5,51.7-28.4c19.4-4.9,39.7-4.7,59,0.5l640.1,171.6
				c47.7,12.8,91.4,37.1,127.5,70.8s63.4,75.7,79.4,122.3c145.9,424.6,572.9,1600,843,1640.4c402.3,60.1,917.6-147.3,851.3-119.1
				c-223.7,94.7-457.3,164.2-696.4,207.2c-140.7,29-283.8,44.3-427.4,45.7c-484.3,0-878.5-228-1056.9-491.7
				C242.6,3650,2.5,2531.1,2.5,2531.1z"/>
			<path class="st47" d="M1018.8,1834.2c-64.6,23.5-107.5,24.7-107.5,85.4c0,60.7,118,116,211.4,116s252.4-13.3,260.7-61
				s-48.8-81.9-48.8-81.9L1018.8,1834.2z"/>
			<path class="st55" d="M134.4,2361.4c65.4-24,103.8-19.4,174-0.7L754,2480.3c186.1,49.8,325.3,101.6,378.4,228.2
				c152.1,362.2,279.4,1226.8,497.3,1490.1c117.8,142.5,447.7,135.2,680.5,72.6s316.6-97.1,413.5-152.2
				c12.2-7.3,22.5-17.5,29.8-29.7c7.4-12.2,11.6-26.1,12.3-40.3l1.3,154.3c-1.6,19.5-16.4,36.8-34.6,53.6c0,0-70.6,60-422.6,154.7
				c-232.7,62.6-631.1,93.1-809.6-95.6c-214.6-226.6-383.9-1237-509.1-1564.5c-58.9-154.2-194.1-182.8-380-232.7l-445.5-119.6
				c-60.9-16.3-83-7.3-118.8,14.9C73.7,2393.1,103.1,2375.3,134.4,2361.4L134.4,2361.4z"/>
			<path class="st41" d="M966.2,1910.9c-58.6,71.4,387.8,124.8,380.7,32.9c-7-92,72.3-244.9,89.4-309.1
				c11.2-43-279.4-328.7-353.7,13.6C1066.3,1725.1,1026.2,1838.2,966.2,1910.9z"/>
			<g>
				<path class="st15" d="M1015.5,1657.6c-18.5,60.5-400.2,360,239.8,349.8c0,0,69.1-211.7,179.8-195.2
					C1505.9,1822.6,1015.5,1657.6,1015.5,1657.6z"/>
			</g>
			<path class="st17" d="M1674.9,997.4c-39.3-21.2-83.1-32.6-127.7-33.2c-44.6-0.6-88.7,9.5-128.6,29.6
				c-39.9,19.6-89.4,9.8-125.6-8.3c-85.7-43.5-324.1,45.4-312.9,229.4c45.6,81.6,42.4,75.8,139.7,133.1
				c58,34.2,361.1,4.2,385.9,49.9l57-50.4C1696.4,1394.5,1920.6,1129.7,1674.9,997.4z"/>
			<g>
				<path class="st15" d="M1174.6,1462c58.7-79.5,203.3-122.9,201.1-180.8c-2.1-57.9,105.4-80.1,151.2-62.2
					c247.4,96.2,183.6,1.5,266.9,140.6c60,100.6-89.4,48.8-89.4,48.8l-183.3,47.6l-324.1,12.3L1174.6,1462z"/>
			</g>
			<path class="st56" d="M1417.6,1227c-165.9,67-391.1,72.2-437.7-12.1c19,204.7,53.5,332.2,86.2,486.8l200.3,44.7l239.1-348.3
				C1480.8,1347.7,1481.4,1201.2,1417.6,1227z"/>
			<g>
				<path class="st15" d="M1431.4,1221.6c-8.2,3.2-15.5,8.4-21.3,15s-10,14.5-12.2,23.1c-29.9,112.5-181.3,357.6-265,429.6
					c-91.2,78.2,187.6,110.7,187.6,110.7l221.9-523.1l-109.6-55.9L1431.4,1221.6z"/>
			</g>
			<path class="st41" d="M1355.6,1476.8c-18.8,38.2-38.2,103.1-8.3,147.7c-55.9,68.9-144.6,106.2-138.5,109.1
				c89.4,42.8,188.4,83.5,222.5,86.4c72.8,6.5,125.1-214.6,132.5-255.8c12.1-65.7-17-76.3-20.7-141.9c-2-37.1,32.6-104.2,32.6-104.2
				c-51.9-28.6-61.5-22.3-129.1,123.7C1430.5,1477.1,1412.7,1360.2,1355.6,1476.8z"/>
			<g>
				<path class="st15" d="M1297.3,1924.1c119.9-50.6,304.3-339.6,193.2-466.1c-25-28.4-16.4-45.9,0-137
					c16.2-88.7,77.2-184.4,104.2-211.3l-187.5-53.8C1395.1,1055,726.7,2164.6,1297.3,1924.1z"/>
			</g>
			<g>
				<path class="st15" d="M1416.7,1519.6c8.6-65.7-17-72.1-32-49.9c-15,22.1-42.6,127.9,1.4,111.1
					C1405.6,1573.3,1414.3,1536.5,1416.7,1519.6z"/>
			</g>
			<path class="st17" d="M4203.7,5215.1h-2.5c-2.2-0.3-4.3-1.1-6.2-2.2s-3.6-2.6-4.9-4.4c-1.3-1.8-2.3-3.8-2.8-5.9s-0.7-4.4-0.4-6.5
				c0-3.5,11.2-86.9-55.9-113.4c-4-1.7-7.2-4.9-8.9-9c-1.7-4-1.7-8.6-0.1-12.6c1.6-4.1,4.7-7.4,8.7-9.1c4-1.8,8.5-2,12.6-0.5
				c73.3,29,82.4,110.3,76.9,149.3c-0.6,4-2.6,7.6-5.6,10.3C4211.6,5213.7,4207.7,5215.1,4203.7,5215.1L4203.7,5215.1z"/>
			<path class="st17" d="M4284.4,5209.6h-2.3c-2.2-0.3-4.3-1-6.2-2.1s-3.5-2.6-4.9-4.3c-1.3-1.8-2.3-3.8-2.8-5.9s-0.7-4.3-0.4-6.5
				c0-3.5,11.2-86.9-55.9-113.4c-4-1.7-7.2-4.9-8.9-9c-1.7-4-1.7-8.6-0.1-12.6c1.6-4.1,4.7-7.3,8.7-9.1c4-1.8,8.5-2,12.6-0.5
				c73.3,29,82.4,110.3,76.9,149.3c-0.7,4-2.7,7.6-5.8,10.2C4292.3,5208.2,4288.4,5209.6,4284.4,5209.6L4284.4,5209.6z"/>
			<path class="st17" d="M4379.4,5204.6h-2.3c-4.4-0.7-8.4-3-11-6.6c-2.7-3.5-3.9-8-3.3-12.4c0-3.5,11.2-86.9-55.9-113.4
				c-2.1-0.8-4-1.9-5.7-3.5c-1.6-1.5-3-3.4-3.9-5.4c-0.9-2-1.4-4.2-1.5-6.5c-0.1-2.2,0.3-4.5,1.2-6.5c0.8-2.1,2-4,3.6-5.6
				c1.6-1.6,3.4-2.9,5.5-3.7c2.1-0.9,4.3-1.3,6.5-1.3c2.2,0,4.5,0.5,6.5,1.3c73.3,29.1,82.2,110.4,76.8,149.3
				c-0.6,4-2.6,7.6-5.6,10.2S4383.4,5204.6,4379.4,5204.6L4379.4,5204.6z"/>
			<path class="st17" d="M2830.6,4954.5c-3.1,0-6.1-0.9-8.8-2.5c-2.6-1.6-4.8-3.9-6.2-6.7c0,0-16-28.9-69.8-59.2
				c-3.6-2.3-6.2-5.9-7.2-10.1s-0.4-8.6,1.6-12.3c2.1-3.7,5.6-6.5,9.7-7.8c4.1-1.3,8.5-0.9,12.4,1c63.7,35.8,82.5,71.6,83.2,73.1
				c2,3.9,2.4,8.5,1,12.7s-4.3,7.7-8.2,9.7C2835.9,4953.6,2833.3,4954.4,2830.6,4954.5z"/>
			<path class="st17" d="M2903.9,4961.7c-3.1,0-6.1-0.9-8.8-2.5c-2.6-1.6-4.8-3.9-6.2-6.7c0,0-16-28.9-69.8-59.1
				c-3.9-2.2-6.7-5.8-7.9-10.1c-1.2-4.3-0.7-8.9,1.5-12.8s5.8-6.7,10.1-7.9c4.3-1.2,8.9-0.7,12.8,1.5c63.7,35.8,82.5,71.6,83.2,73.2
				c1.3,2.6,2,5.4,1.9,8.3s-0.9,5.7-2.4,8.1c-1.5,2.5-3.6,4.5-6.1,5.9S2906.8,4961.8,2903.9,4961.7L2903.9,4961.7z"/>
			<path class="st17" d="M2975.1,4973.2c-3.1,0-6.1-0.9-8.7-2.5c-2.6-1.6-4.7-3.9-6.1-6.7c0,0-16.1-28.9-69.8-59.2
				c-2.1-1-4-2.4-5.5-4.1s-2.7-3.8-3.4-6s-1-4.5-0.8-6.8s0.9-4.5,2.1-6.5c1.1-2,2.7-3.8,4.5-5.2c1.8-1.4,3.9-2.4,6.2-2.9
				s4.6-0.6,6.9-0.2c2.3,0.4,4.4,1.3,6.4,2.6c63.7,35.8,82.6,71.6,83.4,73.1c2,3.9,2.3,8.5,0.9,12.7c-1.4,4.2-4.3,7.7-8.2,9.7
				C2980.5,4972.4,2977.8,4973.1,2975.1,4973.2L2975.1,4973.2z"/>
			
				<linearGradient id="SVGID_00000021819058704263531340000003164823524363599285_" gradientUnits="userSpaceOnUse" x1="55639.0586" y1="25037.834" x2="52694.8555" y2="23930.1309" gradientTransform="matrix(1 0 0 -1 -7080 10990.4678)">
				<stop  offset="0" style="stop-color:#FFFFFF"/>
				<stop  offset="1" style="stop-color:#C5DAF1"/>
			</linearGradient>
			<path style="fill:url(#SVGID_00000021819058704263531340000003164823524363599285_);" d="M3672.9,2895.8c0,0-103.1-4.4-117.6-4.4
				c-14.4,0-81.2-45.4,18.4-67.1C3673.4,2802.7,3672.9,2895.8,3672.9,2895.8z"/>
			
				<linearGradient id="SVGID_00000128454496011985342140000017874692552585812921_" gradientUnits="userSpaceOnUse" x1="8801.4443" y1="17359.459" x2="9614.4443" y2="13670.959" gradientTransform="matrix(1 0 0 -1 -7080 10990.4678)">
				<stop  offset="0" style="stop-color:#F6FAFE"/>
				<stop  offset="0.18" style="stop-color:#F1F7FD"/>
				<stop  offset="0.38" style="stop-color:#E4EEF9"/>
				<stop  offset="0.58" style="stop-color:#CEE0F3"/>
				<stop  offset="0.65" style="stop-color:#C5DAF1"/>
				<stop  offset="1" style="stop-color:#C5DAF1"/>
			</linearGradient>
			<path style="fill:url(#SVGID_00000128454496011985342140000017874692552585812921_);" d="M3573,2873.8l26.8,9.8
				c45.4,16.5,95.3,16.2,140.5-0.9l177-67.1c17.3-6.5,21.5-41.7-9.5-59.8c-60.8-35.4-136.8-52.1-180.9-38.5
				c-83,25.4-117.3,55.9-142.9,89.4C3570.4,2824.6,3555.6,2867.4,3573,2873.8z"/>
			<path class="st14" d="M3448.7,2124.4c-9.6,0-19-2.8-27-8.2c-8-5.3-14.2-12.9-17.9-21.8c-3.7-8.9-4.6-18.7-2.8-28.1
				c1.9-9.4,6.5-18.1,13.3-24.9c6.8-6.8,15.5-11.4,24.9-13.3c9.4-1.9,19.2-0.9,28.1,2.8c8.9,3.7,16.5,9.9,21.8,17.9s8.2,17.4,8.2,27
				c0,12.9-5.2,25.2-14.3,34.3S3461.6,2124.4,3448.7,2124.4z M3448.7,2038.3c-7.4,0-14.6,2.2-20.8,6.3c-6.2,4.1-10.9,10-13.8,16.8
				c-2.8,6.8-3.6,14.4-2.1,21.6c1.4,7.3,5,13.9,10.2,19.2c5.2,5.2,11.9,8.8,19.2,10.2s14.8,0.7,21.6-2.1c6.8-2.8,12.7-7.6,16.8-13.8
				c4.1-6.2,6.3-13.4,6.3-20.8c0-9.9-4-19.4-11-26.4C3468.1,2042.3,3458.6,2038.4,3448.7,2038.3z"/>
			<path class="st14" d="M3496.9,2173.4c-1,0-2.1-0.3-2.9-0.9c-0.9-0.6-1.6-1.3-2.1-2.2l-27.9-55.9c-0.3-0.7-0.5-1.4-0.6-2.1
				c-0.1-0.7,0-1.5,0.3-2.2c0.2-0.7,0.6-1.3,1.1-1.9s1.1-1,1.7-1.3c1.3-0.6,2.8-0.7,4.2-0.3c1.4,0.5,2.6,1.4,3.2,2.7l27.9,55.9
				c0.3,0.7,0.5,1.4,0.6,2.1c0,0.7-0.1,1.5-0.3,2.2s-0.6,1.3-1.1,1.9c-0.5,0.6-1.1,1-1.7,1.3
				C3498.6,2173.2,3497.7,2173.4,3496.9,2173.4L3496.9,2173.4z"/>
			
				<linearGradient id="SVGID_00000090977293354963860600000005267456749700333479_" gradientUnits="userSpaceOnUse" x1="94348.6094" y1="57198.4492" x2="70170.6094" y2="43421.4531" gradientTransform="matrix(1 0 0 -1 -7080 10990.4678)">
				<stop  offset="4.000000e-02" style="stop-color:#C5DAF1"/>
				<stop  offset="1" style="stop-color:#99BBE3"/>
			</linearGradient>
			<path style="fill:url(#SVGID_00000090977293354963860600000005267456749700333479_);" d="M3483.5,1593.6
				c342-345.4-384.5-390.3-163.5-43.9c-262.9-40.1-83.5,358.8,82.4,134.1C3620.1,1969.1,3695.7,1524.3,3483.5,1593.6z"/>
		</g>
	</g>
</g>
</svg>
