<?xml version="1.0" encoding="utf-8"?>
<!-- Generator: Adobe Illustrator 25.4.1, SVG Export Plug-In . SVG Version: 6.00 Build 0)  -->
<svg version="1.1" id="Layer_1" xmlns="http://www.w3.org/2000/svg" xmlns:xlink="http://www.w3.org/1999/xlink" x="0px" y="0px"
	 viewBox="0 0 5460 6035" style="enable-background:new 0 0 5460 6035;" xml:space="preserve">
<style type="text/css">
	.st0{clip-path:url(#SVGID_00000052795287015023528560000015290113407493855378_);}
	.st1{opacity:0.49;fill:url(#SVGID_00000068675147449164853160000002521691620047095222_);}
	.st2{fill:#99BBE3;}
	.st3{fill:url(#SVGID_00000121258427180650704690000015317540692016651649_);}
	.st4{fill:url(#SVGID_00000047037420590042338290000007439884341395568553_);}
	.st5{fill:url(#SVGID_00000067922325123951713890000005270853432585326213_);}
	.st6{fill:url(#SVGID_00000163045876652274979910000007401283164959688626_);}
	.st7{fill:url(#SVGID_00000064325265212145578580000000598954859847679418_);}
	.st8{fill:url(#SVGID_00000047769836373435473910000001224037256049686666_);}
	.st9{fill:url(#SVGID_00000177478635798299777470000006452401560654773684_);}
	.st10{fill:url(#SVGID_00000145772316827949897600000015534130915922088590_);}
	.st11{fill:url(#SVGID_00000018930187964816709580000001582468114234471050_);}
	.st12{fill:url(#SVGID_00000088124474537803613040000010017653293939566734_);}
	.st13{fill:#232A65;}
	.st14{fill:#FFFFFF;}
	.st15{fill:#96BDE5;}
	.st16{fill:#7AA8D9;}
	.st17{fill:#3B52A3;}
	.st18{opacity:0.42;fill:#C5DAF1;enable-background:new    ;}
	.st19{fill:url(#SVGID_00000091001603105272185610000014815555809202408604_);}
	.st20{fill:#C5DAF1;}
	.st21{opacity:0.92;fill:url(#SVGID_00000098932511823467333330000010054968899045407122_);enable-background:new    ;}
	.st22{opacity:0.7;fill:url(#SVGID_00000077296820340210512960000000903927475105396363_);enable-background:new    ;}
	.st23{opacity:0.7;fill:url(#SVGID_00000039843284998086454940000001862913791712449179_);enable-background:new    ;}
	.st24{fill:url(#SVGID_00000005255832637810987120000004575496490747575734_);}
	.st25{fill:url(#SVGID_00000032636694343605350140000000399374735249128842_);}
	.st26{opacity:0.17;}
	.st27{fill:#EBEFF9;}
	.st28{opacity:0.33;}
	.st29{fill:#DAE4F4;}
	.st30{opacity:0.5;}
	.st31{fill:#C9D9F0;}
	.st32{opacity:0.67;}
	.st33{fill:#B9CEEB;}
	.st34{opacity:0.83;}
	.st35{fill:#A9C4E7;}
	.st36{fill:#507DBF;}
	.st37{fill:url(#SVGID_00000088855519236043011940000002398248389562312868_);}
	.st38{fill:url(#SVGID_00000007416440061728639760000002256476341668208804_);}
	.st39{fill:url(#SVGID_00000066510032537687871200000006372358939556486023_);}
	.st40{fill:url(#SVGID_00000168816880914060734710000005286926751955626671_);}
	.st41{fill:#3371A4;}
	.st42{fill:url(#SVGID_00000016797799090896387600000001578898410042169756_);}
	.st43{fill:#D5E5F6;}
	.st44{fill:url(#SVGID_00000157990598955220069610000007184653492437704576_);}
	.st45{fill:url(#SVGID_00000045614020426546997390000017549892784969605029_);}
	.st46{fill:url(#SVGID_00000054228997903470517790000006700642172027334045_);}
	.st47{fill:#2C317B;}
	.st48{fill:#9AB6DF;}
	.st49{fill:url(#SVGID_00000082333505065232778120000010379767412046302611_);}
	.st50{fill:url(#SVGID_00000078003026096489243740000008399921593254803075_);}
	.st51{opacity:0.92;}
	.st52{opacity:0.92;fill:url(#SVGID_00000090264896622152225720000006073875165421124784_);enable-background:new    ;}
	.st53{fill:url(#SVGID_00000155848602196112676920000005533415021624780953_);}
	.st54{fill:url(#SVGID_00000088820974268456780820000010532572740277416597_);}
	.st55{fill:#F7FCFE;}
	.st56{fill:#253C97;}
	.st57{fill:url(#SVGID_00000003090046182999092670000015530270481040679338_);}
	.st58{fill:url(#SVGID_00000168808254383985531180000007283271484044105375_);}
	.st59{fill:url(#SVGID_00000145029472089445941420000004832384971358286005_);}
</style>
<g>
	<defs>
		<rect id="SVGID_1_" x="0" width="5460" height="6035"/>
	</defs>
	<clipPath id="SVGID_00000132076875643774890740000004701111669979197360_">
		<use xlink:href="#SVGID_1_"  style="overflow:visible;"/>
	</clipPath>
	<g style="clip-path:url(#SVGID_00000132076875643774890740000004701111669979197360_);">
		
			<linearGradient id="SVGID_00000159446967536936134530000005593707797230875273_" gradientUnits="userSpaceOnUse" x1="3783.6487" y1="-3041.9453" x2="7867.0557" y2="-3041.9453" gradientTransform="matrix(-1 0 0 1 9000 4954.4678)">
			<stop  offset="0" style="stop-color:#FFFFFF"/>
			<stop  offset="1" style="stop-color:#C5DAF1"/>
		</linearGradient>
		<path style="opacity:0.49;fill:url(#SVGID_00000159446967536936134530000005593707797230875273_);" d="M4976,1030.5
			c593.2,1642.7,117.4,2946.3-1752,2780.7C1354.5,3645.5,357,1637.9,1869.9,671C3382.8-296,4512.2-254.2,4976,1030.5z"/>
		<path class="st2" d="M2315.1,2391.6c1.5,0,3-0.3,4.4-0.9c2.7-1.2,4.9-3.3,6-6.1c1.1-2.7,1.1-5.8-0.1-8.5
			c-68.8-162.3-240.7-349.8-510.7-557.3c-123.5-94.7-252.1-182.7-385.1-263.5c-1.3-0.9-2.7-1.6-4.2-1.9s-3.1-0.3-4.6,0s-3,1-4.2,1.9
			c-1.3,0.9-2.3,2.1-3.1,3.4c-0.8,1.3-1.3,2.8-1.4,4.4c-0.2,1.6,0,3.1,0.5,4.6s1.3,2.9,2.3,4c1.1,1.2,2.3,2.1,3.7,2.8
			c7.3,4.2,725.6,431.4,886.6,810.3c0.8,2,2.2,3.7,4,4.9C2310.9,2390.9,2313,2391.5,2315.1,2391.6L2315.1,2391.6z"/>
		
			<linearGradient id="SVGID_00000047742577863424456650000004417315516647900560_" gradientUnits="userSpaceOnUse" x1="7998.7764" y1="-3647.45" x2="7394.0957" y2="-3265.0398" gradientTransform="matrix(-1 0 0 1 9000 4954.4678)">
			<stop  offset="4.000000e-02" style="stop-color:#C5DAF1"/>
			<stop  offset="1" style="stop-color:#99BBE3"/>
		</linearGradient>
		<path style="fill:url(#SVGID_00000047742577863424456650000004417315516647900560_);" d="M1361.2,1587.1
			c-451.4,98.5-122.3-474.9,44.7-127.6c93.1-191.2,338.2,54.6,51.5,115C1556.7,1961.1,1144.5,1750.9,1361.2,1587.1z"/>
		<path class="st2" d="M2310.3,3110.5c2.3,0,4.6-0.7,6.5-2.1c1.9-1.3,3.3-3.2,4.1-5.4c147.5-422.9,5.4-725.5-120-992.5
			c-87.7-187-163.6-348.4-131.6-522.3c0.3-1.5,0.2-3-0.1-4.4c-0.3-1.5-0.9-2.8-1.8-4.1c-0.8-1.2-1.9-2.3-3.2-3.1
			c-1.3-0.8-2.7-1.4-4.1-1.6c-1.5-0.3-3-0.2-4.4,0.1c-1.5,0.3-2.8,0.9-4.1,1.8c-1.2,0.8-2.3,1.9-3.1,3.2c-0.8,1.2-1.4,2.6-1.6,4.1
			c-33.5,180.9,47.6,353.4,133.3,536.4c123.6,263.2,263.6,561.3,119.1,975.6c-0.5,1.4-0.7,2.9-0.6,4.3c0.1,1.5,0.4,2.9,1.1,4.2
			c0.6,1.3,1.5,2.5,2.6,3.5s2.4,1.8,3.8,2.2C2307.6,3110.7,2308.9,3110.7,2310.3,3110.5L2310.3,3110.5z"/>
		
			<linearGradient id="SVGID_00000121259949902214177050000015982884369466195897_" gradientUnits="userSpaceOnUse" x1="-1125330.875" y1="4955.7051" x2="-1041690.875" y2="4245.7046" gradientTransform="matrix(-1 0 0 1 9000 4954.4678)">
			<stop  offset="4.000000e-02" style="stop-color:#C5DAF1"/>
			<stop  offset="1" style="stop-color:#99BBE3"/>
		</linearGradient>
		<path style="fill:url(#SVGID_00000121259949902214177050000015982884369466195897_);" d="M3249.8,84.6
			c126.3,50.8,261.9,241,127.8,382.7C3243.5,609,3024,504.1,3004.4,346.8C2980.6,157.5,3214.4,70.4,3249.8,84.6z"/>
		
			<linearGradient id="SVGID_00000140008491109343824150000004191998091746640813_" gradientUnits="userSpaceOnUse" x1="-82866.2969" y1="64453.9336" x2="-272066.2812" y2="208903.9375" gradientTransform="matrix(-1 0 0 1 9000 4954.4678)">
			<stop  offset="4.000000e-02" style="stop-color:#C5DAF1"/>
			<stop  offset="1" style="stop-color:#99BBE3"/>
		</linearGradient>
		<path style="fill:url(#SVGID_00000140008491109343824150000004191998091746640813_);" d="M3387.1,1538.7
			c67.1,185.4-109.5,411.4-272.8,405.6s-232.4-180.6-194.5-335.3c38-154.7,86.8-205.9,217.1-210.4
			C3267.4,1394.1,3371.9,1497,3387.1,1538.7z"/>
		
			<linearGradient id="SVGID_00000088816156454211262970000015584394948121591721_" gradientUnits="userSpaceOnUse" x1="114691" y1="-4338.7412" x2="135792" y2="-4338.7412" gradientTransform="matrix(-1 0 0 1 9000 4954.4678)">
			<stop  offset="4.000000e-02" style="stop-color:#C5DAF1"/>
			<stop  offset="1" style="stop-color:#99BBE3"/>
		</linearGradient>
		<path style="fill:url(#SVGID_00000088816156454211262970000015584394948121591721_);" d="M3686.9,514.5
			c28.1,82.4-144,204.5-282.2,237.7c-138.1,33.2-196.5-32.6-200.4-80.8s157-157.1,309.3-191.5C3666,445.4,3686.9,514.5,3686.9,514.5
			z"/>
		<path class="st2" d="M2533.4,2357.9c2.5,0.1,5-0.7,7-2.2s3.5-3.6,4.2-6.1c57.8-203.1,129.6-402,214.9-595.2
			c138.8-312.3,389.8-1082.8,414.8-1309.8c0.2-1.5,0-3-0.4-4.4s-1.1-2.7-2-3.9c-0.9-1.2-2.1-2.1-3.4-2.8c-1.3-0.7-2.7-1.2-4.2-1.3
			c-1.5-0.2-2.9,0-4.4,0.4c-1.4,0.4-2.7,1.1-3.9,2s-2.1,2.1-2.8,3.4s-1.2,2.7-1.3,4.2c-24.2,219.3-276.9,996.8-413.5,1303.2
			c-85.8,194.2-157.9,394.2-216,598.4c-0.4,1.4-0.5,2.9-0.3,4.4c0.2,1.4,0.6,2.9,1.4,4.1c0.7,1.3,1.7,2.4,2.9,3.3
			c1.2,0.9,2.5,1.6,3.9,2L2533.4,2357.9z"/>
		
			<linearGradient id="SVGID_00000145046280772848647410000016574596428909103761_" gradientUnits="userSpaceOnUse" x1="99705.0234" y1="96329.0312" x2="114933.0234" y2="112571.0312" gradientTransform="matrix(-1 0 0 1 9000 4954.4678)">
			<stop  offset="4.000000e-02" style="stop-color:#C5DAF1"/>
			<stop  offset="1" style="stop-color:#99BBE3"/>
		</linearGradient>
		<path style="fill:url(#SVGID_00000145046280772848647410000016574596428909103761_);" d="M3625.4,761.3
			c107.8,168.7-130.8,485.6-367.8,243.1C3020.6,761.8,3513.6,586.6,3625.4,761.3z"/>
		<path class="st2" d="M3079.9,807.1c2.1,0,4.1-0.6,5.8-1.7l254-155.2l-11.7-19.1l-254,155.3c-1.3,0.8-2.4,1.8-3.2,3
			c-0.9,1.2-1.5,2.5-1.8,4c-0.3,1.4-0.4,2.9-0.2,4.4s0.8,2.8,1.5,4.1c1,1.6,2.4,3,4.1,3.9C3076.1,806.6,3078,807.1,3079.9,807.1z"/>
		<path class="st2" d="M3010.8,1041.5c2,0,4-0.6,5.7-1.7c56.5-34.1,287.4-129.2,289.8-130.1c1.4-0.6,2.6-1.4,3.6-2.4
			s1.9-2.3,2.4-3.6c0.6-1.4,0.9-2.8,0.9-4.3s-0.3-2.9-0.8-4.3c-0.6-1.4-1.4-2.6-2.4-3.6s-2.3-1.9-3.6-2.4c-1.4-0.6-2.8-0.9-4.3-0.9
			s-2.9,0.3-4.3,0.8c-9.5,3.9-234.7,96.7-292.8,131.6c-2.1,1.2-3.8,3.2-4.7,5.4c-0.9,2.3-1.1,4.8-0.4,7.2c0.7,2.4,2.1,4.5,4.1,5.9
			C3005.9,1040.8,3008.3,1041.6,3010.8,1041.5L3010.8,1041.5z"/>
		
			<linearGradient id="SVGID_00000098188406127117860290000005552720931715265202_" gradientUnits="userSpaceOnUse" x1="-132691.2656" y1="-725213.625" x2="-128437.2734" y2="-703048.625" gradientTransform="matrix(-1 0 0 1 9000 4954.4678)">
			<stop  offset="0" style="stop-color:#FFFFFF"/>
			<stop  offset="1" style="stop-color:#C5DAF1"/>
		</linearGradient>
		<path style="fill:url(#SVGID_00000098188406127117860290000005552720931715265202_);" d="M3387.1,1538.7
			c-67,86.2-256.3,211-462.6,52.4c0,0,36.4-153.8,63.2-177C3014.6,1390.8,3352.7,1350.4,3387.1,1538.7z"/>
		
			<linearGradient id="SVGID_00000055705511646745168080000000836889290395424160_" gradientUnits="userSpaceOnUse" x1="-311742.8125" y1="180624.2031" x2="-453132.7812" y2="262644.2188" gradientTransform="matrix(-1 0 0 1 9000 4954.4678)">
			<stop  offset="4.000000e-02" style="stop-color:#C5DAF1"/>
			<stop  offset="1" style="stop-color:#99BBE3"/>
		</linearGradient>
		<path style="fill:url(#SVGID_00000055705511646745168080000000836889290395424160_);" d="M3397.2,1261.7
			c66.5,148-85.7,276.2-165.8,319.2c-80.1,42.9-277.1-41-286.3-177.3s87.1-297.7,208.2-288.7
			C3274.4,1123.9,3373.1,1207.9,3397.2,1261.7z"/>
		<path class="st2" d="M2827.3,1568.2c2.6,0,5.1-0.9,7.1-2.6c65.6-54.9,134-106.3,204.9-154.1c1.3-0.8,2.5-1.8,3.4-3
			s1.6-2.6,1.9-4.1c0.4-1.5,0.4-3,0.2-4.5s-0.8-2.9-1.6-4.2c-0.8-1.3-1.9-2.4-3.1-3.2c-1.3-0.9-2.7-1.4-4.2-1.7
			c-1.5-0.3-3-0.3-4.5,0.1c-1.5,0.3-2.9,1-4.1,1.8c-71.8,48.3-141,100.3-207.3,155.8c-1.7,1.5-3,3.5-3.6,5.7s-0.5,4.5,0.3,6.7
			c0.8,2.1,2.2,4,4.1,5.3C2822.8,1567.5,2825,1568.2,2827.3,1568.2L2827.3,1568.2z"/>
		<path class="st2" d="M2670.9,1948.7c2.8,0,5.5-1,7.6-2.9c81.6-74.9,336.7-216.1,339.3-217.6s4.5-3.9,5.3-6.8s0.4-6-1.1-8.6
			s-3.9-4.5-6.8-5.3c-2.9-0.8-6-0.4-8.6,1.1c-10.5,5.8-260,144-343.5,220.6c-1.1,1-2,2.2-2.6,3.5s-1,2.8-1,4.3
			c-0.1,1.5,0.2,3,0.7,4.3c0.5,1.4,1.3,2.7,2.3,3.7c1.1,1.2,2.4,2.1,3.9,2.7C2667.8,1948.5,2669.4,1948.8,2670.9,1948.7z"/>
		
			<linearGradient id="SVGID_00000144316533582875622150000013686121847530023581_" gradientUnits="userSpaceOnUse" x1="-773.1478" y1="2160.6155" x2="-128863.1719" y2="110310.6016" gradientTransform="matrix(-1 0 0 1 9000 4954.4678)">
			<stop  offset="4.000000e-02" style="stop-color:#C5DAF1"/>
			<stop  offset="1" style="stop-color:#99BBE3"/>
		</linearGradient>
		<path style="fill:url(#SVGID_00000144316533582875622150000013686121847530023581_);" d="M2797.6,930.4
			c37.4,157.8,32.8,322.4-65.8,394c-98.7,71.6-262.1-3.9-308-94.2c-45.9-90.3-13.2-284,71.3-413.5
			C2579.5,687.3,2774.1,831.5,2797.6,930.4z"/>
		<path class="st2" d="M2852.2,1501.7c1,0.1,1.9,0.1,2.9,0c1.4-0.4,2.8-1,3.9-1.9s2.1-2,2.9-3.3c0.7-1.3,1.2-2.7,1.4-4.1
			c0.2-1.5,0.1-2.9-0.3-4.4c-19.2-69.3-72.4-130.3-119.3-184c-28.2-32.3-54.7-62.7-68.1-88.8c-1.3-2.6-3.7-4.6-6.5-5.5
			s-5.9-0.7-8.5,0.6c-1.3,0.7-2.5,1.6-3.5,2.7s-1.7,2.4-2.2,3.8c-0.4,1.4-0.6,2.9-0.5,4.3c0.1,1.5,0.5,2.9,1.2,4.2
			c14.6,28.6,42,60,71.1,93.3c45.4,52.1,96.8,111.1,114.7,175.3c0.7,2.3,2.2,4.3,4.1,5.7S2849.8,1501.8,2852.2,1501.7z"/>
		
			<linearGradient id="SVGID_00000090276316053526302110000001673963141104511115_" gradientUnits="userSpaceOnUse" x1="-3599.5698" y1="44939.4688" x2="-8091.5698" y2="67623.9766" gradientTransform="matrix(-1 0 0 1 9000 4954.4678)">
			<stop  offset="4.000000e-02" style="stop-color:#C5DAF1"/>
			<stop  offset="1" style="stop-color:#99BBE3"/>
		</linearGradient>
		<path style="fill:url(#SVGID_00000090276316053526302110000001673963141104511115_);" d="M3071.7,629.5
			c122.4,127.2,69.1,279.4-93.5,342.3s-340.7-42.7-367-162.3s91.8-264.6,178.1-279.4C2875.7,515.4,3008.4,564.2,3071.7,629.5z"/>
		
			<linearGradient id="SVGID_00000133501181185508973610000005741759993621659047_" gradientUnits="userSpaceOnUse" x1="1160.5468" y1="836.1982" x2="-27629.4512" y2="23696.2031" gradientTransform="matrix(-1 0 0 1 9000 4954.4678)">
			<stop  offset="4.000000e-02" style="stop-color:#C5DAF1"/>
			<stop  offset="1" style="stop-color:#99BBE3"/>
		</linearGradient>
		<path style="fill:url(#SVGID_00000133501181185508973610000005741759993621659047_);" d="M2757.9,1507.1
			c40.8,164.9-97.9,410.5-153.9,402.3c-56-8.2-23.2-382.7,37.5-444.7C2702.3,1402.8,2747.5,1464.8,2757.9,1507.1z"/>
		<path class="st13" d="M2639.5,2037.6c1.4,0.2,2.8,0.2,4.1,0c2.1-0.5,4.1-1.5,5.9-2.8c1.8-1.3,3.2-3,4.4-4.9c1.1-1.9,1.9-4,2.2-6.2
			s0.2-4.4-0.4-6.5c-20.3-79.7-19.4-204.6-19.4-206c0.2-2.3-0.2-4.6-0.9-6.7c-0.8-2.2-2-4.1-3.5-5.8c-1.6-1.7-3.5-3-5.6-3.9
			s-4.4-1.4-6.6-1.4c-4.4,0-8.7,1.8-11.8,4.9s-4.9,7.4-5,11.8c0,5.3-0.9,130.5,20.6,214.5c0.8,3.7,2.9,6.9,5.8,9.3
			C2632.1,2036.2,2635.8,2037.5,2639.5,2037.6L2639.5,2037.6z"/>
		<path class="st14" d="M2736.3,4815.2c-1.3,102.9-144.7,100.6-240.3,76.1c-87.6-22.3-126.2,55-78.2,130.2
			c123.9,194.7,205.8,98.7,479.9,187.4c104.2,33.5,194.6-44.7,186.6-88.3c-11.9-65.4-44.7-194-42.4-280.4
			C3045,4746.4,2736.3,4815.2,2736.3,4815.2z"/>
		<path class="st15" d="M2696.5,4801c163.8,214,382.6,99.8,401.7,37.4c19.1-62.4-337.4-148.1-337.4-148.1L2696.5,4801z"/>
		<path class="st2" d="M2417,4906.8c-58.7,49.1,57.7,199.8,167.1,187.8c109.4-12.1,148.1,2.1,201.1,33.5
			c53.1,31.4,198.2,54.7,241.7,25.1c70.2-47.7,60.8-108.9,60.8-108.9l79.4,154.5l-174.8,93.4l-604-118.2l-103.9-158.1L2417,4906.8z"
			/>
		<g>
			<path class="st16" d="M2696.5,4801c163.8,214,382.6,99.8,401.7,37.4c19.1-62.4-337.4-148.1-337.4-148.1L2696.5,4801z"/>
		</g>
		<path class="st14" d="M1399.1,5030.8c-85.4,85.4-301.7,86.6-459.5,85.6c-94-0.6-101.6,78.2-68.9,104.9
			c140.8,117,398.2,142.9,658.5,227.8c99,32.3,139.6-47.3,133-89.4c-9.9-62.2,8.8-178.8,13.5-261.2
			C1680.9,5009.8,1449.5,4980.5,1399.1,5030.8z"/>
		<path class="st2" d="M875.6,5134.9c-58.7,89.4,217.6,184.8,322.6,173.7c105-11.2,175.3,33.5,225.1,62.9
			c49.7,29.4,177.9,30.4,210.8-7.5c19.3-21.3,30.9-48.4,33-77.1l72.5,147.7l-169.4,88.4l-653.3-168.7L763,5186.6L875.6,5134.9z"/>
		<path class="st15" d="M1397.7,5076.7c17,37.8,121.6,107.1,179.6,111.8c92.2,7,146.5-71.4,147.8-109.5
			c2.3-62.2-144.5-174.8-144.5-174.8S1385,5048.8,1397.7,5076.7z"/>
		<g>
			<path class="st15" d="M2696.5,4801c163.8,214,382.6,99.8,401.7,37.4c19.1-62.4-337.4-148.1-337.4-148.1L2696.5,4801z"/>
		</g>
		<g>
			<path class="st15" d="M1397.7,5076.7c17,37.8,121.6,107.1,179.6,111.8c92.2,7,146.5-71.4,147.8-109.5
				c2.3-62.2-144.5-174.8-144.5-174.8S1385,5048.8,1397.7,5076.7z"/>
		</g>
		<path class="st17" d="M4564.1,4203.2c-370.2,47.2-1308.5-600.2-1341-392c-71.4,465.4-116.2,223.5-175.7,971.1
			c-11.2,136.3-338.5,95.7-338.4,15.8c0-303.3-22.4-1295.5,12.6-1439.1c27.7-113.4,132.3-212.3,257-220.5
			c131.8-10.2,264.5-0.3,393.4,29.2c465.9,108.6,1151,236,1419.2,308.2C5101.9,3559.1,4934.7,4156,4564.1,4203.2z"/>
		<path class="st18" d="M2661.4,4387.2c65.5-604.6,179.1-1198.6,338.2-1192.4c215.6,8.4,517.6,95.4,718.9,165.2
			s171.8,285.6,171.8,285.6L5005,3872L2935.3,2631.6l-706.8,360.8L2661.4,4387.2z"/>
		
			<linearGradient id="SVGID_00000026137052979477817350000008190096263515440779_" gradientUnits="userSpaceOnUse" x1="4778.1997" y1="-833.9299" x2="6305.6997" y2="-833.9299" gradientTransform="matrix(-1 0 0 1 9000 4954.4678)">
			<stop  offset="0" style="stop-color:#F7FCFE"/>
			<stop  offset="0.85" style="stop-color:#C5DAF1"/>
		</linearGradient>
		<path style="fill:url(#SVGID_00000026137052979477817350000008190096263515440779_);" d="M2694.3,4049
			c187.2-161.1,496.1-155.4,496.1-155.4l1031.4,234.7l-637,219.2l-843.6-137.2l-44.7-115.3L2694.3,4049z"/>
		<path class="st17" d="M4791.6,3475.8c5.8,98.4,215.3,789.9-274.8,845.6c-70.4,8-140.8,55.1-229.4,75.9
			c-254.6,59.9-655.1-19.9-1091.2-204.8c-460.4-195.1-512.7-218.9-584-169.3c-62.2,43.2-91.5,215-293.4,484
			c-176.2,234.7-166.6,203.7-615.2,664.8c-76.6,78.9-345.8-157.4-265.4-243.6c260.7-279.4,371.6-580.6,691.9-1141.8
			c156.4-273.2,211.3-421.1,611.7-352c450.7,77.7,763.1,135.1,1079.3,211C4479.5,3803.7,4791.6,3475.8,4791.6,3475.8z"/>
		<path class="st18" d="M1344.8,5137.9c284.8-293,800.8-1252.8,952.9-1369.9c192.1-147.8,250.9-271.6,409.4-212.3
			c158.6,59.2,1023.8,278,1238.4,252.1c421.9-51.1,63.5-120.2,63.5-120.2L2154,3144L1032.8,4367.5L1344.8,5137.9z"/>
		<path class="st20" d="M4629.4,4198.7c-216.5,44.7-482.1,21.3-395.5-198.4c86.6-219.7,486.2-120.7,561-375
			c104.5-356.7,202.2-331.6,202.2-331.6l405.2,1283.1C5402.2,4576.9,4839.3,4155.6,4629.4,4198.7z"/>
		
			<linearGradient id="SVGID_00000182518008438767793700000007847163782543479190_" gradientUnits="userSpaceOnUse" x1="71930.8047" y1="693478.6875" x2="56190.8047" y2="526147.6875" gradientTransform="matrix(-1 0 0 1 9000 4954.4678)">
			<stop  offset="0" style="stop-color:#FFFFFF"/>
			<stop  offset="1" style="stop-color:#F7FCFE"/>
		</linearGradient>
		<path style="opacity:0.92;fill:url(#SVGID_00000182518008438767793700000007847163782543479190_);enable-background:new    ;" d="
			M0,3152.5l3259.1-1186.2l1734.7,631.4L1734.7,3783.9L0,3152.5z"/>
		
			<linearGradient id="SVGID_00000027600291088279358550000001742268014050920081_" gradientUnits="userSpaceOnUse" x1="-23401.7207" y1="245051.6719" x2="-27539.7227" y2="280217.6875" gradientTransform="matrix(-1 0 0 1 9000 4954.4678)">
			<stop  offset="0" style="stop-color:#F7FCFE"/>
			<stop  offset="0.85" style="stop-color:#C5DAF1"/>
		</linearGradient>
		<path style="opacity:0.7;fill:url(#SVGID_00000027600291088279358550000001742268014050920081_);enable-background:new    ;" d="
			M4993.8,2689.5v-91.9L1734.7,3783.9v91.9L4993.8,2689.5z"/>
		
			<linearGradient id="SVGID_00000103225879901288776570000004639850345651753622_" gradientUnits="userSpaceOnUse" x1="36431.1758" y1="173040.7344" x2="20441.1758" y2="74450.7266" gradientTransform="matrix(-1 0 0 1 9000 4954.4678)">
			<stop  offset="0" style="stop-color:#F7FCFE"/>
			<stop  offset="0.85" style="stop-color:#C5DAF1"/>
		</linearGradient>
		<path style="opacity:0.7;fill:url(#SVGID_00000103225879901288776570000004639850345651753622_);enable-background:new    ;" d="
			M0,3244.4v-91.9l1734.7,631.4v91.9L0,3244.4z"/>
		
			<linearGradient id="SVGID_00000149374408991824428630000012196742413580253841_" gradientUnits="userSpaceOnUse" x1="6699.8848" y1="-2789.863" x2="6722.5747" y2="-2722.9231" gradientTransform="matrix(-1 0 0 1 9000 4954.4678)">
			<stop  offset="0" style="stop-color:#D5E5F6"/>
			<stop  offset="0.49" style="stop-color:#C5DAF1"/>
			<stop  offset="0.97" style="stop-color:#99BBE3"/>
		</linearGradient>
		<path style="fill:url(#SVGID_00000149374408991824428630000012196742413580253841_);" d="M2978.8,2251.7l-242.7-611.9
			c-7.6-18.7-22.2-33.7-40.6-41.9c-18.4-8.2-39.3-9-58.3-2.2L1681,1944.1c-9.1,3.3-17.5,8.5-24.6,15.2c-7,6.7-12.6,14.8-16.4,23.7
			c-3.8,9-5.7,18.6-5.5,28.3c0.1,9.7,2.3,19.3,6.3,28.2l261.7,585.8c7.7,17,21.4,30.4,38.6,37.7c17.1,7.3,36.4,7.8,53.9,1.5
			l953-343.7c6.7-2.4,12.8-6.1,18-10.9c5.2-4.8,9.4-10.6,12.3-17.1c2.9-6.5,4.4-13.5,4.5-20.5
			C2982.9,2265.2,2981.5,2258.2,2978.8,2251.7L2978.8,2251.7z"/>
		
			<linearGradient id="SVGID_00000104695060117808150060000010769100452011220871_" gradientUnits="userSpaceOnUse" x1="7793.9556" y1="-4714.0942" x2="6814.6851" y2="-3071.0276" gradientTransform="matrix(-1 0 0 1 9000 4954.4678)">
			<stop  offset="0" style="stop-color:#F6FAFE"/>
			<stop  offset="0.18" style="stop-color:#F1F7FD"/>
			<stop  offset="0.38" style="stop-color:#E4EEF9"/>
			<stop  offset="0.58" style="stop-color:#CEE0F3"/>
			<stop  offset="0.65" style="stop-color:#C5DAF1"/>
			<stop  offset="1" style="stop-color:#C5DAF1"/>
		</linearGradient>
		<path style="fill:url(#SVGID_00000104695060117808150060000010769100452011220871_);" d="M2991.2,2248.6L2748.5,1637
			c-7.6-18.7-22.2-33.7-40.6-41.9c-18.4-8.2-39.3-9-58.3-2.1l-956.1,348c-9.1,3.3-17.5,8.5-24.5,15.2s-12.6,14.8-16.4,23.7
			c-3.8,9-5.7,18.6-5.5,28.3c0.1,9.7,2.2,19.3,6.2,28.2l261.8,585.8c7.6,17,21.4,30.4,38.5,37.7s36.4,7.8,53.9,1.5l953-344.1
			c6.6-2.4,12.7-6.1,17.8-10.8c5.2-4.8,9.3-10.6,12.2-17s4.4-13.4,4.5-20.4C2995.1,2262.1,2993.9,2255.2,2991.2,2248.6
			L2991.2,2248.6z"/>
		<path class="st17" d="M2947.9,2281.8l-263.2-662.7l-998.5,363.4l290.6,649.5L2947.9,2281.8z"/>
		<g>
			<g class="st26">
				<path class="st27" d="M2743.4,1874.4c-12.2-30.6-35.7-55.2-65.8-68.7c-30-13.5-64.1-14.7-95-3.4l-715.2,256.5
					c-16.3,6-31.2,15.2-43.8,27.2c-12.6,12-22.5,26.4-29.3,42.4s-10.1,33.2-9.9,50.6c0.2,17.4,4,34.5,11.1,50.3l0,0
					c13.1,29.1,36.6,52.2,66,64.6c29.4,12.4,62.4,13.3,92.3,2.5l715.2-256.1c15.9-5.8,30.6-14.7,43-26.2s22.4-25.5,29.3-40.9
					c6.9-15.5,10.7-32.2,11-49.1C2752.7,1907,2749.6,1890.1,2743.4,1874.4L2743.4,1874.4z"/>
			</g>
			<g class="st28">
				<path class="st29" d="M2728.9,1877.3c-11.8-29.7-34.8-53.7-64-66.7c-29.2-13.1-62.4-14.2-92.4-3.2L1879.6,2056
					c-15.8,5.8-30.2,14.8-42.4,26.4c-12.2,11.6-21.9,25.6-28.4,41.1c-6.6,15.5-9.9,32.2-9.7,49c0.1,16.8,3.8,33.4,10.6,48.8l0,0
					c12.7,28.2,35.5,50.6,64,62.7c28.5,12.1,60.5,13.1,89.6,2.6l692.9-248.4c15.5-5.5,29.8-14.2,41.9-25.3
					c12.1-11.2,21.9-24.7,28.7-39.7s10.5-31.2,10.9-47.7C2737.9,1909,2735,1892.6,2728.9,1877.3L2728.9,1877.3z"/>
			</g>
			<g class="st30">
				<path class="st31" d="M2714.4,1880.1c-11.3-28.7-33.4-51.8-61.5-64.5s-60.1-14-89.1-3.6l-671.3,240.9
					c-15.3,5.6-29.3,14.3-41.2,25.5c-11.8,11.2-21.2,24.8-27.6,39.8s-9.6,31.2-9.4,47.5c0.1,16.3,3.7,32.4,10.3,47.3l0,0
					c12.3,27.4,34.4,49.1,62,60.8s58.6,12.6,86.8,2.5l671.4-240.6c14.9-5.4,28.6-13.8,40.3-24.7c11.6-10.8,21-23.9,27.5-38.4
					s10-30.2,10.3-46.1C2723.2,1910.7,2720.3,1894.9,2714.4,1880.1z"/>
			</g>
			<g class="st32">
				<path class="st33" d="M2700,1882.9c-11.1-27.8-32.5-50.2-59.8-62.4c-27.3-12.2-58.3-13.4-86.4-3.2l-649.4,233.2
					c-14.8,5.4-28.4,13.8-39.8,24.6c-11.5,10.9-20.5,24-26.7,38.5s-9.3,30.2-9.1,46c0.1,15.8,3.5,31.4,10,45.8l0,0
					c11.9,26.4,33.4,47.4,60,58.6s56.7,12,83.9,2.2l649.6-232.8c14.5-5.2,27.8-13.3,39-23.8c11.3-10.5,20.4-23.1,26.7-37.1
					s9.8-29.2,10.1-44.6C2708.4,1912.5,2705.7,1897.2,2700,1882.9L2700,1882.9z"/>
			</g>
			<g class="st34">
				<path class="st35" d="M2685.5,1885.7c-10.6-26.9-31.4-48.6-57.7-60.4c-26.4-11.9-56.3-13-83.5-3.1l-627.6,225.3
					c-14.3,5.3-27.3,13.4-38.3,24c-11,10.5-19.8,23.2-25.7,37.2c-6,14-9,29.1-8.9,44.3s3.3,30.3,9.4,44.2l0,0
					c11.5,25.6,32.2,45.9,58,56.9s54.8,11.8,81.2,2.2l627.4-225.2c14-5,26.9-12.8,37.9-22.9s19.8-22.3,25.9-35.9
					c6.1-13.6,9.5-28.2,9.8-43.2C2693.6,1914.4,2691,1899.5,2685.5,1885.7L2685.5,1885.7z"/>
			</g>
			<g>
				<path class="st2" d="M2671.1,1888.5c-10.3-25.9-30.3-46.8-55.7-58.3c-25.5-11.4-54.4-12.5-80.6-3l-605.9,217.5
					c-13.8,5-26.5,12.9-37.2,23s-19.1,22.4-24.9,35.9c-5.7,13.6-8.6,28.2-8.5,42.9s3.3,29.2,9.3,42.7c11,24.7,31,44.3,55.8,54.9
					c24.9,10.6,52.8,11.4,78.2,2.2l606-217.1c13.6-4.9,26-12.4,36.6-22.2c10.6-9.8,19.1-21.6,25-34.7s9.1-27.3,9.4-41.7
					C2679,1916.2,2676.4,1901.9,2671.1,1888.5L2671.1,1888.5z"/>
			</g>
		</g>
		<path class="st36" d="M2685.1,1857c-10.3-25.9-30.3-46.8-55.8-58.3c-25.4-11.4-54.4-12.5-80.6-3l-605.9,217.5
			c-13.8,5-26.5,12.9-37.1,23c-10.7,10.1-19.1,22.4-24.9,35.9c-5.8,13.6-8.6,28.1-8.5,42.9c0.1,14.7,3.3,29.3,9.3,42.7l0,0
			c11.1,24.7,31,44.2,55.9,54.8s52.8,11.4,78.2,2.3l606.1-217.4c13.5-4.9,25.9-12.4,36.5-22.2c10.5-9.8,19-21.5,24.9-34.7
			c5.9-13.1,9.1-27.3,9.4-41.6C2693,1884.6,2690.5,1870.3,2685.1,1857z"/>
		
			<linearGradient id="SVGID_00000160907816664601734440000012512481962152797602_" gradientUnits="userSpaceOnUse" x1="570063.125" y1="23650.5254" x2="554016.125" y2="22911.5254" gradientTransform="matrix(-1 0 0 1 9000 4954.4678)">
			<stop  offset="0" style="stop-color:#D5E5F6"/>
			<stop  offset="0.49" style="stop-color:#C5DAF1"/>
			<stop  offset="0.97" style="stop-color:#99BBE3"/>
		</linearGradient>
		<path style="fill:url(#SVGID_00000160907816664601734440000012512481962152797602_);" d="M3663.9,2583.9l-988.3,359.8
			c-31.4,11.4-65.7,11.4-97.1,0l-596.6-217.1c-4.1-1.4-7.5-4.2-9.9-7.8c-2.3-3.6-3.4-7.9-3.1-12.1c0-3.7,0-28.8,0-34.8
			c0-3.7,8.7,19,12.8,17.6l988.4-359.6c31.4-11.4,65.8-11.4,97.1,0l596.6,184.1c17.1,11.2,12.8,22.4,12.8,49.2
			c0.4,4.4-0.7,8.8-3,12.5C3671.4,2579.4,3667.9,2582.2,3663.9,2583.9L3663.9,2583.9z"/>
		
			<linearGradient id="SVGID_00000122680854664412991530000013869232831822152365_" gradientUnits="userSpaceOnUse" x1="26483.0664" y1="302793.0938" x2="17328.0586" y2="165218.0938" gradientTransform="matrix(-1 0 0 1 9000 4954.4678)">
			<stop  offset="0" style="stop-color:#FFFFFF"/>
			<stop  offset="1" style="stop-color:#C5DAF1"/>
		</linearGradient>
		<path style="fill:url(#SVGID_00000122680854664412991530000013869232831822152365_);" d="M3663.8,2550.8L2675.5,2911
			c-31.4,11.4-65.7,11.4-97.1,0l-596.6-217.2c-3.8-1.4-7.1-3.9-9.4-7.2s-3.5-7.3-3.5-11.3s1.2-8,3.5-11.3s5.6-5.8,9.4-7.2
			l988.3-360.3c31.4-11.4,65.8-11.4,97.1,0l596.6,217.2c3.8,1.4,7.1,3.9,9.5,7.2c2.3,3.3,3.6,7.3,3.6,11.4s-1.3,8-3.6,11.4
			C3671,2546.9,3667.7,2549.4,3663.8,2550.8L3663.8,2550.8z"/>
		
			<linearGradient id="SVGID_00000054239907909908942000000013809499372642455453_" gradientUnits="userSpaceOnUse" x1="5954.4004" y1="41282.7305" x2="5954.4004" y2="77095.8281" gradientTransform="matrix(-1 0 0 1 9000 4954.4678)">
			<stop  offset="0" style="stop-color:#F6FAFE"/>
			<stop  offset="0.18" style="stop-color:#F1F7FD"/>
			<stop  offset="0.38" style="stop-color:#E4EEF9"/>
			<stop  offset="0.58" style="stop-color:#CEE0F3"/>
			<stop  offset="0.65" style="stop-color:#C5DAF1"/>
			<stop  offset="1" style="stop-color:#C5DAF1"/>
		</linearGradient>
		<path style="fill:url(#SVGID_00000054239907909908942000000013809499372642455453_);" d="M3290.1,2635.5l-286.8,104.4
			c-9.1,3.4-19.1,3.4-28.2,0l-173.1-63c-1.3-0.3-2.4-1-3.3-2c-0.8-1-1.3-2.3-1.3-3.6s0.5-2.6,1.3-3.6s2-1.7,3.3-2l286.9-103.9
			c9.1-3.4,19.1-3.4,28.3,0l172.9,63c1.1,0.4,2.1,1.1,2.7,2.1c0.7,1,1,2.1,1,3.3s-0.4,2.3-1,3.3
			C3292.2,2634.4,3291.3,2635.1,3290.1,2635.5L3290.1,2635.5z"/>
		
			<linearGradient id="SVGID_00000132794579557528857000000016416768964827791019_" gradientUnits="userSpaceOnUse" x1="6294.4502" y1="107655.5312" x2="6294.4502" y2="198073.5312" gradientTransform="matrix(-1 0 0 1 9000 4954.4678)">
			<stop  offset="0" style="stop-color:#F6FAFE"/>
			<stop  offset="0.18" style="stop-color:#F1F7FD"/>
			<stop  offset="0.38" style="stop-color:#E4EEF9"/>
			<stop  offset="0.58" style="stop-color:#CEE0F3"/>
			<stop  offset="0.65" style="stop-color:#C5DAF1"/>
			<stop  offset="1" style="stop-color:#C5DAF1"/>
		</linearGradient>
		<path style="fill:url(#SVGID_00000132794579557528857000000016416768964827791019_);" d="M3329.7,2451.1l-960.4,349.6
			c-13,4.8-27.3,4.8-40.3,0l-247.9-90.2c-1.6-0.6-2.9-1.7-3.8-3c-0.9-1.4-1.4-3-1.4-4.7s0.5-3.3,1.4-4.7s2.3-2.4,3.8-3l960.4-349.7
			c13-4.7,27.3-4.7,40.3,0l247.9,90.3c1.6,0.6,3,1.6,4,3s1.5,3,1.5,4.7s-0.5,3.4-1.5,4.7C3332.7,2449.6,3331.3,2450.6,3329.7,2451.1
			L3329.7,2451.1z"/>
		<path class="st14" d="M2553.1,1821.1l62.8,133.5l-10.1,4.8l-62.8-133.5L2553.1,1821.1z"/>
		<path class="st41" d="M4713.5,2008.3c148.2-1.8,142.5,190-2.2,454.1c-90.4,164.7-167.6,223.5-312.9,375.7
			c-87,91.5-126.2,178-182.4,172.2c-360.6-37.3-398.3-62.5-880.2-285.8c0,0-28.8-151.3,47.4-134.1c317.4,69.7,211,36.7,440.3,92.2
			c237.5,57.4,310.3,40.9,310.3,40.9s104.9-84.7,232.5-294.8C4494,2218.7,4563.3,2009.9,4713.5,2008.3z"/>
		<path class="st41" d="M3348.7,2724.7c-102.9,0-277.4-35.4-303.1-83.8c-25.7-48.4,15.5-33.5,49.8-20.9s81.7,23.9,93.1,12.5
			c11.4-11.4-54.6-128.7-105.7-147.3c-51.1-18.6-83.3,37.1-110.1,27.4c-26.8-9.7-19.9-58.1,38.6-79.3
			c58.4-21.2,97.2-44.7,122.2-44.7c44,1.7,87.6,9.6,129.4,23.6c43.2,15.8,71.2,94,95.8,135.9c16.2,25.6,41.5,44.2,70.9,51.8
			L3348.7,2724.7z"/>
		
			<linearGradient id="SVGID_00000134946371844505681160000018038171823606477729_" gradientUnits="userSpaceOnUse" x1="4777.1787" y1="-1719.3094" x2="4210.9336" y2="-2596.8796" gradientTransform="matrix(-1 0 0 1 9000 4954.4678)">
			<stop  offset="0" style="stop-color:#FFFFFF"/>
			<stop  offset="1" style="stop-color:#F7FCFE"/>
		</linearGradient>
		<path style="fill:url(#SVGID_00000134946371844505681160000018038171823606477729_);" d="M3817.6,2127.4
			c8.4-20.9,23.4-38.5,42.8-50c203.2-123.6,513-270.2,697.3-257c93.3,6.5,185.3,40.4,264.5,233.6c42.2,103,108.3,346.4,108.1,689.7
			c0,254,35.5,651.4,35,1044.2c0,315.7-1172.3,260.8-1102.1-25.7c68.6-280.2,55.9-627,18.4-836.7c-25.1-140.1-74.5-325.4-42.8-455.4
			C3872.9,2329.9,3800.3,2172.1,3817.6,2127.4z"/>
		<path class="st43" d="M4071.3,4101.1c0,0,748.7-230.1,674.1-526.6c-73-288.9,422.4-472.7,248.4-885
			c-143.6-340.2-68.3-664.9-300.7-845.2c-26.1-20.3-479.1,98.9-706.3,290.6c-199.9,168.3-45.3,636,88.8,1188.5
			c89.4,366.6-835.3,966.8-835.3,966.8C3240,4298,3906.8,4171.8,4071.3,4101.1z"/>
		
			<linearGradient id="SVGID_00000010310866876820836360000002236226538137632898_" gradientUnits="userSpaceOnUse" x1="330545.5" y1="-9309.1777" x2="317443.5" y2="-9005.1758" gradientTransform="matrix(-1 0 0 1 9000 4954.4678)">
			<stop  offset="0" style="stop-color:#D5E5F6"/>
			<stop  offset="0.49" style="stop-color:#C5DAF1"/>
			<stop  offset="0.97" style="stop-color:#99BBE3"/>
		</linearGradient>
		<path style="fill:url(#SVGID_00000010310866876820836360000002236226538137632898_);" d="M2469.7,3193.1l-317.5,115.8
			c-24.1,8.7-50.4,8.7-74.5,0l-458.2-166.7c-3.1-1.1-5.8-3.1-7.6-5.9c-1.8-2.8-2.6-6-2.4-9.3c0-2.8,0-22.3,0-26.7
			c0-2.8,6.7,14.6,9.8,13.5l317.6-115.8c24.1-8.7,50.4-8.7,74.4,0l458.2,141.2c13.2,8.6,9.9,16.9,9.9,37.8c0.3,3.4-0.5,6.8-2.3,9.7
			C2475.5,3189.5,2472.8,3191.8,2469.7,3193.1L2469.7,3193.1z"/>
		
			<linearGradient id="SVGID_00000072276188238996613790000004507377889233201026_" gradientUnits="userSpaceOnUse" x1="8324.0889" y1="120260.6016" x2="8953.0918" y2="176367.5938" gradientTransform="matrix(-1 0 0 1 9000 4954.4678)">
			<stop  offset="0" style="stop-color:#FFFFFF"/>
			<stop  offset="1" style="stop-color:#C5DAF1"/>
		</linearGradient>
		<path style="fill:url(#SVGID_00000072276188238996613790000004507377889233201026_);" d="M2469.7,3168l-317.5,115.7
			c-24.1,8.8-50.5,8.8-74.5,0l-458.2-166.6c-2.9-1.1-5.4-3-7.2-5.6c-1.8-2.6-2.7-5.6-2.7-8.7c0-3.1,0.9-6.1,2.7-8.7
			c1.8-2.5,4.3-4.5,7.2-5.6l317.6-115.7c24-8.8,50.4-8.8,74.4,0l458.2,166.6c2.9,1.1,5.4,3,7.2,5.6c1.8,2.5,2.7,5.6,2.7,8.7
			c0,3.1-1,6.1-2.7,8.7C2475.1,3165,2472.6,3166.9,2469.7,3168z"/>
		
			<linearGradient id="SVGID_00000172423022359379322940000017950903889755224487_" gradientUnits="userSpaceOnUse" x1="6012.752" y1="38124.4688" x2="5109.7544" y2="76574.8672" gradientTransform="matrix(-1 0 0 1 9000 4954.4678)">
			<stop  offset="0" style="stop-color:#F6FAFE"/>
			<stop  offset="0.18" style="stop-color:#F1F7FD"/>
			<stop  offset="0.38" style="stop-color:#E4EEF9"/>
			<stop  offset="0.58" style="stop-color:#CEE0F3"/>
			<stop  offset="0.65" style="stop-color:#C5DAF1"/>
			<stop  offset="1" style="stop-color:#C5DAF1"/>
		</linearGradient>
		<path style="fill:url(#SVGID_00000172423022359379322940000017950903889755224487_);" d="M2461.6,3147.5l-355.9,131l-469.3-170.9
			l355.9-130.9L2461.6,3147.5z"/>
		<path class="st2" d="M2544.1,2829.1l20.5,26.5l-424.1,327.5l-20.5-26.5L2544.1,2829.1z"/>
		<path class="st47" d="M3883.2,2057.8c0,0-65.8,35.6-83.8,78.2c-18,42.6-120.7,451.9-69.2,476.2c51.5,24.2,152.4,447,300.1,158.7
			c109.5-213.8,132.4-588.2,58-662.5C4013.8,2034.1,3913.2,2039.3,3883.2,2057.8z"/>
		<path class="st41" d="M2077.8,3128.6c5.9-17.3,111-78.2,182.4-118.7c19.4-11.2,106.2-12.5,146.6-18.5
			c117.1-17.4,169.3,74.2,248.1,82.5c325.9-11.2,219.2,17.9,472.3-23.7c240.5-39.6,274.8-5,341.1-58.9
			c55.9-45.7,48.3-158.6,163-410.5c111.8-246.5,104.9-453.2,267-497c159.9-43.1,203,131.1,152.1,458.2
			c-21.6,138.6-76.9,258.1-130.7,332.2c-36.3,50-58.2,160.9-93.1,243.1c-54.5,128.5-136.4,205.6-199.6,207.9
			c-373.2,13.1-428.8,9.3-990.1-89.4c-12.4,3.2-112.4,28.6-169.1,35.8c-60.5,7.7-152.4,15-206.5,49.5s-141.7-65.7-125.3-102.6
			c15.3-31.3,32.6-61.5,51.7-90.6C2103.4,3178.3,2072.1,3145.7,2077.8,3128.6z"/>
		<g>
			<path class="st15" d="M1978.6,3518.9l122-326.1c0,0,90.1,70.6,141.6,64.8s281.7-115.8,339.3-115.8s341.4,9.9,419.9,9.9
				s491.7,5.8,554.8-88.6c63.1-94.4,168.8-394.6,183-497.6c14.3-103,91.5-337.5,248.5-577.6l587.5,357.6L4217,3824.4L1978.6,3518.9z
				"/>
		</g>
		<path class="st48" d="M3821,5885.2c-18.2-44,2.7-94.5,46.7-112.7s94.5,2.7,112.7,46.7s-2.7,94.5-46.7,112.7
			C3889.7,5950.1,3839.2,5929.2,3821,5885.2z"/>
		<path class="st48" d="M4927.1,5696.4c-47.6,0-86.3-38.6-86.3-86.3s38.6-86.3,86.3-86.3s86.3,38.6,86.3,86.3
			S4974.7,5696.4,4927.1,5696.4z"/>
		<path class="st48" d="M4476.7,5250c-18.2-44,2.7-94.5,46.7-112.7s94.5,2.7,112.7,46.7s-2.7,94.5-46.7,112.7
			C4545.4,5315,4494.9,5294.1,4476.7,5250z"/>
		<path class="st48" d="M3184,5278c-33.7-33.7-33.7-88.3,0-122s88.3-33.7,122,0s33.7,88.3,0,122S3217.7,5311.7,3184,5278z"/>
		<path class="st48" d="M2874.2,5696.4c-47.6,0-86.3-38.6-86.3-86.3s38.6-86.3,86.3-86.3s86.3,38.6,86.3,86.3
			S2921.9,5696.4,2874.2,5696.4z"/>
		
			<linearGradient id="SVGID_00000121965047540209565410000000782788366259470507_" gradientUnits="userSpaceOnUse" x1="5264.7251" y1="792.4534" x2="7887.7256" y2="255.7132" gradientTransform="matrix(-1 0 0 1 9000 4954.4678)">
			<stop  offset="0" style="stop-color:#6A818E"/>
			<stop  offset="1" style="stop-color:#D0E1EC"/>
		</linearGradient>
		<path style="fill:url(#SVGID_00000121965047540209565410000000782788366259470507_);" d="M2792.3,5569.3
			c0-19.2,33.5-34.9,75.2-34.9s75.2,15.6,75.2,35c0,19.3-33.5,34.9-75.2,34.9S2792.3,5588.7,2792.3,5569.3z"/>
		
			<linearGradient id="SVGID_00000040576552883485291600000017731393578835833493_" gradientUnits="userSpaceOnUse" x1="4019.1296" y1="1269.2789" x2="34836.7266" y2="-12321.6182" gradientTransform="matrix(-1 0 0 1 9000 4954.4678)">
			<stop  offset="0" style="stop-color:#6A818E"/>
			<stop  offset="1" style="stop-color:#D0E1EC"/>
		</linearGradient>
		<path style="fill:url(#SVGID_00000040576552883485291600000017731393578835833493_);" d="M3825.4,5747.4c0-19.3,33.5-35,75.2-35
			s75.3,15.6,75.3,35c0,19.3-33.5,34.9-75.3,34.9S3825.4,5766.6,3825.4,5747.4z"/>
		<path class="st43" d="M2805.1,5459.7h4.9c8.4-1.7,12.5,2,22.3,1l726.4-76.8l-399.2-169c-17.1-7.2-25-15.6-24.9-24v-139.2
			l63.6,29.9v6.3c57.8-11.2,134.1-7,174.1,10.1l480.5,203.4c31.5,10.2,65.5,10.2,97,0l480.5-207.9c40.5-17.4,116.3-22.4,174.1-11.2
			v-5.6l63.7-32.5v142.5c-0.7,8-8.8,16-25,23L4244,5382.4l726.4,70c9.7,0.9,11.2-3.6,19.1-2l8.2-0.7l63.6-29.8v139.8
			c-0.4,4.8-2.8,9.3-6.5,12.4l0,0c-22.4,21.6-96.6,33.5-165.6,26.9l-777.2-74.9c-38.7-3.7-78.2,5.5-78.2,18.1v254
			c0,22.4-58.9,41.1-131.5,41.5c-72.6,0.3-131.4-17.7-131.4-40.2v-255c0-12.6-39.8-21.5-78.2-17.3l-777.1,82
			c-69.1,7.4-143.3-4-165.7-25.5c-1.8-1.5-3.3-3.3-4.4-5.4c-1.1-2.1-1.8-4.3-2-6.7v-139.8L2805.1,5459.7z"/>
		<g class="st51">
			
				<linearGradient id="SVGID_00000124147294643916356410000015688165405121728683_" gradientUnits="userSpaceOnUse" x1="7216.6035" y1="390421.4062" x2="7950.604" y2="525600.375" gradientTransform="matrix(-1 0 0 1 9000 4954.4678)">
				<stop  offset="0" style="stop-color:#FFFFFF"/>
				<stop  offset="1" style="stop-color:#F7FCFE"/>
			</linearGradient>
			
				<path style="opacity:0.92;fill:url(#SVGID_00000124147294643916356410000015688165405121728683_);enable-background:new    ;" d="
				M2747.9,5441.4c22.4,21.3,96.7,32.7,165.7,25.5l777.1-82.1c38.7-4,78.2,4.7,78.2,17.4v254c0,22.3,58.9,40.6,131.4,40.2
				c72.6,0,131.5-18.9,131.5-41.5v-254c0-12.6,39.7-21.8,78.2-18.1l778,74.9c69.1,6.7,143.2-5.4,165.6-26.9
				c22.4-21.7-15.3-44.7-84.4-51.2l-777.2-74.9c-38.7-3.7-53.9-18.2-30-28.5l480.5-207.8c42.7-18.4,29.7-44-29.1-57
				c-58.8-13-140.9-8.6-183.6,9.9L3949.3,5229c-31.5,10.2-65.5,10.2-97,0l-480.5-203.3c-42.6-18.1-124.8-21.8-183.6-8.3
				c-58.7,13.5-71.8,39.2-29.1,57.2l480.5,203.3c23.9,10.2,8.7,24.8-30,28.8l-778,82.6C2763.4,5396.8,2725.6,5420,2747.9,5441.4z"/>
		</g>
		
			<linearGradient id="SVGID_00000064318365060455404690000001266706083434383242_" gradientUnits="userSpaceOnUse" x1="37035.5" y1="-208.7764" x2="42897.8008" y2="-208.7764" gradientTransform="matrix(-1 0 0 1 9000 4954.4678)">
			<stop  offset="0" style="stop-color:#F7FCFE"/>
			<stop  offset="0.85" style="stop-color:#C5DAF1"/>
		</linearGradient>
		<path style="fill:url(#SVGID_00000064318365060455404690000001266706083434383242_);" d="M3814.7,5318.7
			c0,43.4,173.1,40.8,172.3,0c-1.4-84.1,0-1177.6,0-1177.6h-172.3C3814.7,4141,3815.4,5234.5,3814.7,5318.7z"/>
		
			<linearGradient id="SVGID_00000183965602219392266440000014249506607540988314_" gradientUnits="userSpaceOnUse" x1="173199.125" y1="630896.4375" x2="328997.125" y2="1216307.5" gradientTransform="matrix(-1 0 0 1 9000 4954.4678)">
			<stop  offset="0" style="stop-color:#F7FCFE"/>
			<stop  offset="0.85" style="stop-color:#C5DAF1"/>
		</linearGradient>
		<path style="fill:url(#SVGID_00000183965602219392266440000014249506607540988314_);" d="M5457.5,2531.1
			c4.1-19.6,3.1-39.8-2.8-58.9c-6-19.1-16.7-36.3-31.2-50s-32.3-23.5-51.7-28.4c-19.4-4.9-39.7-4.7-59,0.5l-640.1,171.6
			c-47.7,12.8-91.4,37.1-127.5,70.8s-63.4,75.7-79.4,122.3c-145.9,424.6-572.9,1600-843,1640.4c-402.3,60.1-917.6-147.3-851.3-119.1
			c223.7,94.7,457.3,164.2,696.4,207.2c140.7,29,283.8,44.3,427.4,45.7c484.3,0,878.5-228,1056.9-491.7
			C5217.4,3650,5457.5,2531.1,5457.5,2531.1z"/>
		<path class="st47" d="M4441.2,1834.2c64.6,23.5,107.5,24.7,107.5,85.4c0,60.7-118,116-211.4,116s-252.4-13.3-260.7-61
			s48.8-81.9,48.8-81.9L4441.2,1834.2z"/>
		<path class="st55" d="M5325.6,2361.4c-65.4-24-103.8-19.4-174-0.7L4706,2480.3c-186.1,49.8-325.3,101.6-378.4,228.2
			c-152.1,362.2-279.4,1226.8-497.3,1490.1c-117.8,142.5-447.7,135.2-680.5,72.6s-316.6-97.1-413.5-152.2
			c-12.2-7.3-22.5-17.5-29.8-29.7c-7.4-12.2-11.6-26.1-12.3-40.3l-1.3,154.3c1.6,19.5,16.4,36.8,34.6,53.6c0,0,70.6,60,422.6,154.7
			c232.7,62.6,631.1,93.1,809.6-95.6c214.6-226.6,383.9-1237,509.1-1564.5c58.9-154.2,194.1-182.8,380-232.7l445.5-119.6
			c60.9-16.3,83-7.3,118.8,14.9C5386.3,2393.1,5356.9,2375.3,5325.6,2361.4L5325.6,2361.4z"/>
		<path class="st41" d="M4493.8,1910.9c58.6,71.4-387.8,124.8-380.7,32.9c7-92-72.3-244.9-89.4-309.1
			c-11.2-43,279.4-328.7,353.7,13.6C4393.7,1725.1,4433.8,1838.2,4493.8,1910.9z"/>
		<g>
			<path class="st15" d="M4444.5,1657.6c18.5,60.5,400.2,360-239.8,349.8c0,0-69.1-211.7-179.8-195.2
				C3954.1,1822.6,4444.5,1657.6,4444.5,1657.6z"/>
		</g>
		<path class="st17" d="M3785.1,997.4c39.3-21.2,83.1-32.6,127.7-33.2c44.6-0.6,88.7,9.5,128.6,29.6c39.9,19.6,89.4,9.8,125.6-8.3
			c85.7-43.5,324.1,45.4,312.9,229.4c-45.6,81.6-42.4,75.8-139.7,133.1c-58,34.2-361.1,4.2-385.9,49.9l-57-50.4
			C3763.6,1394.5,3539.4,1129.7,3785.1,997.4z"/>
		<g>
			<path class="st15" d="M4285.4,1462c-58.7-79.5-203.3-122.9-201.1-180.8c2.1-57.9-105.4-80.1-151.2-62.2
				c-247.4,96.2-183.6,1.5-266.9,140.6c-60,100.6,89.4,48.8,89.4,48.8l183.3,47.6l324.1,12.3L4285.4,1462z"/>
		</g>
		<path class="st56" d="M4042.4,1227c165.9,67,391.1,72.2,437.7-12.1c-19,204.7-53.5,332.2-86.2,486.8l-200.3,44.7l-239.1-348.3
			C3979.2,1347.7,3978.6,1201.2,4042.4,1227z"/>
		<g>
			<path class="st15" d="M4028.6,1221.6c8.2,3.2,15.5,8.4,21.3,15s10,14.5,12.2,23.1c29.9,112.5,181.3,357.6,265,429.6
				c91.2,78.2-187.6,110.7-187.6,110.7l-221.9-523.1l109.6-55.9L4028.6,1221.6z"/>
		</g>
		<path class="st41" d="M4104.4,1476.8c18.8,38.2,38.2,103.1,8.3,147.7c55.9,68.9,144.6,106.2,138.5,109.1
			c-89.4,42.8-188.4,83.5-222.5,86.4c-72.8,6.5-125.1-214.6-132.5-255.8c-12.1-65.7,17-76.3,20.7-141.9
			c2-37.1-32.6-104.2-32.6-104.2c51.9-28.6,61.5-22.3,129.1,123.7C4029.5,1477.1,4047.3,1360.2,4104.4,1476.8z"/>
		<g>
			<path class="st15" d="M4162.7,1924.1c-119.9-50.6-304.3-339.6-193.2-466.1c25-28.4,16.4-45.9,0-137
				c-16.2-88.7-77.2-184.4-104.2-211.3l187.5-53.8C4064.9,1055,4733.3,2164.6,4162.7,1924.1z"/>
		</g>
		<g>
			<path class="st15" d="M4043.3,1519.6c-8.6-65.7,17-72.1,32-49.9c15,22.1,42.6,127.9-1.4,111.1
				C4054.4,1573.3,4045.7,1536.5,4043.3,1519.6z"/>
		</g>
		<path class="st17" d="M1256.3,5215.1h2.5c2.2-0.3,4.3-1.1,6.2-2.2c1.9-1.1,3.6-2.6,4.9-4.4s2.3-3.8,2.8-5.9s0.7-4.4,0.4-6.5
			c0-3.5-11.2-86.9,55.9-113.4c4-1.7,7.2-4.9,8.9-9c1.7-4,1.7-8.6,0.1-12.6c-1.6-4.1-4.7-7.4-8.7-9.1c-4-1.8-8.5-2-12.6-0.5
			c-73.3,29-82.4,110.3-76.9,149.3c0.6,4,2.6,7.6,5.6,10.3C1248.4,5213.7,1252.3,5215.1,1256.3,5215.1L1256.3,5215.1z"/>
		<path class="st17" d="M1175.6,5209.6h2.3c2.2-0.3,4.3-1,6.2-2.1c1.9-1.1,3.5-2.6,4.9-4.3c1.3-1.8,2.3-3.8,2.8-5.9s0.7-4.3,0.4-6.5
			c0-3.5-11.2-86.9,55.9-113.4c4-1.7,7.2-4.9,8.9-9c1.7-4,1.7-8.6,0.1-12.6c-1.6-4.1-4.7-7.3-8.7-9.1c-4-1.8-8.5-2-12.6-0.5
			c-73.3,29-82.4,110.3-76.9,149.3c0.7,4,2.7,7.6,5.8,10.2C1167.7,5208.2,1171.6,5209.6,1175.6,5209.6L1175.6,5209.6z"/>
		<path class="st17" d="M1080.6,5204.6h2.3c4.4-0.7,8.4-3,11-6.6c2.7-3.5,3.9-8,3.3-12.4c0-3.5-11.2-86.9,55.9-113.4
			c2.1-0.8,4-1.9,5.7-3.5c1.6-1.5,3-3.4,3.9-5.4s1.4-4.2,1.5-6.5c0.1-2.2-0.3-4.5-1.2-6.5c-0.8-2.1-2-4-3.6-5.6s-3.4-2.9-5.5-3.7
			c-2.1-0.9-4.3-1.3-6.5-1.3s-4.5,0.5-6.5,1.3c-73.3,29.1-82.2,110.4-76.8,149.3c0.6,4,2.6,7.6,5.6,10.2
			S1076.6,5204.6,1080.6,5204.6L1080.6,5204.6z"/>
		<path class="st17" d="M2629.4,4954.5c3.1,0,6.1-0.9,8.8-2.5c2.6-1.6,4.8-3.9,6.2-6.7c0,0,16-28.9,69.8-59.2
			c3.6-2.3,6.2-5.9,7.2-10.1s0.4-8.6-1.6-12.3c-2.1-3.7-5.6-6.5-9.7-7.8c-4.1-1.3-8.5-0.9-12.4,1c-63.7,35.8-82.5,71.6-83.2,73.1
			c-2,3.9-2.4,8.5-1,12.7s4.3,7.7,8.2,9.7C2624.1,4953.6,2626.7,4954.4,2629.4,4954.5z"/>
		<path class="st17" d="M2556.1,4961.7c3.1,0,6.1-0.9,8.8-2.5c2.6-1.6,4.8-3.9,6.2-6.7c0,0,16-28.9,69.8-59.1
			c3.9-2.2,6.7-5.8,7.9-10.1c1.2-4.3,0.7-8.9-1.5-12.8s-5.8-6.7-10.1-7.9c-4.3-1.2-8.9-0.7-12.8,1.5c-63.7,35.8-82.5,71.6-83.2,73.2
			c-1.3,2.6-2,5.4-1.9,8.3s0.9,5.7,2.4,8.1c1.5,2.5,3.6,4.5,6.1,5.9S2553.2,4961.8,2556.1,4961.7L2556.1,4961.7z"/>
		<path class="st17" d="M2484.9,4973.2c3.1,0,6.1-0.9,8.7-2.5c2.6-1.6,4.7-3.9,6.1-6.7c0,0,16.1-28.9,69.8-59.2c2.1-1,4-2.4,5.5-4.1
			s2.7-3.8,3.4-6s1-4.5,0.8-6.8s-0.9-4.5-2.1-6.5c-1.1-2-2.7-3.8-4.5-5.2c-1.8-1.4-3.9-2.4-6.2-2.9s-4.6-0.6-6.9-0.2
			c-2.3,0.4-4.4,1.3-6.4,2.6c-63.7,35.8-82.6,71.6-83.4,73.1c-2,3.9-2.3,8.5-0.9,12.7c1.4,4.2,4.3,7.7,8.2,9.7
			C2479.5,4972.4,2482.2,4973.1,2484.9,4973.2L2484.9,4973.2z"/>
		
			<linearGradient id="SVGID_00000005960752089570144720000003165389113218791061_" gradientUnits="userSpaceOnUse" x1="52099.0664" y1="-19001.8105" x2="49154.8633" y2="-17894.1074" gradientTransform="matrix(-1 0 0 1 9000 4954.4678)">
			<stop  offset="0" style="stop-color:#FFFFFF"/>
			<stop  offset="1" style="stop-color:#C5DAF1"/>
		</linearGradient>
		<path style="fill:url(#SVGID_00000005960752089570144720000003165389113218791061_);" d="M1787.1,2895.8c0,0,103.1-4.4,117.6-4.4
			c14.4,0,81.2-45.4-18.4-67.1C1786.6,2802.7,1787.1,2895.8,1787.1,2895.8z"/>
		
			<linearGradient id="SVGID_00000178186444879066636990000006956419144230220935_" gradientUnits="userSpaceOnUse" x1="5261.4448" y1="-11323.459" x2="6074.4448" y2="-7634.959" gradientTransform="matrix(-1 0 0 1 9000 4954.4678)">
			<stop  offset="0" style="stop-color:#F6FAFE"/>
			<stop  offset="0.18" style="stop-color:#F1F7FD"/>
			<stop  offset="0.38" style="stop-color:#E4EEF9"/>
			<stop  offset="0.58" style="stop-color:#CEE0F3"/>
			<stop  offset="0.65" style="stop-color:#C5DAF1"/>
			<stop  offset="1" style="stop-color:#C5DAF1"/>
		</linearGradient>
		<path style="fill:url(#SVGID_00000178186444879066636990000006956419144230220935_);" d="M1887,2873.8l-26.8,9.8
			c-45.4,16.5-95.3,16.2-140.5-0.9l-177-67.1c-17.3-6.5-21.5-41.7,9.5-59.8c60.8-35.4,136.8-52.1,180.9-38.5
			c83,25.4,117.3,55.9,142.9,89.4C1889.6,2824.6,1904.4,2867.4,1887,2873.8z"/>
		<path class="st14" d="M2011.3,2124.4c9.6,0,19-2.8,27-8.2c8-5.3,14.2-12.9,17.9-21.8c3.7-8.9,4.6-18.7,2.8-28.1
			c-1.9-9.4-6.5-18.1-13.3-24.9c-6.8-6.8-15.5-11.4-24.9-13.3s-19.2-0.9-28.1,2.8c-8.9,3.7-16.5,9.9-21.8,17.9s-8.2,17.4-8.2,27
			c0,12.9,5.2,25.2,14.3,34.3C1986.1,2119.2,1998.4,2124.4,2011.3,2124.4z M2011.3,2038.3c7.4,0,14.6,2.2,20.8,6.3
			c6.2,4.1,10.9,10,13.8,16.8c2.8,6.8,3.6,14.4,2.1,21.6c-1.4,7.3-5,13.9-10.2,19.2c-5.2,5.2-11.9,8.8-19.2,10.2
			c-7.3,1.4-14.8,0.7-21.6-2.1c-6.8-2.8-12.7-7.6-16.8-13.8c-4.1-6.2-6.3-13.4-6.3-20.8c0-9.9,4-19.4,11-26.4
			C1991.9,2042.3,2001.4,2038.4,2011.3,2038.3z"/>
		<path class="st14" d="M1963.1,2173.4c1,0,2.1-0.3,2.9-0.9c0.9-0.6,1.6-1.3,2.1-2.2l27.9-55.9c0.3-0.7,0.5-1.4,0.6-2.1
			c0.1-0.7,0-1.5-0.3-2.2c-0.2-0.7-0.6-1.3-1.1-1.9s-1.1-1-1.7-1.3c-1.3-0.6-2.8-0.7-4.2-0.3c-1.4,0.5-2.6,1.4-3.2,2.7l-27.9,55.9
			c-0.3,0.7-0.5,1.4-0.6,2.1c0,0.7,0.1,1.5,0.3,2.2c0.2,0.7,0.6,1.3,1.1,1.9c0.5,0.6,1.1,1,1.7,1.3
			C1961.4,2173.2,1962.3,2173.4,1963.1,2173.4L1963.1,2173.4z"/>
		
			<linearGradient id="SVGID_00000145771495081764224470000009751167362614581909_" gradientUnits="userSpaceOnUse" x1="90808.6094" y1="-51162.4453" x2="66630.6094" y2="-37385.4492" gradientTransform="matrix(-1 0 0 1 9000 4954.4678)">
			<stop  offset="4.000000e-02" style="stop-color:#C5DAF1"/>
			<stop  offset="1" style="stop-color:#99BBE3"/>
		</linearGradient>
		<path style="fill:url(#SVGID_00000145771495081764224470000009751167362614581909_);" d="M1976.5,1593.6
			c-342-345.4,384.5-390.3,163.5-43.9c262.9-40.1,83.5,358.8-82.4,134.1C1839.9,1969.1,1764.3,1524.3,1976.5,1593.6z"/>
	</g>
</g>
</svg>
