<svg xmlns="http://www.w3.org/2000/svg" xmlns:xlink="http://www.w3.org/1999/xlink" width="997.02" height="567.102" viewBox="0 0 997.02 567.102">
  <defs>
    <linearGradient id="linear-gradient" x1="-0.761" y1="0.5" x2="0.239" y2="0.5" gradientUnits="objectBoundingBox">
      <stop offset="0" stop-color="#dae3fe"/>
      <stop offset="1" stop-color="#e9effd"/>
    </linearGradient>
    <linearGradient id="linear-gradient-2" x1="0.847" y1="0.099" x2="-0.449" y2="1.595" gradientUnits="objectBoundingBox">
      <stop offset="0" stop-color="#09005d"/>
      <stop offset="1" stop-color="#1a0f91"/>
    </linearGradient>
    <linearGradient id="linear-gradient-3" y1="0.5" x2="1" y2="0.5" gradientUnits="objectBoundingBox">
      <stop offset="0" stop-color="#4042e2"/>
      <stop offset="1" stop-color="#4f52ff"/>
    </linearGradient>
    <linearGradient id="linear-gradient-4" x1="0.497" y1="1.094" x2="0.493" y2="1.991" xlink:href="#linear-gradient-3"/>
    <linearGradient id="linear-gradient-5" x1="-0.039" y1="-1.294" x2="0.323" y2="-0.094" gradientUnits="objectBoundingBox">
      <stop offset="0" stop-color="#4042e2"/>
      <stop offset="0.333" stop-color="#4547ec"/>
      <stop offset="1" stop-color="#4f52ff"/>
    </linearGradient>
    <linearGradient id="linear-gradient-6" x1="0.899" y1="1.165" x2="0.043" y2="-0.157" gradientUnits="objectBoundingBox">
      <stop offset="0" stop-color="#e1473d"/>
      <stop offset="1" stop-color="#e9605a"/>
    </linearGradient>
    <linearGradient id="linear-gradient-7" x1="0.948" y1="-3.301" x2="0.534" y2="0.216" gradientUnits="objectBoundingBox">
      <stop offset="0" stop-color="#ff928e"/>
      <stop offset="1" stop-color="#feb3b1"/>
    </linearGradient>
    <linearGradient id="linear-gradient-8" x1="0.265" y1="0.534" x2="1.371" y2="0.383" xlink:href="#linear-gradient-6"/>
    <linearGradient id="linear-gradient-9" x1="0.66" y1="-15.283" x2="0.555" y2="-4.993" xlink:href="#linear-gradient-7"/>
    <linearGradient id="linear-gradient-10" x1="-1.487" y1="0.452" x2="8.756" y2="0.699" xlink:href="#linear-gradient-6"/>
    <linearGradient id="linear-gradient-11" y1="0.5" x2="1" y2="0.5" gradientUnits="objectBoundingBox">
      <stop offset="0" stop-color="#fe7062"/>
      <stop offset="1" stop-color="#ff928e"/>
    </linearGradient>
    <linearGradient id="linear-gradient-13" x1="-2.648" y1="2.581" x2="6.204" y2="-3.271" xlink:href="#linear-gradient-11"/>
    <linearGradient id="linear-gradient-14" x1="-2.648" y1="2.581" x2="6.204" y2="-3.271" xlink:href="#linear-gradient-11"/>
    <linearGradient id="linear-gradient-15" x1="-2.648" y1="2.581" x2="6.204" y2="-3.271" xlink:href="#linear-gradient-11"/>
    <linearGradient id="linear-gradient-16" x1="0.851" y1="-0.992" x2="1.358" y2="-3.147" xlink:href="#linear-gradient-2"/>
    <linearGradient id="linear-gradient-18" x1="1.73" y1="-0.13" x2="-1.657" y2="1.467" xlink:href="#linear-gradient-5"/>
    <linearGradient id="linear-gradient-19" x1="1.289" y1="0.127" x2="-2.098" y2="1.724" xlink:href="#linear-gradient-5"/>
    <linearGradient id="linear-gradient-20" x1="0.474" y1="1.053" x2="0.707" y2="-3.857" xlink:href="#linear-gradient-11"/>
    <linearGradient id="linear-gradient-21" x1="0" y1="0.5" x2="1" y2="0.5" xlink:href="#linear-gradient-5"/>
    <linearGradient id="linear-gradient-22" x1="0.772" y1="-6.693" x2="0.499" y2="0.843" xlink:href="#linear-gradient-2"/>
    <linearGradient id="linear-gradient-23" x1="0" y1="0.5" x2="1" y2="0.5" xlink:href="#linear-gradient-7"/>
    <linearGradient id="linear-gradient-25" x1="0.734" y1="-1.867" x2="0.424" y2="1.1" xlink:href="#linear-gradient-2"/>
    <linearGradient id="linear-gradient-26" x1="0.512" y1="0.373" x2="0.166" y2="1.109" xlink:href="#linear-gradient-2"/>
    <linearGradient id="linear-gradient-28" x1="0.328" y1="1.972" x2="0.517" y2="0.367" gradientUnits="objectBoundingBox">
      <stop offset="0" stop-color="#09005d"/>
      <stop offset="0.55" stop-color="#12087a"/>
      <stop offset="1" stop-color="#1a0f91"/>
    </linearGradient>
    <linearGradient id="linear-gradient-31" x1="0" y1="0.5" x2="1" y2="0.5" xlink:href="#linear-gradient-2"/>
    <linearGradient id="linear-gradient-32" y1="0.5" x2="1" y2="0.5" gradientUnits="objectBoundingBox">
      <stop offset="0" stop-color="#f9b776"/>
      <stop offset="1" stop-color="#f47960"/>
    </linearGradient>
    <linearGradient id="linear-gradient-33" x1="-8.14" y1="26.143" x2="-9.66" y2="27.481" xlink:href="#linear-gradient-7"/>
    <linearGradient id="linear-gradient-34" x1="-4.986" y1="16.951" x2="-3.964" y2="16.951" xlink:href="#linear-gradient-2"/>
    <linearGradient id="linear-gradient-35" x1="-26.74" y1="76.109" x2="-23.449" y2="73.753" xlink:href="#linear-gradient-7"/>
    <linearGradient id="linear-gradient-36" x1="-39.361" y1="70.274" x2="-39.319" y2="97.117" xlink:href="#linear-gradient-3"/>
    <linearGradient id="linear-gradient-37" x1="-129.411" y1="23.855" x2="-129.321" y2="26.289" xlink:href="#linear-gradient-3"/>
    <linearGradient id="linear-gradient-41" x1="0.511" y1="-0.055" x2="0.394" y2="7.991" xlink:href="#linear-gradient-2"/>
    <linearGradient id="linear-gradient-42" x1="0.387" y1="0.417" x2="1.045" y2="1.226" gradientUnits="objectBoundingBox">
      <stop offset="0" stop-color="#2b3582"/>
      <stop offset="1" stop-color="#150e42"/>
    </linearGradient>
    <linearGradient id="linear-gradient-43" x1="0.5" y1="0.899" x2="0.5" y2="2.579" xlink:href="#linear-gradient-11"/>
    <linearGradient id="linear-gradient-44" x1="0.336" y1="0.26" x2="1.697" y2="1.995" xlink:href="#linear-gradient-42"/>
    <linearGradient id="linear-gradient-45" x1="0.535" y1="0.274" x2="1.319" y2="-4.136" xlink:href="#linear-gradient-42"/>
    <linearGradient id="linear-gradient-46" x1="-0.199" y1="0.785" x2="1.522" y2="0.03" xlink:href="#linear-gradient-42"/>
    <linearGradient id="linear-gradient-47" x1="0.592" y1="1.243" x2="0.564" y2="1.027" xlink:href="#linear-gradient-11"/>
    <linearGradient id="linear-gradient-48" x1="1.029" y1="-0.36" x2="0.219" y2="1.01" xlink:href="#linear-gradient-2"/>
    <linearGradient id="linear-gradient-49" x1="0" y1="0.5" x2="1" y2="0.5" xlink:href="#linear-gradient"/>
    <linearGradient id="linear-gradient-50" x1="0.39" y1="-0.467" x2="0.567" y2="0.954" xlink:href="#linear-gradient-42"/>
    <linearGradient id="linear-gradient-52" x1="1.018" y1="-0.604" x2="0.278" y2="0.973" xlink:href="#linear-gradient-2"/>
    <linearGradient id="linear-gradient-53" x1="7.276" y1="-1.742" x2="-4.856" y2="2.272" xlink:href="#linear-gradient-3"/>
    <linearGradient id="linear-gradient-54" x1="3.264" y1="-2.519" x2="-0.575" y2="1.675" xlink:href="#linear-gradient-3"/>
    <linearGradient id="linear-gradient-55" x1="2.506" y1="-3.159" x2="0.376" y2="0.672" xlink:href="#linear-gradient-3"/>
    <linearGradient id="linear-gradient-56" x1="-0.281" y1="0.954" x2="1.881" y2="-0.303" xlink:href="#linear-gradient-5"/>
    <linearGradient id="linear-gradient-57" x1="0.507" y1="0.07" x2="0.761" y2="-21.386" xlink:href="#linear-gradient-5"/>
    <linearGradient id="linear-gradient-58" x1="0.258" y1="5.865" x2="0.454" y2="1.512" xlink:href="#linear-gradient-2"/>
    <linearGradient id="linear-gradient-59" x1="0.669" y1="0.613" x2="1.827" y2="1.149" xlink:href="#linear-gradient-7"/>
    <linearGradient id="linear-gradient-60" x1="0.532" y1="0.006" x2="0.327" y2="3.202" xlink:href="#linear-gradient-5"/>
    <linearGradient id="linear-gradient-61" x1="0.302" y1="-0.366" x2="0.461" y2="0.42" xlink:href="#linear-gradient-7"/>
    <linearGradient id="linear-gradient-62" x1="0.311" y1="2.213" x2="0.471" y2="0.817" xlink:href="#linear-gradient-3"/>
    <linearGradient id="linear-gradient-63" x1="0.554" y1="-2.158" x2="0.395" y2="6.275" xlink:href="#linear-gradient-5"/>
    <linearGradient id="linear-gradient-64" x1="0.469" y1="0.61" x2="1.09" y2="2.06" xlink:href="#linear-gradient-3"/>
    <linearGradient id="linear-gradient-65" x1="0.178" y1="0.041" x2="1.114" y2="1.912" xlink:href="#linear-gradient-7"/>
    <linearGradient id="linear-gradient-67" x1="20.635" y1="32.653" x2="19.118" y2="35.04" xlink:href="#linear-gradient-2"/>
    <linearGradient id="linear-gradient-69" x1="0.792" y1="-3.349" x2="0.528" y2="0.274" xlink:href="#linear-gradient-7"/>
    <linearGradient id="linear-gradient-70" x1="12.192" y1="30.618" x2="11.302" y2="32.76" xlink:href="#linear-gradient-2"/>
    <linearGradient id="linear-gradient-71" x1="0.554" y1="14.641" x2="-0.186" y2="17.077" xlink:href="#linear-gradient-2"/>
    <linearGradient id="linear-gradient-72" x1="0.733" y1="0.134" x2="0.333" y2="0.8" xlink:href="#linear-gradient-2"/>
  </defs>
  <g id="Group_95" data-name="Group 95" transform="translate(-116.105 -187.154)">
    <path id="Path_138" data-name="Path 138" d="M848.851,729.893s87.427-10.253,128.94-2.247,144.345-35.429,110.264-103.605-77.268-84.936-32.683-122.215,63.2-133.765,17.235-173.664-59.807,1.153-96.43-13.541,9.881-91.342-93.58-113-183.855,43.788-230.9,36.4-119.372-52.707-170.137-50.8-44.469,68.618-111.831,64.729S249.49,241.335,205.851,298.124,172.707,426.941,214.312,455.4s33.487,66.743-43.224,68.938-68.07,81.59-5.473,140.2,116.3,59.261,178.823,63.1S848.851,729.893,848.851,729.893Z" transform="translate(0 0)" opacity="0.2" fill="url(#linear-gradient)"/>
    <g id="Group_47" data-name="Group 47" transform="translate(721.897 433.988)">
      <path id="Path_139" data-name="Path 139" d="M1481.687,1003.788a1.5,1.5,0,0,1-2.7-1.319c15.565-33.992,10.426-18.9,23.563-47.882,32.842-72.458,20.66-112.478,26.94-152.943s46.206-81.62,106.687-45.1c49.39,29.819,88.623,51.911,109.209,55.286a4.953,4.953,0,0,1,2.715,8.346c-18.415,18.906-65.214,60.013-114.84,48.761-63.88-14.484-59.362-31.8-77.7-19.422s-22.789,28.808-31.4,59.536C1516.754,935.513,1516.2,937.508,1481.687,1003.788Z" transform="translate(-1478.831 -742.406)" fill="#bdd0fb"/>
      <path id="Path_140" data-name="Path 140" d="M1585.691,939a129.494,129.494,0,0,1-.128-15.6,136.021,136.021,0,0,1,1.6-15.475,98.3,98.3,0,0,1,9.516-29.747,65.4,65.4,0,0,1,9-13.019,53.826,53.826,0,0,1,12.213-10.2,59.242,59.242,0,0,1,14.619-6.165c2.508-.645,5-1.336,7.547-1.844,2.523-.594,5.086-1.014,7.644-1.454a116.51,116.51,0,0,1,15.535-1.355,96.309,96.309,0,0,1,15.577,1.126,100.524,100.524,0,0,1,15.152,3.611c4.936,1.577,9.743,3.467,14.467,5.476,9.443,4.036,18.625,8.442,28.125,12a132.046,132.046,0,0,0,29.381,7.532h.006a.868.868,0,0,1-.209,1.723,134.261,134.261,0,0,1-30.046-6.85c-9.734-3.354-19.057-7.667-28.477-11.458-9.407-3.807-19.025-6.979-28.947-8.371a92.46,92.46,0,0,0-14.96-.885,112.435,112.435,0,0,0-14.945,1.5c-2.469.459-4.941.9-7.384,1.505-2.459.523-4.879,1.231-7.309,1.888a55.334,55.334,0,0,0-13.486,5.776c-8.363,5.113-14.9,12.847-19.458,21.6a94.12,94.12,0,0,0-9.12,28.353,144.485,144.485,0,0,0-1.7,14.97,125.854,125.854,0,0,0-.068,15.016l0,.079a2.081,2.081,0,0,1-4.153.276Z" transform="translate(-1538.019 -798.912)" fill="#dce5fe"/>
    </g>
    <g id="Group_48" data-name="Group 48" transform="translate(358.242 193.653)">
      <path id="Path_141" data-name="Path 141" d="M783.521,447.759s-3.177-55.18-29.744-67.854-75.549-17.961-83.8-96.894c-4.83-46.211-7.624-66.36-9.111-75.124a5.23,5.23,0,0,1,5.7-6.084c24.393,2.569,103.954,14.839,124.656,66.775C815.768,330.148,783.521,447.759,783.521,447.759Z" transform="translate(-660.792 -201.773)" fill="#91b3fa"/>
      <path id="Path_142" data-name="Path 142" d="M717.477,247.238a233.251,233.251,0,0,1,22.532,19.624l2.663,2.619,2.6,2.676c1.742,1.78,3.479,3.566,5.156,5.407,3.414,3.631,6.656,7.413,9.933,11.172,3.171,3.845,6.382,7.664,9.373,11.657,3.088,3.92,5.984,7.983,8.89,12.043a280.651,280.651,0,0,1,15.919,25.424c1.185,2.227,2.4,4.437,3.559,6.679l3.121,6.886,1.558,3.444,1.352,3.526,2.654,7.07,2.258,7.2,1.12,3.6.937,3.649c.615,2.435,1.271,4.86,1.823,7.308l1.486,7.378a215.909,215.909,0,0,1,3,59.867,2.156,2.156,0,0,1-4.3-.277l0-.136a225.615,225.615,0,0,0-.875-29.228,265.6,265.6,0,0,0-4.281-28.95l-1.579-7.134c-.589-2.361-1.256-4.7-1.864-7.058l-.936-3.527-1.115-3.471-2.239-6.937-2.605-6.8-1.292-3.4-1.493-3.315-2.983-6.632c-1.1-2.154-2.272-4.277-3.4-6.417-2.175-4.307-4.828-8.46-7.3-12.675-1.227-2.118-2.625-4.13-3.928-6.2-1.347-2.044-2.6-4.147-4.026-6.142-5.434-8.152-11.287-16.019-17.3-23.768-3.081-3.816-6.144-7.651-9.357-11.363-1.563-1.894-3.188-3.734-4.818-5.57l-2.438-2.763-2.5-2.707c-6.63-7.236-13.561-14.281-20.823-20.83l-.036-.033a1.224,1.224,0,0,1,1.553-1.889Z" transform="translate(-691.191 -226.892)" fill="#dce5fe"/>
    </g>
    <g id="Group_49" data-name="Group 49" transform="translate(262.165 342.6)">
      <path id="Path_143" data-name="Path 143" d="M670.263,879.833c5.182,2.962-46.33-70.99-56.847-182.667-4.956-52.626-.919-117.911-29-144.95-23.372-22.505-108.264-14.623-136.085-11.346a4.132,4.132,0,0,0-2.377,7.094c12.485,11.914,39.04,39.832,44.72,66.629,7.486,35.321,39.08,59.49,68.24,67.34s45.224,14.69,56.616,62.844S655.539,871.417,670.263,879.833Z" transform="translate(-444.667 -536.829)" fill="#bdd0fb"/>
      <path id="Path_144" data-name="Path 144" d="M536.894,584.609s.846.064,2.393.252,3.823.492,6.686,1.033,6.326,1.278,10.253,2.32a132.59,132.59,0,0,1,13.011,4.135,134.658,134.658,0,0,1,14.789,6.588,113.231,113.231,0,0,1,15.384,9.591,100.484,100.484,0,0,1,14.4,13.081,91.911,91.911,0,0,1,11.722,16.371l1.212,2.229c.415.737.806,1.487,1.147,2.26.713,1.544,1.438,3.03,2.113,4.628l3.68,9.114c2.447,6.032,4.83,11.978,7.112,17.742l3.376,8.485c.574,1.375,1.051,2.779,1.538,4.159l1.442,4.087,5.314,15.161,2.34,6.741,1.889,6.152,3.055,10c.882,2.758,1.41,4.989,1.831,6.485l.619,2.3a.842.842,0,0,1-1.609.49l-.011-.032-.757-2.246c-.505-1.462-1.187-3.615-2.177-6.334l-3.5-9.814q-1.014-2.839-2.153-6.032l-2.548-6.627-5.687-14.92c-1.027-2.642-1.982-5.382-3.139-8.134l-3.49-8.438c-2.379-5.725-4.813-11.651-7.261-17.682l-3.711-9.1c-.61-1.433-1.346-2.91-2-4.372-.321-.741-.69-1.458-1.083-2.164l-1.145-2.134a93.366,93.366,0,0,0-24.769-28.5,116.6,116.6,0,0,0-14.683-9.675,131.644,131.644,0,0,0-14.272-6.829c-4.553-1.838-8.8-3.367-12.618-4.551s-7.2-2.073-10-2.725-5.012-1.106-6.526-1.375-2.317-.381-2.317-.381a.676.676,0,0,1,.138-1.345Z" transform="translate(-495.488 -563.367)" fill="#dce5fe"/>
    </g>
    <g id="Group_50" data-name="Group 50" transform="translate(693.675 276.17)">
      <path id="Path_145" data-name="Path 145" d="M1415.711,730.4c-5.182,2.962,46.33-70.99,56.847-182.667,4.956-52.626.919-117.911,29-144.95,23.372-22.5,108.265-14.623,136.086-11.346a4.133,4.133,0,0,1,2.377,7.094c-12.485,11.913-39.04,39.831-44.72,66.629-7.486,35.321-39.081,59.491-68.24,67.34s-45.224,14.69-56.616,62.844S1430.435,721.982,1415.711,730.4Z" transform="translate(-1415.345 -387.394)" fill="#bdd0fb"/>
      <path id="Path_146" data-name="Path 146" d="M1548.162,588.7a1.831,1.831,0,0,1-1.762-2.328c.1-.354,10.271-35.981,33.6-90.616,6.845-16.033,22-38.188,55.309-52.684a137.892,137.892,0,0,1,37.237-10.5,1.83,1.83,0,0,1,.373,3.641c-.664.068-66.712,7.474-89.553,60.975-23.235,54.423-33.342,89.825-33.441,90.177A1.831,1.831,0,0,1,1548.162,588.7Z" transform="translate(-1488.102 -412.486)" fill="#dce5fe"/>
    </g>
    <g id="Group_51" data-name="Group 51" transform="translate(220.173 481.788)">
      <path id="Path_147" data-name="Path 147" d="M568.6,1062.264c3.18,1.676-17.914-34.631-19.532-66.618s-8.835-86.583-36.419-119.241-57.792-35.638-95.855-5.948c-31.719,24.741-51.5,37.227-63.108,39.548a4.384,4.384,0,0,0-2.942,6.393c7.443,13.705,28.484,45.187,63.813,42.971,45.065-2.827,99.68-32.122,116.326-7.684s14.509,38.113,15.02,49.695S547.552,1051.167,568.6,1062.264Z" transform="translate(-350.206 -849.93)" fill="#91b3fa"/>
      <path id="Path_148" data-name="Path 148" d="M528.595,954.568a89.434,89.434,0,0,1,7.844-6.611c2.72-2.068,5.524-4.04,8.447-5.835a84.439,84.439,0,0,1,18.682-8.83,58.748,58.748,0,0,1,10.239-2.312,43.768,43.768,0,0,1,10.634-.044c.884.143,1.778.227,2.654.424s1.77.372,2.613.613l4.978,1.546,4.873,1.9,4.724,2.271a59.411,59.411,0,0,1,16.453,12.878A73.669,73.669,0,0,1,632.107,967.9l1.13,2.321c.388.769.669,1.582,1.009,2.37.639,1.593,1.328,3.167,1.924,4.772l1.667,4.855c.59,1.607.964,3.278,1.439,4.916a177.214,177.214,0,0,1,4.267,19.951.751.751,0,0,1-1.469.3l-.006-.025c-1.609-6.55-3.146-13.111-5.343-19.453-1-3.2-2.257-6.3-3.427-9.432-.63-1.545-1.349-3.05-2.017-4.575-.353-.753-.65-1.535-1.049-2.264l-1.162-2.2a75.156,75.156,0,0,0-11.256-16.194,57.69,57.69,0,0,0-15.506-11.819l-4.431-2.1-4.592-1.756-4.718-1.435c-.783-.222-1.547-.368-2.321-.559s-1.567-.257-2.35-.393a39.48,39.48,0,0,0-9.6-.027,55,55,0,0,0-9.572,1.932,92.57,92.57,0,0,0-18.26,7.741c-2.917,1.615-5.812,3.3-8.622,5.122s-5.571,3.76-8.212,5.783l-.019.015a.78.78,0,0,1-1.015-1.182Z" transform="translate(-449.16 -894.757)" fill="#dce5fe"/>
    </g>
    <g id="Group_52" data-name="Group 52" transform="translate(294.609 606.866)">
      <path id="Path_149" data-name="Path 149" d="M711.657,1212.388s-48.037,58.234-95.345,31.381c-43.974-24.96-54.239-62.547-92.527-60.539a5.866,5.866,0,0,1-5.56-8.382c7.562-15.873,28.793-45.749,80.912-43.427C669.851,1134.571,711.657,1212.388,711.657,1212.388Z" transform="translate(-517.649 -1131.293)" fill="#bdd0fb"/>
      <path id="Path_150" data-name="Path 150" d="M736.341,1239.965a37.776,37.776,0,0,1-11.525,1.024,66.5,66.5,0,0,1-11.414-1.45,110.179,110.179,0,0,1-21.786-7.142l-5.216-2.375-5.082-2.635c-1.711-.849-3.348-1.826-5-2.782s-3.307-1.9-4.938-2.88c-6.464-4.014-12.745-8.3-18.911-12.684-6.178-4.37-12.225-8.887-18.491-12.98-6.245-4.092-12.723-7.886-19.771-10.006a39.786,39.786,0,0,0-10.805-1.746,42.939,42.939,0,0,0-10.922,1.274c-7.2,1.787-13.919,5.32-20.3,9.267l-.007,0a.483.483,0,0,1-.533-.805c6.188-4.367,12.9-8.21,20.315-10.4a41.5,41.5,0,0,1,11.46-1.736,42.283,42.283,0,0,1,11.534,1.558c7.513,2.072,14.353,5.806,20.779,9.869,6.437,4.091,12.585,8.509,18.772,12.816,12.325,8.67,24.961,16.826,38.526,23.1a124.681,124.681,0,0,0,20.981,7.621,77.725,77.725,0,0,0,10.953,2.026,49.161,49.161,0,0,0,5.552.3,29.939,29.939,0,0,0,5.469-.435l.072-.014a.624.624,0,0,1,.284,1.214Z" transform="translate(-547.527 -1159.411)" fill="#dce5fe"/>
    </g>
    <g id="Group_54" data-name="Group 54" transform="translate(380.132 281.725)">
      <path id="Path_151" data-name="Path 151" d="M1172.3,632.356c0,126.093-102.219,228.312-228.312,228.312S710.032,753.982,710.032,627.89,817.9,404.044,943.991,404.044,1172.3,506.263,1172.3,632.356Z" transform="translate(-710.032 -402.197)" fill="url(#linear-gradient-2)"/>
      <g id="Group_53" data-name="Group 53" transform="translate(17.424 12.266)">
        <path id="Path_152" data-name="Path 152" d="M749.728,755.357a.5.5,0,0,1-.129-.016.5.5,0,0,1-.355-.613,205.1,205.1,0,0,1,9.278-27.058.5.5,0,1,1,.922.391,204.007,204.007,0,0,0-9.232,26.925A.5.5,0,0,1,749.728,755.357Z" transform="translate(-749.227 -594.053)" fill="#fff"/>
        <path id="Path_153" data-name="Path 153" d="M828.216,517.438a.5.5,0,0,1-.4-.8c42.1-55.825,109.913-89.154,181.407-89.154a216.32,216.32,0,0,1,87.753,18.392.5.5,0,0,1-.4.917,215.318,215.318,0,0,0-87.349-18.308c-71.181,0-138.7,33.18-180.608,88.756A.5.5,0,0,1,828.216,517.438Z" transform="translate(-792.824 -427.482)" fill="#fff"/>
      </g>
      <path id="Path_154" data-name="Path 154" d="M1180.052,670.694c0,109.148-88.481,197.629-197.629,197.629s-202.517-92.347-202.517-201.5,93.37-193.763,202.517-193.763S1180.052,561.547,1180.052,670.694Z" transform="translate(-748.844 -440.535)" fill="url(#linear-gradient-3)"/>
      <path id="Path_155" data-name="Path 155" d="M1244.3,670.694c0-109.147-88.481-197.629-197.629-197.629-59.1,0-113.571,24.82-151.1,64.9L1047.8,664.639l31.3,201.019C1172.814,850.183,1244.3,768.793,1244.3,670.694Z" transform="translate(-813.087 -440.535)" fill="url(#linear-gradient-4)"/>
      <path id="Path_156" data-name="Path 156" d="M1158.925,663.869c0,98.5-81.512,178.356-182.062,178.356S790.3,758.883,790.3,660.38s86.015-174.867,186.565-174.867S1158.925,565.366,1158.925,663.869Z" transform="translate(-754.616 -447.45)" fill="url(#linear-gradient-5)"/>
      <path id="Path_157" data-name="Path 157" d="M855.526,874.455a15.215,15.215,0,1,1-14.305-16.074A15.215,15.215,0,0,1,855.526,874.455Z" transform="translate(-773.958 -654.547)" fill="#fff" opacity="0.78"/>
      <path id="Path_158" data-name="Path 158" d="M1594.973,917.494a15.215,15.215,0,1,1-14.306-16.074A15.215,15.215,0,0,1,1594.973,917.494Z" transform="translate(-1184.689 -678.453)" fill="#fff" opacity="0.78"/>
      <path id="Path_159" data-name="Path 159" d="M1146.247,1244.443a15.215,15.215,0,1,1-17.7,12.234A15.215,15.215,0,0,1,1146.247,1244.443Z" transform="translate(-942.359 -868.862)" fill="#fff" opacity="0.78"/>
      <path id="Path_160" data-name="Path 160" d="M1279.335,515.8a15.215,15.215,0,1,1-17.7,12.234A15.215,15.215,0,0,1,1279.335,515.8Z" transform="translate(-1016.283 -464.133)" fill="#fff" opacity="0.78"/>
      <path id="Path_161" data-name="Path 161" d="M1401.673,1256.754c1.546,3.9,1.16,7.554-.863,8.159s-4.916-2.067-6.462-5.968-1.16-7.554.863-8.159S1400.127,1252.854,1401.673,1256.754Z" transform="translate(-1089.613 -872.477)" fill="#fff" opacity="0.78"/>
      <path id="Path_162" data-name="Path 162" d="M1104.193,565.635c1.546,3.9,1.16,7.554-.863,8.159s-4.916-2.067-6.462-5.968-1.16-7.554.863-8.159S1102.646,561.734,1104.193,565.635Z" transform="translate(-924.375 -488.591)" fill="#fff" opacity="0.78"/>
      <path id="Path_163" data-name="Path 163" d="M1555.911,1129.748c3.347,2.531,4.913,5.854,3.5,7.421s-5.275.786-8.622-1.745-4.913-5.854-3.5-7.421S1552.564,1127.217,1555.911,1129.748Z" transform="translate(-1174.802 -803.875)" fill="#fff" opacity="0.78"/>
      <path id="Path_164" data-name="Path 164" d="M942.828,693.548c3.346,2.531,4.913,5.854,3.5,7.421s-5.275.786-8.622-1.745-4.914-5.854-3.5-7.421S939.481,691.017,942.828,693.548Z" transform="translate(-834.261 -561.586)" fill="#fff" opacity="0.78"/>
      <path id="Path_165" data-name="Path 165" d="M1579.78,740.035c3.789-1.8,7.46-1.663,8.2.315s-1.733,5.043-5.522,6.848-7.459,1.663-8.2-.315S1575.991,741.839,1579.78,740.035Z" transform="translate(-1189.999 -588.122)" fill="#fff" opacity="0.78"/>
      <path id="Path_166" data-name="Path 166" d="M910.135,1083.134c3.789-1.8,7.46-1.663,8.2.315s-1.733,5.044-5.522,6.848-7.459,1.663-8.2-.315S906.347,1084.938,910.135,1083.134Z" transform="translate(-818.041 -778.699)" fill="#fff" opacity="0.78"/>
      <path id="Path_167" data-name="Path 167" d="M1442.69,589.923c2.3-3.51,5.511-5.295,7.17-3.988s1.138,5.21-1.163,8.719-5.512,5.295-7.17,3.988S1440.389,593.431,1442.69,589.923Z" transform="translate(-1115.806 -502.992)" fill="#fff" opacity="0.78"/>
      <path id="Path_168" data-name="Path 168" d="M1048.529,1230.843c2.3-3.509,5.511-5.294,7.17-3.987s1.138,5.21-1.164,8.719-5.511,5.294-7.17,3.988S1046.228,1234.353,1048.529,1230.843Z" transform="translate(-896.867 -858.995)" fill="#fff" opacity="0.78"/>
      <path id="Path_169" data-name="Path 169" d="M1059.408,618.337,994.753,498.023a3.5,3.5,0,0,1,3.082-5.155h15.741a3.5,3.5,0,0,0,2.554-5.89l-80.468-85.964a3.5,3.5,0,0,0-5.952,3.226L957.47,517.27a3.5,3.5,0,0,0,5.963,1.545l12.728-13.719a3.5,3.5,0,0,1,5.543.543l71.642,116.192a3.5,3.5,0,0,0,4.746,1.183h0A3.5,3.5,0,0,0,1059.408,618.337Z" transform="translate(-831.992 -399.89)" fill="url(#linear-gradient-6)"/>
      <path id="Path_170" data-name="Path 170" d="M969.517,518.264a.5.5,0,0,1-.495-.432c-.151-.954-8.2-33.341-21.538-86.646a1.94,1.94,0,0,1,3.34-1.748l16.57,18.843a.5.5,0,0,1-.752.661L950.073,430.1a.939.939,0,0,0-1.618.846c6.43,25.7,21.4,85.6,21.559,86.753a.5.5,0,0,1-.429.562A.383.383,0,0,1,969.517,518.264Z" transform="translate(-841.892 -415.932)" fill="url(#linear-gradient-7)"/>
      <path id="Path_171" data-name="Path 171" d="M1231.538,862.136l119.447-3.883a3.5,3.5,0,0,1,3.159,5.107l-7.241,13.977a3.5,3.5,0,0,0,4.055,4.978l113.344-31.9a3.5,3.5,0,0,0-.126-6.77L1351.045,816.3a3.5,3.5,0,0,0-4.115,4.584l6.327,17.613a3.5,3.5,0,0,1-3.033,4.672l-119,11.985a3.5,3.5,0,0,0-3.234,3.669h0A3.5,3.5,0,0,0,1231.538,862.136Z" transform="translate(-997.732 -631.128)" fill="url(#linear-gradient-8)"/>
      <path id="Path_172" data-name="Path 172" d="M1595.566,866.265a.5.5,0,0,1-.12-.986l24.352-6.044a.939.939,0,0,0-.005-1.826c-25.777-6.112-85.849-20.371-86.947-20.764a.5.5,0,0,1,.335-.943c1.34.449,66.808,15.983,86.843,20.734a1.94,1.94,0,0,1,.016,3.77l-24.352,6.044A.519.519,0,0,1,1595.566,866.265Z" transform="translate(-1166.884 -641.948)" fill="url(#linear-gradient-9)"/>
      <path id="Path_173" data-name="Path 173" d="M1229.117,884.457a16.25,16.25,0,1,1-16.25-16.25A16.251,16.251,0,0,1,1229.117,884.457Z" transform="translate(-980.308 -660.019)" fill="url(#linear-gradient-10)"/>
    </g>
    <g id="Group_58" data-name="Group 58" transform="translate(732.571 193.653)">
      <g id="Group_57" data-name="Group 57" transform="translate(14.01 12.084)">
        <g id="Group_55" data-name="Group 55">
          <path id="Path_174" data-name="Path 174" d="M1984.679,945.683a49.957,49.957,0,0,0,13.459-34.61v-28.71l-73.05-2.192-73.051,2.192v28.71c0,12.879,4.365,25.267,13.228,34.61l37.451,39.78a10.627,10.627,0,0,1-.144,14.627l-37.235,39.78c-8.864,9.343-13.3,21.731-13.3,34.61v28.71l73.051,2.192,73.05-2.192v-28.71a49.955,49.955,0,0,0-13.459-34.61l-37.567-39.78a10.626,10.626,0,0,1-.086-14.627Z" transform="translate(-1852.037 -880.172)" fill="#7d97f4"/>
          <path id="Path_175" data-name="Path 175" d="M1966.67,1029.694s-19.367-14.009-22.281-36.918c2.914-22.91,22.281-36.918,22.281-36.918,46.781-32.877,29.3-73.49,29.3-73.49l-63.83-2.2-63.525,2.2s-17.331,40.612,29.45,73.49c0,0,19.5,14.008,22.432,36.918-2.934,22.91-22.432,36.918-22.432,36.918-46.781,32.877-29.45,73.489-29.45,73.489l63.525,2.2,63.83-2.2S2013.451,1062.572,1966.67,1029.694Z" transform="translate(-1859.5 -880.172)" fill="#bdd0fb"/>
        </g>
        <g id="Group_56" data-name="Group 56" transform="translate(15.285 39.953)">
          <path id="Path_176" data-name="Path 176" d="M1934.486,1014.425a25.555,25.555,0,0,1,10.193,12.763c.126.349.244.992.352,1.334a3.541,3.541,0,0,0,3.1,2.566h.039a5.681,5.681,0,0,0,4.993-3.824,25.2,25.2,0,0,1,9.909-12.313c34.186-22.268,40.886-44.9,40.886-44.9H1893.816S1900.488,992.221,1934.486,1014.425Z" transform="translate(-1890.528 -970.045)" fill="url(#linear-gradient-11)"/>
          <path id="Path_177" data-name="Path 177" d="M1959.454,1260.118a27.393,27.393,0,0,1-10.353-12.965c-.24-.616-.46-1.339-.652-1.939a3.611,3.611,0,0,0-3.39-2.53,5.49,5.49,0,0,0-5.17,3.571,27.894,27.894,0,0,1-10.5,13.593c-35.922,23.424-42.966,47.765-42.966,47.765h115.892S1995.283,1283.5,1959.454,1260.118Z" transform="translate(-1886.42 -1121.483)" fill="url(#linear-gradient-11)"/>
        </g>
        <path id="Path_178" data-name="Path 178" d="M2015.846,1123.768a2.774,2.774,0,1,1-2.774-2.774A2.774,2.774,0,0,1,2015.846,1123.768Z" transform="translate(-1939.944 -1013.938)" fill="url(#linear-gradient-13)"/>
        <path id="Path_179" data-name="Path 179" d="M2025.5,1167.423a2.055,2.055,0,1,1-2.055-2.055A2.055,2.055,0,0,1,2025.5,1167.423Z" transform="translate(-1946.106 -1038.586)" fill="url(#linear-gradient-14)"/>
        <path id="Path_180" data-name="Path 180" d="M2007.012,1200.7a2.055,2.055,0,1,1-2.055-2.055A2.055,2.055,0,0,1,2007.012,1200.7Z" transform="translate(-1935.836 -1057.071)" fill="url(#linear-gradient-15)"/>
      </g>
      <rect id="Rectangle_85" data-name="Rectangle 85" width="174.121" height="21.015" rx="10.507" transform="translate(0 0)" fill="url(#linear-gradient-16)"/>
      <rect id="Rectangle_86" data-name="Rectangle 86" width="174.121" height="21.015" rx="10.507" transform="translate(0 233.161)" fill="url(#linear-gradient-16)"/>
    </g>
    <g id="Group_69" data-name="Group 69" transform="translate(223.894 519.542)">
      <g id="Group_59" data-name="Group 59" transform="translate(0 144.665)">
        <path id="Path_181" data-name="Path 181" d="M369.038,1286.807c-1.6,2.368-7.962,55.995-8.958,75.8a2.343,2.343,0,0,0,2.345,2.456h0a2.347,2.347,0,0,0,2.319-1.985l11.636-74.566Z" transform="translate(-359.41 -1275.015)" fill="url(#linear-gradient-18)"/>
        <path id="Path_182" data-name="Path 182" d="M486.117,1286.807c1.6,2.368,7.962,55.995,8.958,75.8a2.342,2.342,0,0,1-2.345,2.456h0a2.347,2.347,0,0,1-2.319-1.985l-11.636-74.566Z" transform="translate(-425.341 -1275.015)" fill="url(#linear-gradient-19)"/>
        <path id="Path_183" data-name="Path 183" d="M358.581,1267.887l-.005.585c-.039,4.207,3.586,7.658,8.124,7.735l53.783.915c4.473.076,8.2-3.156,8.419-7.3l.028-.535c.226-4.32-3.442-7.959-8.107-8.042l-53.806-.964C362.412,1260.2,358.62,1263.618,358.581,1267.887Z" transform="translate(-358.575 -1260.281)" fill="url(#linear-gradient-20)"/>
      </g>
      <g id="Group_64" data-name="Group 64" transform="translate(7.307 0)">
        <g id="Group_60" data-name="Group 60" transform="translate(81.55 220.54)">
          <path id="Path_184" data-name="Path 184" d="M574.36,1450.979c-9.561,0-13.791-.821-15.683-1.568a3.627,3.627,0,0,0,3.533,2.809h33.823a1.645,1.645,0,0,0,1.586-2.077C593.764,1450.453,585.575,1450.979,574.36,1450.979Z" transform="translate(-558.58 -1441.21)" fill="url(#linear-gradient-21)"/>
          <path id="Path_185" data-name="Path 185" d="M597.5,1439.9a1.6,1.6,0,0,0-.277-.576c-2.577-3.289-7.752-8.455-14.793-8.356-10.313.145-13.91,1.264-21.924.063l-1.891,6.267a3.6,3.6,0,0,0-.057,1.87c1.892.748,6.122,1.568,15.683,1.568C585.454,1440.732,593.643,1440.206,597.5,1439.9Z" transform="translate(-558.46 -1430.963)" fill="url(#linear-gradient-22)"/>
        </g>
        <path id="Path_186" data-name="Path 186" d="M565.38,1415.915l-2.321,7.893s5.142,2.341,9.664.462l.888-6.839Z" transform="translate(-479.464 -1202.064)" fill="url(#linear-gradient-23)"/>
        <g id="Group_61" data-name="Group 61" transform="translate(139.262 209.13)">
          <path id="Path_187" data-name="Path 187" d="M709.478,1422.742c-7.453,5.988-11.262,8-13.2,8.606a3.623,3.623,0,0,0,4.506-.033l26.366-21.185a1.639,1.639,0,0,0-.059-2.605C724.277,1410.18,718.221,1415.717,709.478,1422.742Z" transform="translate(-692.722 -1406.534)" fill="url(#linear-gradient-21)"/>
          <path id="Path_188" data-name="Path 188" d="M722.649,1406.286a1.582,1.582,0,0,0-.575-.273c-4.059-.938-11.314-1.7-16.74,2.782-7.95,6.573-10.055,9.693-17.052,13.781l2.433,6.047a3.561,3.561,0,0,0,1.121,1.486c1.941-.6,5.75-2.618,13.2-8.606C713.781,1414.479,719.837,1408.942,722.649,1406.286Z" transform="translate(-688.282 -1405.295)" fill="url(#linear-gradient-25)"/>
        </g>
        <path id="Path_189" data-name="Path 189" d="M442.826,1213.609s57.24,4.674,68.983,10.2-9.583,83-9.583,83-3.2,1.539-10.31-.672c0,0,7.294-57.173,1.867-69.571l-61.977-10.137Z" transform="translate(-406.559 -1089.692)" fill="url(#linear-gradient-26)"/>
        <path id="Path_190" data-name="Path 190" d="M675.488,1415.47c.532.484,5.688,10.883,5.688,10.883s5.74-1.242,6.91-4.874l-5.165-9.385Z" transform="translate(-541.913 -1199.941)" fill="url(#linear-gradient-23)"/>
        <path id="Path_191" data-name="Path 191" d="M376.8,1212.533a28.992,28.992,0,0,0-1.789,10.453,15.694,15.694,0,0,0,14.976,15.354l67.668,3.085a3.246,3.246,0,0,1,3,2.439c1.591,6.151,9.363,25.038,47.356,62.727a3.065,3.065,0,0,0,3.79.413l5.408-3.417a1.245,1.245,0,0,0,.409-1.682l-39.4-67.281a15.248,15.248,0,0,0-9.265-6.871l-57.674-14.743Z" transform="translate(-375.013 -1089.094)" fill="url(#linear-gradient-28)"/>
        <path id="Path_192" data-name="Path 192" d="M522.576,979.511s-19.064,11.307-26.455,17.516l15.276,8.523s8.255-9.536,16.12-13.509Z" transform="translate(-442.283 -959.661)" fill="url(#linear-gradient-23)"/>
        <path id="Path_193" data-name="Path 193" d="M376.278,1102.781s18.268,4.452,35.7,0c0,0,24.4-32.8,33.838-41.726,0,0,15.057,23.759,48.57,27.126L496.26,1084s-26.68-12.3-34.894-31.2-11.512-26.958-18.985-31.888c-4.654-3.071-7.44-5.168-8.88-6.314a2.389,2.389,0,0,0-2.737-.174C422.834,1019.265,385.519,1044.821,376.278,1102.781Z" transform="translate(-375.716 -978.864)" fill="url(#linear-gradient-21)"/>
        <g id="Group_62" data-name="Group 62" transform="translate(59.306 63.773)">
          <path id="Path_194" data-name="Path 194" d="M518.229,1095.879a.778.778,0,0,1-.619-.305,73.972,73.972,0,0,1-9.137-16.2.78.78,0,1,1,1.456-.559,72.247,72.247,0,0,0,8.918,15.81.779.779,0,0,1-.618,1.254Z" transform="translate(-508.421 -1078.315)" fill="url(#linear-gradient-31)"/>
        </g>
        <path id="Path_195" data-name="Path 195" d="M637.439,1161.724l3.772-1.006,11.454-2.652a5.311,5.311,0,0,1,4.026.679l9.848,6.2-27.2-.046Z" transform="translate(-520.779 -1058.764)" fill="url(#linear-gradient-32)"/>
        <g id="Group_63" data-name="Group 63" transform="translate(71.697)">
          <path id="Path_196" data-name="Path 196" d="M574.208,956.543c.053.369-4.882,24.554-4.882,24.554l-13.749-3.111,1.272-23.617S573.316,950.357,574.208,956.543Z" transform="translate(-547.005 -944.985)" fill="url(#linear-gradient-33)"/>
          <path id="Path_197" data-name="Path 197" d="M549.491,949.5l-1.643,12.381a1.742,1.742,0,0,0,0,.474c.139.97.861,4.274,4.2,3.33,3.026-.857,5.8-1.595,7.717-1.008a1.743,1.743,0,0,1,1.2,2.017,75.386,75.386,0,0,1-3.165,11.269,1.74,1.74,0,0,1-2.112,1.029,56.2,56.2,0,0,1-12.12-4.959,1.745,1.745,0,0,1-.85-1.57c.132-3.126.5-12.626.19-15.289-.289-2.5-3.357-4-4.69-4.534a1.713,1.713,0,0,1-.954-.958c-.618-1.547-1.468-5.126,3.042-6.592a1.747,1.747,0,0,0,1.106-2.259c-.668-1.86-.95-4.7,2.54-6.262,3.547-1.589,6.2.3,7.626,1.838a1.745,1.745,0,0,0,2.224.263,1.38,1.38,0,0,1,1.57.053,1.718,1.718,0,0,0,2.434-.737,5.21,5.21,0,0,1,6.052-3.016c6.161,1.055,6.859,7.883,5.234,11.884s-8.24,2.477-11.559.46c-2.523-1.533-5.8.074-7.22.933A1.732,1.732,0,0,0,549.491,949.5Z" transform="translate(-536.555 -934.859)" fill="url(#linear-gradient-34)"/>
          <path id="Path_198" data-name="Path 198" d="M542.091,983.174s2.533-7.093-.069-8.83-6.457-.835-5.608,4.3C537.469,985.039,542.091,983.174,542.091,983.174Z" transform="translate(-536.294 -956.342)" fill="url(#linear-gradient-35)"/>
        </g>
      </g>
      <g id="Group_67" data-name="Group 67" transform="translate(110.991 53.225)">
        <g id="Group_65" data-name="Group 65" transform="translate(0 53.039)">
          <path id="Path_199" data-name="Path 199" d="M610.718,1179.146c.044,0,.089,0,.134,0l58.1-.058a2.6,2.6,0,1,0-.006-5.191l-58.1.058a2.6,2.6,0,0,0-.128,5.188Z" transform="translate(-608.248 -1173.9)" fill="url(#linear-gradient-36)"/>
        </g>
        <g id="Group_66" data-name="Group 66" transform="translate(58.456)">
          <path id="Path_200" data-name="Path 200" d="M764.49,1055.977c-.02.04-.04.079-.059.12L739.986,1108.8a2.6,2.6,0,1,0,4.709,2.183l24.446-52.706a2.6,2.6,0,0,0-4.651-2.3Z" transform="translate(-739.743 -1054.589)" fill="url(#linear-gradient-37)"/>
        </g>
      </g>
      <g id="Group_68" data-name="Group 68" transform="translate(97.785 108.542)">
        <path id="Path_201" data-name="Path 201" d="M633.529,1192.262c-.254,1.051-24.5,91.972-30.642,115.021a4.167,4.167,0,0,0,3.989,5.265h0a4.14,4.14,0,0,0,4.007-3.168l26.911-109.108Z" transform="translate(-591.984 -1186.376)" fill="url(#linear-gradient-11)"/>
        <path id="Path_202" data-name="Path 202" d="M696.532,1192.262c.254,1.051,24.5,91.972,30.643,115.021a4.167,4.167,0,0,1-3.989,5.265h0a4.14,4.14,0,0,1-4.007-3.168l-26.911-109.108Z" transform="translate(-641.712 -1186.376)" fill="url(#linear-gradient-11)"/>
        <path id="Path_203" data-name="Path 203" d="M685.267,1185.574h-15.1V1197.7a3.137,3.137,0,0,0,3.118,3.156h2.071v27.234a2.375,2.375,0,0,0,2.36,2.389h0a2.375,2.375,0,0,0,2.361-2.389v-27.234h1.051a4.163,4.163,0,0,0,4.138-4.188Z" transform="translate(-629.437 -1182.662)" fill="url(#linear-gradient-11)"/>
        <path id="Path_204" data-name="Path 204" d="M582.15,1179.023h84.3a2.59,2.59,0,0,1,2.5,1.961l1.177,4.616a2.607,2.607,0,0,1-2.517,3.268l-86.5-.5a2.608,2.608,0,0,1-2.49-3.254l1.024-4.112A2.589,2.589,0,0,1,582.15,1179.023Z" transform="translate(-578.542 -1179.023)" fill="url(#linear-gradient-41)"/>
      </g>
    </g>
    <g id="Group_76" data-name="Group 76" transform="translate(142.922 347.108)">
      <g id="Group_72" data-name="Group 72" transform="translate(0 18.234)">
        <g id="Group_70" data-name="Group 70">
          <path id="Path_205" data-name="Path 205" d="M266.291,731.641a2.63,2.63,0,0,1-2.007-.93l-8.319-9.835a61.122,61.122,0,0,1-18.176-.4l-8.749,9.44a2.628,2.628,0,0,1-2.988.618L211.017,723.9a2.631,2.631,0,0,1-1.559-2.621l1.071-12.828A61.053,61.053,0,0,1,197.972,695.3l-12.871.49a2.633,2.633,0,0,1-2.549-1.675L176.607,678.8a2.629,2.629,0,0,1,.753-2.956l9.834-8.318a61.065,61.065,0,0,1,.4-18.176l-9.441-8.75a2.631,2.631,0,0,1-.619-2.987l6.632-15.038a2.633,2.633,0,0,1,2.62-1.559l12.83,1.071a61.081,61.081,0,0,1,13.147-12.557l-.489-12.871a2.63,2.63,0,0,1,1.675-2.549l15.323-5.945a2.631,2.631,0,0,1,2.956.751l8.319,9.834a61.081,61.081,0,0,1,18.176.4l8.75-9.442a2.63,2.63,0,0,1,2.985-.617l15.039,6.632a2.626,2.626,0,0,1,1.558,2.622l-1.07,12.827a61.063,61.063,0,0,1,12.556,13.147l12.871-.489a2.637,2.637,0,0,1,2.549,1.675l5.945,15.322a2.627,2.627,0,0,1-.753,2.956L309.32,652.1a61.053,61.053,0,0,1-.4,18.176l9.441,8.75a2.626,2.626,0,0,1,.617,2.987l-6.63,15.038a2.654,2.654,0,0,1-2.622,1.558l-12.827-1.07A61.081,61.081,0,0,1,283.748,710.1l.49,12.871a2.63,2.63,0,0,1-1.674,2.549l-15.324,5.944A2.615,2.615,0,0,1,266.291,731.641Zm-9.1-13.963,9.212,10.889,14.824-5.751-.542-14.253.684-.468A58.1,58.1,0,0,0,295,695.075l.5-.661,14.205,1.186,6.415-14.55-10.455-9.689.153-.814a58.106,58.106,0,0,0,.419-18.847l-.116-.82,10.89-9.212-5.751-14.824-14.253.542-.468-.684a58.11,58.11,0,0,0-13.021-13.633l-.661-.5,1.185-14.205-14.549-6.416L259.8,602.406l-.814-.152a58.112,58.112,0,0,0-18.848-.421l-.82.116-9.212-10.889-14.824,5.752.542,14.253-.684.468a58.114,58.114,0,0,0-13.633,13.021l-.5.662-14.2-1.186-6.416,14.549,10.455,9.69-.153.814a58.11,58.11,0,0,0-.419,18.847l.116.82L179.5,677.96l5.752,14.824,14.253-.543.468.683A58.08,58.08,0,0,0,213,706.558l.661.5-1.185,14.205,14.549,6.414,9.689-10.454.814.152a58.128,58.128,0,0,0,18.847.419Zm-9.308-16.553a41.159,41.159,0,1,1,16.666-78.819,41.4,41.4,0,0,1,7.6,4.361,1.5,1.5,0,1,1-1.763,2.429,38.524,38.524,0,0,0-7.048-4.044,38.142,38.142,0,1,0,22.476,30.2,1.5,1.5,0,0,1,2.978-.373,41.17,41.17,0,0,1-40.909,46.245Z" transform="translate(-176.429 -587.987)" fill="#7d97f4"/>
        </g>
        <g id="Group_71" data-name="Group 71" transform="translate(55.731 55.73)">
          <path id="Path_206" data-name="Path 206" d="M317.909,745.545a16.1,16.1,0,1,1,2.675-31.965,16.1,16.1,0,0,1-2.675,31.965Zm-.034-29.193a13.095,13.095,0,0,0-2.172,26,13.308,13.308,0,0,0,2.206.186,13.094,13.094,0,0,0,2.172-26A13.3,13.3,0,0,0,317.875,716.352Z" transform="translate(-301.796 -713.35)" fill="#7d97f4"/>
        </g>
      </g>
      <g id="Group_75" data-name="Group 75" transform="translate(136.569)">
        <g id="Group_73" data-name="Group 73">
          <path id="Path_207" data-name="Path 207" d="M501.851,591.188a1.338,1.338,0,0,1-.394-.06l-4.642-1.44a1.333,1.333,0,0,1-.937-1.231l-.11-3.506a18.617,18.617,0,0,1-3.8-3.154l-3.465.533a1.327,1.327,0,0,1-1.381-.694l-2.265-4.3a1.336,1.336,0,0,1,.208-1.535l2.4-2.554a18.61,18.61,0,0,1-.453-4.918l-2.829-2.074a1.336,1.336,0,0,1-.485-1.47l1.439-4.641a1.332,1.332,0,0,1,1.236-.938l3.5-.109a18.587,18.587,0,0,1,3.155-3.8l-.533-3.464a1.336,1.336,0,0,1,.695-1.383l4.3-2.264a1.328,1.328,0,0,1,1.535.209l2.554,2.4a18.544,18.544,0,0,1,4.916-.452l2.074-2.829a1.336,1.336,0,0,1,1.471-.485l4.64,1.439a1.334,1.334,0,0,1,.938,1.232l.11,3.505a18.613,18.613,0,0,1,3.8,3.154l3.466-.533a1.33,1.33,0,0,1,1.383.7l2.263,4.3a1.333,1.333,0,0,1-.208,1.533l-2.4,2.555a18.591,18.591,0,0,1,.452,4.918l2.829,2.074a1.332,1.332,0,0,1,.485,1.472l-1.439,4.639a1.335,1.335,0,0,1-1.228.938l-3.51.111a18.63,18.63,0,0,1-3.154,3.8l.533,3.464a1.335,1.335,0,0,1-.695,1.382l-4.3,2.265a1.338,1.338,0,0,1-1.537-.212l-2.552-2.4a18.365,18.365,0,0,1-4.917.452l-2.075,2.83A1.333,1.333,0,0,1,501.851,591.188Zm-3.988-3.27,3.731,1.158,2.441-3.328.551.039a16.766,16.766,0,0,0,5.369-.494l.535-.139,3.007,2.822,3.455-1.82-.627-4.076.417-.362a16.621,16.621,0,0,0,3.446-4.148l.279-.477,4.124-.129,1.157-3.731-3.328-2.441.039-.55a16.593,16.593,0,0,0-.493-5.37l-.139-.535,2.823-3.007-1.82-3.456-4.076.628-.362-.417a16.608,16.608,0,0,0-4.148-3.446l-.476-.28-.129-4.124-3.732-1.157-2.44,3.328-.551-.039a16.656,16.656,0,0,0-5.369.494l-.535.139L498,550.178,494.548,552l.628,4.077-.417.362a16.6,16.6,0,0,0-3.445,4.148l-.28.477-4.124.129-1.157,3.731,3.327,2.439-.039.551a16.62,16.62,0,0,0,.494,5.371l.139.535-2.824,3.006,1.82,3.456,4.076-.627.362.417a16.618,16.618,0,0,0,4.149,3.445l.477.279Zm7.8-6.132a12.721,12.721,0,1,1,12.245-16.144,1,1,0,0,1-1.927.539,10.724,10.724,0,1,0-19.821,7.871,10.727,10.727,0,0,0,18.648.582,1,1,0,1,1,1.71,1.04,12.763,12.763,0,0,1-10.855,6.112Z" transform="translate(-483.64 -546.968)" fill="#7d97f4"/>
        </g>
        <g id="Group_74" data-name="Group 74" transform="translate(16.795 16.795)">
          <path id="Path_208" data-name="Path 208" d="M526.737,595.377a5.314,5.314,0,1,1,3.551-1.361A5.321,5.321,0,0,1,526.737,595.377Zm0-8.628a3.313,3.313,0,0,0-2.463,5.527,3.407,3.407,0,0,0,4.679.25,3.313,3.313,0,0,0,.25-4.679A3.321,3.321,0,0,0,526.734,586.749Z" transform="translate(-521.421 -584.748)" fill="#7d97f4"/>
        </g>
      </g>
    </g>
    <g id="Group_78" data-name="Group 78" transform="translate(579.96 365.217)">
      <path id="Path_209" data-name="Path 209" d="M1429.039,867.027s-5.679.3-6.376,11.985c0,0,13.171,11.807,30.961,14.617,1.335.211-1.867-9.117-2.349-10.381C1448.984,877.236,1441.769,873.364,1429.039,867.027Z" transform="translate(-1305.695 -742.856)" fill="url(#linear-gradient-42)"/>
      <path id="Path_210" data-name="Path 210" d="M1291.755,780.232h11.986s36.787-40.629,60.915-44.728c0,0,16.8,21.439-.894,61.5a5.847,5.847,0,0,1-8.372,2.758,4.794,4.794,0,0,1-1.912-2.28l1.422-34.2s-31.38,27.446-36.834,32.742S1284.886,798.086,1291.755,780.232Z" transform="translate(-1232.378 -669.801)" fill="url(#linear-gradient-43)"/>
      <path id="Path_211" data-name="Path 211" d="M1518.187,1014.566a45.061,45.061,0,0,0-24.579-10.756l-3.907,2.39a42.6,42.6,0,0,0,7.043,7.557c4.183,2.429,10.643,5.72,16,6.433C1517.948,1020.884,1518.716,1017.738,1518.187,1014.566Z" transform="translate(-1342.931 -818.833)" fill="url(#linear-gradient-44)"/>
      <path id="Path_212" data-name="Path 212" d="M1451.276,895.994c-3.094,1-4.455,5.386-12.307,2.486a69.5,69.5,0,0,1-16.149-8.507c-.065.565-.12,1.155-.157,1.785,0,0,13.887,13.209,31.678,16.019a1.77,1.77,0,0,0,1.912-2.386A44.688,44.688,0,0,0,1451.276,895.994Z" transform="translate(-1305.695 -755.602)" fill="url(#linear-gradient-45)"/>
      <path id="Path_213" data-name="Path 213" d="M1530.771,1030.752a41.485,41.485,0,0,0-3.784-3.758c.529,3.172-.239,6.318-5.445,5.624-5.355-.713-11.815-4-16-6.433,5.243,4.471,13.22,9.217,23.289,8.938A2.641,2.641,0,0,0,1530.771,1030.752Z" transform="translate(-1351.731 -831.261)" fill="url(#linear-gradient-46)"/>
      <path id="Path_214" data-name="Path 214" d="M1263.973,855.627l56.129.608s32.054,26.52,37.868,66.958c0,0,.965,2.974-4.829,3.483a111.269,111.269,0,0,1-32.016-35.035C1305.632,864.2,1280.7,874,1280.7,874c-30.238,10.307-40.59-5-40.843-8.618Z" transform="translate(-1204.157 -736.524)" fill="url(#linear-gradient-47)"/>
      <path id="Path_215" data-name="Path 215" d="M1284.691,753.917s6.042,30.282,35.648,42.261l10.531-1.241,2.485,3.962-24.7.787a67.566,67.566,0,0,1-32.3-31.153C1275.979,767.781,1269.819,755.061,1284.691,753.917Z" transform="translate(-1223.549 -680.029)" fill="#fff"/>
      <path id="Path_216" data-name="Path 216" d="M1223.923,762.331s-6.871-18.678-8.348-36.827a79.335,79.335,0,0,1,8.168-6.184,2.271,2.271,0,0,0,.887-2.946c-2.31-4.785-16.28-23.576-17.326-23.836-5.688-1.419-29.015-12.511-45.443,9.961-7.051,9.644,1.4,39.333,33.387,70.078l1.062.2a16.209,16.209,0,0,0,10.536-1.547Z" transform="translate(-1159.544 -643.723)" fill="url(#linear-gradient-48)"/>
      <path id="Path_217" data-name="Path 217" d="M1232.111,780.88s19.091,22.6,43.5,25.908c0,0,6.307-5.751,11-3.7s11.122,11.115,11.122,11.115H1266.39s-29.632-1.044-44.439-19.013C1223.143,788.906,1226.711,785.15,1232.111,780.88Z" transform="translate(-1194.208 -695.005)" fill="#fff"/>
      <path id="Path_218" data-name="Path 218" d="M1214.453,661.852l-4.177,13.931a1.531,1.531,0,0,0,.595,1.706,15.563,15.563,0,0,0,14.477,1.455,2.272,2.272,0,0,0,1.461-1.951l.99-12.136Z" transform="translate(-1187.687 -628.891)" fill="url(#linear-gradient-49)"/>
      <g id="Group_77" data-name="Group 77" transform="translate(15.461)">
        <path id="Path_219" data-name="Path 219" d="M1240.278,624.574s-2.054,14.441-7.6,18.882-16.356,1.1-20.006-9.79l7.274-18.615Z" transform="translate(-1204.514 -602.895)" fill="#fff"/>
        <path id="Path_220" data-name="Path 220" d="M1208.933,611.908a.715.715,0,0,0,.93-.573,18.666,18.666,0,0,1,1.712-5.768s-.53-1.895,4.788.968,13.3,7.066,18.007,4.563c4.585-2.441,9.229-14.725-2.888-12.45a.715.715,0,0,1-.85-.748c.149-2.019-.052-6.664-4.755-8.155-4.4-1.4-6.812.592-7.8,1.791a.71.71,0,0,1-1.113-.018c-1.319-1.721-4.9-5.386-10.172-3.062-4.342,1.914-5.017,4.588-4.946,6.255a.713.713,0,0,1-1.016.68c-1.33-.613-3.469-.931-5.518,1.636-2.833,3.549,1.215,6.627,2.43,7.434a.714.714,0,0,1,.324.59c.012,1.846.3,9.9,4.334,14.439a.721.721,0,0,0,1.2-.207l3.107-7.4a.718.718,0,0,1,.882-.406Z" transform="translate(-1194.323 -587.706)" fill="url(#linear-gradient-50)"/>
        <path id="Path_221" data-name="Path 221" d="M1220.057,638.383s-1.9-7.728-4.78-5.219.751,8.031,4.053,9.084Z" transform="translate(-1205.38 -612.677)" fill="#fff"/>
      </g>
      <path id="Path_222" data-name="Path 222" d="M1388.864,795.268l14.071-46.926a4.8,4.8,0,0,1,4.269-3.409l19-1.3a2.7,2.7,0,0,1,2.726,3.581l-15.73,44.813a3.944,3.944,0,0,1-3.325,2.617l-18.708,2.078Z" transform="translate(-1286.921 -674.313)" fill="url(#linear-gradient-31)"/>
      <path id="Path_223" data-name="Path 223" d="M1342,856.082l-.092,0-39.862-2.015a1.786,1.786,0,0,1,.18-3.568l39.862,2.015a1.787,1.787,0,0,1-.089,3.571Z" transform="translate(-1237.753 -733.672)" fill="url(#linear-gradient-52)"/>
      <path id="Path_224" data-name="Path 224" d="M1281.1,747.114h0a.357.357,0,0,1-.356-.358c.027-8.324-3.185-19.372-3.217-19.483a.357.357,0,1,1,.685-.2c.033.112,3.275,11.259,3.247,19.686A.357.357,0,0,1,1281.1,747.114Z" transform="translate(-1225.07 -664.974)" fill="url(#linear-gradient-53)"/>
      <path id="Path_225" data-name="Path 225" d="M1229.67,757.412a.356.356,0,0,1-.281-.136c-.088-.111-8.809-11.2-11.809-18.8a.357.357,0,1,1,.664-.262c2.962,7.5,11.619,18.51,11.706,18.62a.357.357,0,0,1-.281.578Z" transform="translate(-1191.766 -671.18)" fill="url(#linear-gradient-54)"/>
      <path id="Path_226" data-name="Path 226" d="M1191.244,793.256l-.266-.114c-12.627-5.407-20.424-20.478-20.5-20.63a.357.357,0,1,1,.636-.325c.076.149,7.651,14.784,19.882,20.182l1.28-1.809a.358.358,0,0,1,.583.413Z" transform="translate(-1165.595 -690.069)" fill="url(#linear-gradient-55)"/>
    </g>
    <g id="Group_86" data-name="Group 86" transform="translate(765.489 533.865)">
      <g id="Group_85" data-name="Group 85">
        <g id="Group_79" data-name="Group 79" transform="translate(125.809 140.362)">
          <rect id="Rectangle_87" data-name="Rectangle 87" width="4.858" height="52.531" transform="translate(23.477 11.77)" fill="url(#linear-gradient-56)"/>
          <path id="Rectangle_88" data-name="Rectangle 88" d="M3.144,0H39.4a3.144,3.144,0,0,1,3.144,3.144v.018a0,0,0,0,1,0,0H0a0,0,0,0,1,0,0V3.144A3.144,3.144,0,0,1,3.144,0Z" transform="translate(4.633 62.152)" fill="url(#linear-gradient-57)"/>
          <rect id="Rectangle_89" data-name="Rectangle 89" width="53.492" height="15.171" rx="7.586" fill="url(#linear-gradient-58)"/>
        </g>
        <g id="Group_80" data-name="Group 80" transform="translate(53.119 107.241)">
          <path id="Path_227" data-name="Path 227" d="M1816.072,1230.508a42.277,42.277,0,0,0-15.334,6.544,4.046,4.046,0,0,0-1.786,3.866c.972,7.7,4.968,32.612,18.143,56.945a6.128,6.128,0,0,1,.588,4.2l-2.289,10.652-4.245,3.98h10.934l7.28-19.7-3.113-.984a5.89,5.89,0,0,1-4.113-5.514l-.365-21.134a24.044,24.044,0,0,0-5.773-15.912l17.462-.85Z" transform="translate(-1753.336 -1220.642)" fill="url(#linear-gradient-59)"/>
          <path id="Path_228" data-name="Path 228" d="M1816.749,1400.408c-1,1.3,10.717,3.023,16.635.173,0,0,8.2-14.272,8.2-21.621,0,0-.651-1.5-5.467-1.158,0,0-2.755,16.9-5.663,18.792s-8.137.192-8.137.192S1818.219,1398.485,1816.749,1400.408Z" transform="translate(-1763.206 -1302.429)" fill="url(#linear-gradient-60)"/>
          <path id="Path_229" data-name="Path 229" d="M1780.578,1257.154c-.093-.161-18.8-2.249-18.8-2.249a43.237,43.237,0,0,1-1.3,13.518c-1.913,7.83-29.38,41.754-29.38,41.754l2.88,9.13a46.324,46.324,0,0,1-26.282,1.581l17.848-10.711s16.7-56.923,26.935-67.078l18.752-6.487Z" transform="translate(-1702.664 -1224.032)" fill="url(#linear-gradient-61)"/>
          <path id="Path_230" data-name="Path 230" d="M1878.724,1208.315s10.778,16.031,11.663,23.344-2.953,10.284-14.261,10.774-41.5.482-41.5.482l-25.767-22.021s18.778-6.7,23.66-8.6S1878.724,1208.315,1878.724,1208.315Z" transform="translate(-1758.856 -1208.315)" fill="url(#linear-gradient-62)"/>
          <path id="Path_231" data-name="Path 231" d="M1726.6,1415.717s3.1,3,1.006,6.344c0,0-24.562,4.354-31.231,2.378,0,0,1.385-3.161,8.894-6.758l-.554.426a.9.9,0,0,0,.593,1.609C1710.259,1419.434,1720.5,1418.528,1726.6,1415.717Z" transform="translate(-1696.379 -1323.517)" fill="url(#linear-gradient-63)"/>
        </g>
        <g id="Group_81" data-name="Group 81" transform="translate(105.31)">
          <path id="Path_232" data-name="Path 232" d="M1872.624,1130.932s-12.551-11.951-18.729-19.867a16.8,16.8,0,0,1-2.844-15.116c2.821-9.5,7.833-19.346,8.291-20.878.7-2.348,14.774-2.25,14.774-2.25s27.693,17.973,38.574,48.418l-12.219,3.8s-7.23-12.131-14.375-19.843c0,0,12.362,16.331,12.8,23.016Z" transform="translate(-1834.096 -1025.813)" fill="url(#linear-gradient-64)"/>
          <path id="Path_233" data-name="Path 233" d="M1866.744,1040.4c.147.488,3.82,12.665,4.108,12.918s8.056.67,11.712-1.829l-7.334-17.46Z" transform="translate(-1843.201 -1004.269)" fill="url(#linear-gradient-65)"/>
          <path id="Path_234" data-name="Path 234" d="M1830.544,1020.084s-2.1,6.885,2.366,16.487,10.021,9.853,13.2,7,7.16-7.772,6.694-16.875S1833.52,1011.339,1830.544,1020.084Z" transform="translate(-1822.819 -994.189)" fill="url(#linear-gradient-23)"/>
          <path id="Path_235" data-name="Path 235" d="M1836.957,1014.057s-7.556-12.825-15.649-3.389l-.3,3.555s-8.89-1.48-6.941-9.6a15.918,15.918,0,0,1,21.425-10.564c9.783,4.017,13.587,9.622,13.895,16.782s-5.292,5.331-5.292,5.331-1.615-5.107-4.221-5.753-2.106,3.3-2.106,3.3Z" transform="translate(-1813.784 -981.381)" fill="url(#linear-gradient-67)"/>
          <path id="Path_236" data-name="Path 236" d="M1868.6,1031.215s-3.923-6.57.448-7.317,3.363,6.38,2.772,9.006Z" transform="translate(-1843.331 -998.608)" fill="url(#linear-gradient-23)"/>
          <path id="Path_237" data-name="Path 237" d="M1842.933,1192.319l9.222-8.889,12.757,5.389s12.7,1.968,19.965,0l7.267-1.967,16.423-5.113,2.58,7.29a4.389,4.389,0,0,1-1.6,5.042,28.921,28.921,0,0,1-4.147,2.584c-2.163.947-53.315-.654-53.315-.654Z" transform="translate(-1829.975 -1086.312)" fill="url(#linear-gradient-69)"/>
          <path id="Path_238" data-name="Path 238" d="M1860.22,981.513a2.844,2.844,0,0,1-2.553-4.342c3.8-6.322,11.807-14.107,26.771-7.694,16.857,7.225,25.793,10.228,29.227,8.52a2.857,2.857,0,0,1,4.127,3.241c-.5,1.793-1.854,3.833-4.672,6.014C1891.378,1004.079,1873.578,980.453,1860.22,981.513Z" transform="translate(-1837.927 -967.078)" fill="url(#linear-gradient-70)"/>
        </g>
        <g id="Group_82" data-name="Group 82" transform="translate(47.901 61.628)">
          <path id="Path_239" data-name="Path 239" d="M1851.454,1208.911c-.041,0-.082,0-.123,0l-53.493-.058a2.394,2.394,0,0,1,.005-4.789l53.493.058a2.395,2.395,0,0,1,.118,4.786Z" transform="translate(-1746.189 -1160.342)" fill="url(#linear-gradient-71)"/>
          <path id="Path_240" data-name="Path 240" d="M1688.2,1105.71h44.549a8.49,8.49,0,0,1,7.679,4.869l20.6,43.67h-55.363a5.16,5.16,0,0,1-4.8-3.263l-15.97-40.411A3.558,3.558,0,0,1,1688.2,1105.71Z" transform="translate(-1684.643 -1105.71)" fill="url(#linear-gradient-72)"/>
          <path id="Path_241" data-name="Path 241" d="M1754.368,1150.5c.965,3,.252,5.912-1.593,6.506s-4.124-1.356-5.089-4.355-.252-5.912,1.593-6.506S1753.4,1147.5,1754.368,1150.5Z" transform="translate(-1719.421 -1128.112)" fill="#91b3fa"/>
        </g>
        <g id="Group_84" data-name="Group 84" transform="translate(0 109.688)">
          <path id="Path_242" data-name="Path 242" d="M1804.821,1216.282a1.974,1.974,0,0,0-.465-1.71,2.268,2.268,0,0,0-1.7-.753H1579.43a2.585,2.585,0,0,0-2.14,1.1,2.253,2.253,0,0,0-.166,2.282l2.419,4.908a3.409,3.409,0,0,0,3.075,1.844h218.505a2.528,2.528,0,0,0,2.518-1.948Z" transform="translate(-1576.889 -1213.82)" fill="#7d97f4"/>
          <g id="Group_83" data-name="Group 83" transform="translate(13.093 4.17)">
            <path id="Path_243" data-name="Path 243" d="M1608.3,1324.928a1.915,1.915,0,0,1-.773-.164,2.022,2.022,0,0,1-1.026-2.633l41.084-97.718a1.943,1.943,0,0,1,2.574-1.049,2.022,2.022,0,0,1,1.025,2.633l-41.084,97.718A1.958,1.958,0,0,1,1608.3,1324.928Z" transform="translate(-1606.343 -1223.2)" fill="#7d97f4"/>
            <path id="Path_244" data-name="Path 244" d="M1661.078,1324.928a1.957,1.957,0,0,1-1.8-1.213L1618.193,1226a2.022,2.022,0,0,1,1.026-2.633,1.943,1.943,0,0,1,2.573,1.049l41.084,97.718a2.022,2.022,0,0,1-1.026,2.633A1.91,1.91,0,0,1,1661.078,1324.928Z" transform="translate(-1612.836 -1223.2)" fill="#7d97f4"/>
            <path id="Path_245" data-name="Path 245" d="M1972.235,1324.928a1.912,1.912,0,0,1-.773-.164,2.022,2.022,0,0,1-1.025-2.633l41.084-97.718a1.942,1.942,0,0,1,2.573-1.049,2.022,2.022,0,0,1,1.026,2.633l-41.084,97.718A1.958,1.958,0,0,1,1972.235,1324.928Z" transform="translate(-1808.492 -1223.2)" fill="#7d97f4"/>
            <path id="Path_246" data-name="Path 246" d="M2025.011,1324.928a1.957,1.957,0,0,1-1.8-1.213L1982.126,1226a2.022,2.022,0,0,1,1.025-2.633,1.943,1.943,0,0,1,2.574,1.049l41.084,97.718a2.022,2.022,0,0,1-1.025,2.633A1.911,1.911,0,0,1,2025.011,1324.928Z" transform="translate(-1814.984 -1223.2)" fill="#7d97f4"/>
          </g>
        </g>
      </g>
    </g>
    <g id="Group_89" data-name="Group 89" transform="translate(596.307 187.832)">
      <g id="Group_87" data-name="Group 87" transform="translate(86.573 25.984)">
        <path id="Path_247" data-name="Path 247" d="M1392.209,276.679a2.579,2.579,0,0,1,.818.394c.407.312.83.875,1.373,1.291a19.711,19.711,0,0,1,1.908,1.679l.013.011c.332.273.56.565.276.935a.7.7,0,0,1-1.049.1s-.985-.825-2.012-1.6c-.254-.2-.487-.418-.726-.6-.261-.2-.369-.31-.528-.445a3.3,3.3,0,0,0-.378-.319c-.115-.08-.178-.129-.178-.129l-.289-.2a.675.675,0,0,1-.244-.992.66.66,0,0,1,1.011-.124Z" transform="translate(-1391.063 -263.44)" fill="#91b3fa"/>
        <path id="Path_248" data-name="Path 248" d="M1411.349,289.991l4.3,2.775a.79.79,0,0,1,.185,1.115.823.823,0,0,1-1.115.276l-4.307-2.769a.794.794,0,0,1-.188-1.118.827.827,0,0,1,1.12-.278Z" transform="translate(-1401.626 -270.872)" fill="#91b3fa"/>
        <path id="Path_249" data-name="Path 249" d="M1430.689,303.2l4.61,2.144a.645.645,0,0,1,.311.95.781.781,0,0,1-1.068.3l-4.524-2.432c-.377-.2-.573-.441-.347-.84s.62-.118,1.018-.118Z" transform="translate(-1412.454 -278.22)" fill="#91b3fa"/>
        <path id="Path_250" data-name="Path 250" d="M1451.114,314.685l4.874,1.423c.39.163.615.346.424.756a.739.739,0,0,1-1.021.306l-4.733-2.052c-.392-.163-.673-.1-.482-.513s.55.079.937.079Z" transform="translate(-1423.863 -284.518)" fill="#91b3fa"/>
        <path id="Path_251" data-name="Path 251" d="M1473.472,317.24l4.814,2.291c.4.122.54.958.388,1.379s-.636.861-1.039.739l-4.97-1.393c-.406-.122-.483-1.306-.331-1.729s.766-1.287,1.137-1.287Z" transform="translate(-1436.165 -286.073)" fill="#91b3fa"/>
        <path id="Path_252" data-name="Path 252" d="M1495.609,328.475l5.077.559c.415.074.642.3.537.73a.8.8,0,0,1-.954.552l-5.132-.957c-.416-.074-.624-.145-.519-.575s.638-.308.989-.308Z" transform="translate(-1448.568 -292.304)" fill="#91b3fa"/>
        <path id="Path_253" data-name="Path 253" d="M1519.488,328.495l4.975.634c.422.019.583.58.532,1.01a1.007,1.007,0,0,1-.925.843l-5.286-.188c-.423-.019-.466-.751-.415-1.183s.05-.115,1.117-1.116Z" transform="translate(-1461.766 -292.324)" fill="#91b3fa"/>
        <path id="Path_254" data-name="Path 254" d="M1542.078,330.045l5.32-.557a.682.682,0,0,1,.788.66.819.819,0,0,1-.746.82l-5.284.47a.672.672,0,0,1-.806-.625.739.739,0,0,1,.726-.767Z" transform="translate(-1474.541 -292.874)" fill="#91b3fa"/>
        <path id="Path_255" data-name="Path 255" d="M1565.689,327.5l5.366-.783a.7.7,0,0,1,.834.614.8.8,0,0,1-.7.835l-5.275.679a.7.7,0,0,1-.873-.573c-.022-.422.42-.956.643-.773Z" transform="translate(-1487.702 -291.332)" fill="#91b3fa"/>
        <path id="Path_256" data-name="Path 256" d="M1589.49,324.506l5.31-1.365c.412-.08.811.013.858.426a.733.733,0,0,1-.647.8l-5.246.973c-.413.081-.839.141-.886-.273s.275-.565.61-.565Z" transform="translate(-1500.938 -289.336)" fill="#91b3fa"/>
        <path id="Path_257" data-name="Path 257" d="M1613.173,317.607l5.183-1.478a.7.7,0,0,1,.886.527.832.832,0,0,1-.572.948l-5.176,1.522a.711.711,0,0,1-.892-.544c-.087-.4.169-.975.568-.975Z" transform="translate(-1514.108 -285.439)" fill="#91b3fa"/>
        <path id="Path_258" data-name="Path 258" d="M1636.185,309.353s1.243-.7,2.485-1.258c1.181-.614,2.362-1.3,2.362-1.3l.048-.06a.686.686,0,0,1,.97.292.789.789,0,0,1-.381,1s-1.245.644-2.489,1.292c-1.242.56-2.484,1.118-2.484,1.118-.384.174-.811.148-.953-.229s.061-.859.438-.859Z" transform="translate(-1526.948 -280.187)" fill="#91b3fa"/>
        <path id="Path_259" data-name="Path 259" d="M1657.986,294.821a1.491,1.491,0,0,1,.463-.6c.191-.172.341-.384.544-.6s.4-.454.629-.686a17.419,17.419,0,0,0,1.14-1.4c.293-.4.477-.664.477-.664l.035-.055a.742.742,0,0,1,1.024-.2.728.728,0,0,1,.118,1.028l-.539.733a19.82,19.82,0,0,1-1.276,1.531l-.76.763c-.243.255-.47.44-.664.615l-.648.573c-.317.281-.594.292-.847-.01s.3-.654.3-1.028Z" transform="translate(-1539.122 -271.214)" fill="#91b3fa"/>
        <path id="Path_260" data-name="Path 260" d="M1670.587,273.674a1.558,1.558,0,0,1-.229-.977c.052-.259-.108-.6-.093-.889.011-.144-.07-.329-.059-.481a.772.772,0,0,0-.029-.19l-.035-.258c-.01-.161-.021-.348-.041-.49s-.053-.262-.076-.386c-.035-.248-.141-.508-.191-.717-.155-.416-.272-.691-.272-.691l-.015-.034a.789.789,0,0,1,.4-.99.678.678,0,0,1,.943.32s.14.324.324.824a8.57,8.57,0,0,1,.239.909c.029.18.06.368.091.557s.02.335.031.506l.012.249c0,.2-.012.212-.018.327-.013.179-.026.354-.039.525a7.05,7.05,0,0,1-.1.9l-.136.837c-.066.407-.075.848-.472.813s-.233-.343-.233-.662Z" transform="translate(-1545.719 -258.44)" fill="#91b3fa"/>
        <path id="Path_261" data-name="Path 261" d="M1657.165,256.344a18.534,18.534,0,0,0-1.885-1.73c-1.048-.629-2.031-1.338-2.031-1.338l-.032-.078a.669.669,0,0,1-.128-.971c.221-.351.23-.85,1.056-.245l0-.005s1.1.647,2.243,1.338c1.009.786,1.993,1.549,1.993,1.549.3.237.2.842-.056,1.17s-.861.556-1.159.311Z" transform="translate(-1536.525 -249.667)" fill="#91b3fa"/>
        <path id="Path_262" data-name="Path 262" d="M1636.142,248.275a1.121,1.121,0,0,1-.822.174c-.235-.031-.544.04-.818.038-.282-.019-.586.041-.886.021a7.9,7.9,0,0,0-.894.074,2.94,2.94,0,0,0-.769.118c-.439.1-.732.171-.732.171l-.133.034a.649.649,0,0,1-.8-.547.785.785,0,0,1,.6-.856l.906-.205a3.945,3.945,0,0,1,.921-.12,9.294,9.294,0,0,1,1.047-.04l1.042.071a7.189,7.189,0,0,1,.844.124l.8.141c.384.066.638.124.543.521s-.477.282-.847.282Z" transform="translate(-1523.937 -247.129)" fill="#91b3fa"/>
        <path id="Path_263" data-name="Path 263" d="M1620.866,256.353s-.947.229-1.223.668c-.069.11-.526.2-.6.323s-.305.232-.369.364c-.116.26-.335.53-.458.808-.1.306-.239.608-.329.895a7.637,7.637,0,0,0-.324.783,2.694,2.694,0,0,1-.277.774l-.02.067a.689.689,0,0,1-.736.632.618.618,0,0,1-.495-.8s.1-.346.2-.871a6.857,6.857,0,0,1,.232-.892c.1-.325.217-.671.326-1.018.145-.35.314-.7.463-1.029a4.807,4.807,0,0,1,.448-.812l.461-.732c.218-.347,1.422-.407,1.748-.212s.958.682.958,1.045Z" transform="translate(-1516.011 -251.609)" fill="#91b3fa"/>
        <path id="Path_264" data-name="Path 264" d="M1617.767,279.143a15,15,0,0,0,.028,2.639c.235,1.26.337,2.521.337,2.521l-.057.048a.8.8,0,0,1-.594.871.66.66,0,0,1-.833-.5s-.257-1.334-.506-2.669c-.149-1.319-.3-2.638-.3-2.638-.044-.388.5-.762.885-.837s1.043.179,1.043.567Z" transform="translate(-1515.915 -264.588)" fill="#91b3fa"/>
        <path id="Path_265" data-name="Path 265" d="M1622.7,301.294a17.785,17.785,0,0,0,.786,2.644c.546,1.144,1,2.4,1,2.4l-.032.091a.8.8,0,0,1-.36.99.662.662,0,0,1-.934-.253s-.577-1.188-1.148-2.384c-.491-1.2-.985-2.406-.985-2.406a1.188,1.188,0,0,1,.579-1.179c.358-.173.78.092,1.1.092Z" transform="translate(-1518.777 -277.132)" fill="#91b3fa"/>
        <path id="Path_266" data-name="Path 266" d="M1632.465,321.167l3.093,4.468a.9.9,0,0,1-.124,1.121.628.628,0,0,1-.929-.04l-2.969-4.155a1.07,1.07,0,0,1,.073-1.244c.315-.243.983-1.15.853-.149Z" transform="translate(-1524.544 -287.998)" fill="#91b3fa"/>
        <path id="Path_267" data-name="Path 267" d="M1646.914,341.684l3.481,3.527a.592.592,0,0,1-.074.882.686.686,0,0,1-.974-.028l-3.531-3.74c-.252-.266-.191-.524.091-.8s.659.161,1,.161Z" transform="translate(-1532.478 -299.509)" fill="#91b3fa"/>
        <path id="Path_268" data-name="Path 268" d="M1663.048,357.165l.593.536,1.315,1.151,1.93,1.68a.686.686,0,0,1,.031.966.679.679,0,0,1-.955.107l-1.932-1.677-1.333-1.165-.594-.535a.691.691,0,0,1-.016-.971.68.68,0,0,1,.961-.092Z" transform="translate(-1541.498 -308.161)" fill="#91b3fa"/>
        <path id="Path_269" data-name="Path 269" d="M1680.542,372.06l4.038,3.144a.7.7,0,0,1-.865,1.1l-4.042-3.139a.707.707,0,0,1,.869-1.11Z" transform="translate(-1551.24 -316.451)" fill="#91b3fa"/>
        <path id="Path_270" data-name="Path 270" d="M1698.906,385.9l4.233,2.879a.659.659,0,0,1,.133.93.68.68,0,0,1-.929.209l-4.237-2.874a.662.662,0,0,1-.135-.934.684.684,0,0,1,.934-.21Z" transform="translate(-1561.463 -324.15)" fill="#91b3fa"/>
        <path id="Path_271" data-name="Path 271" d="M1718.158,398.49l4.439,2.565a.645.645,0,0,1,.194.906.682.682,0,0,1-.91.268l-4.443-2.559a.648.648,0,0,1-.2-.91.687.687,0,0,1,.914-.271Z" transform="translate(-1572.182 -331.158)" fill="#91b3fa"/>
        <path id="Path_272" data-name="Path 272" d="M1738.477,409.319l4.605,2.243a.656.656,0,0,1,.24.9.706.706,0,0,1-.894.35l-4.661-2.172a.684.684,0,0,1-.221-.931c.172-.336.668-.608.931-.393Z" transform="translate(-1583.468 -337.175)" fill="#91b3fa"/>
        <path id="Path_273" data-name="Path 273" d="M1759.35,419.3l4.637,2.216a.625.625,0,0,1,.254.868.678.678,0,0,1-.876.327l-4.639-2.21a.627.627,0,0,1-.257-.871.682.682,0,0,1,.881-.329Z" transform="translate(-1595.096 -342.728)" fill="#91b3fa"/>
        <path id="Path_274" data-name="Path 274" d="M1780.13,429.486l4.534,2.4a.623.623,0,0,1,.219.871.667.667,0,0,1-.877.291l-4.538-2.4a.626.626,0,0,1-.22-.875.671.671,0,0,1,.881-.293Z" transform="translate(-1606.631 -348.382)" fill="#91b3fa"/>
        <path id="Path_275" data-name="Path 275" d="M1800.439,440.525l4.421,2.595a.621.621,0,0,1,.181.873.656.656,0,0,1-.876.253l-4.425-2.589a.625.625,0,0,1-.183-.878.661.661,0,0,1,.881-.255Z" transform="translate(-1617.905 -354.507)" fill="#91b3fa"/>
        <path id="Path_276" data-name="Path 276" d="M1820.226,452.429l4.3,2.789a.62.62,0,0,1,.143.874.645.645,0,0,1-.875.214l-4.3-2.783a.624.624,0,0,1-.145-.879.649.649,0,0,1,.879-.216Z" transform="translate(-1628.889 -361.112)" fill="#91b3fa"/>
        <path id="Path_277" data-name="Path 277" d="M1839.436,465.21l4.158,2.985a.619.619,0,0,1,.1.874.634.634,0,0,1-.871.175l-4.162-2.98a.622.622,0,0,1-.105-.878.637.637,0,0,1,.876-.177Z" transform="translate(-1639.553 -368.204)" fill="#91b3fa"/>
        <path id="Path_278" data-name="Path 278" d="M1858.012,478.878l4.007,3.182a.646.646,0,0,1-.8,1.006l-4.011-3.177a.649.649,0,0,1,.806-1.012Z" transform="translate(-1649.865 -375.787)" fill="#91b3fa"/>
        <path id="Path_279" data-name="Path 279" d="M1875.892,493.436l3.843,3.38a.618.618,0,0,1,.024.87.61.61,0,0,1-.86.092l-3.847-3.375a.621.621,0,0,1-.025-.874.614.614,0,0,1,.865-.093Z" transform="translate(-1659.791 -383.865)" fill="#91b3fa"/>
        <path id="Path_280" data-name="Path 280" d="M1893.016,508.884l3.663,3.576a.618.618,0,0,1-.018.864.6.6,0,0,1-.851.05l-3.667-3.572a.62.62,0,0,1,.017-.868.6.6,0,0,1,.856-.051Z" transform="translate(-1669.296 -392.436)" fill="#91b3fa"/>
        <path id="Path_281" data-name="Path 281" d="M1909.316,525.217l3.469,3.772a.617.617,0,0,1-.059.856.587.587,0,0,1-.841.007l-3.474-3.767a.62.62,0,0,1,.059-.861.591.591,0,0,1,.846-.008Z" transform="translate(-1678.345 -401.498)" fill="#91b3fa"/>
        <path id="Path_282" data-name="Path 282" d="M1924.724,542.427l3.262,3.967a.615.615,0,0,1-.1.846.575.575,0,0,1-.828-.037l-3.266-3.963a.619.619,0,0,1,.1-.851.579.579,0,0,1,.833.036Z" transform="translate(-1686.898 -411.045)" fill="#91b3fa"/>
        <path id="Path_283" data-name="Path 283" d="M1939.178,560.514l3.033,4.155a.615.615,0,0,1-.144.834.564.564,0,0,1-.813-.081l-3.038-4.151a.618.618,0,0,1,.144-.839.567.567,0,0,1,.818.081Z" transform="translate(-1694.923 -421.08)" fill="#91b3fa"/>
        <path id="Path_284" data-name="Path 284" d="M1952.583,579.443l2.785,4.338a.615.615,0,0,1-.187.82.553.553,0,0,1-.8-.127l-2.791-4.334a.617.617,0,0,1,.187-.824.556.556,0,0,1,.8.126Z" transform="translate(-1702.365 -431.58)" fill="#91b3fa"/>
        <path id="Path_285" data-name="Path 285" d="M1964.847,599.189l1.268,2.253c.313.555.641,1.135.866,1.563l.384.712a.614.614,0,0,1-.241.8.541.541,0,0,1-.772-.182l-.385-.711c-.228-.431-.536-.975-.859-1.545l-1.271-2.25a.616.616,0,0,1,.229-.808.546.546,0,0,1,.78.17Z" transform="translate(-1709.175 -442.535)" fill="#91b3fa"/>
        <path id="Path_286" data-name="Path 286" d="M1975.851,619.754l2.214,4.692a.612.612,0,0,1-.277.781.531.531,0,0,1-.75-.22l-2.219-4.689a.615.615,0,0,1,.277-.786.534.534,0,0,1,.755.221Z" transform="translate(-1715.283 -453.941)" fill="#91b3fa"/>
        <path id="Path_287" data-name="Path 287" d="M1985.484,641.087l1.889,4.856a.61.61,0,0,1-.323.757.522.522,0,0,1-.722-.269l-1.894-4.853a.613.613,0,0,1,.324-.761.524.524,0,0,1,.726.27Z" transform="translate(-1720.633 -465.773)" fill="#91b3fa"/>
        <path id="Path_288" data-name="Path 288" d="M1993.614,663.151l1.528,5.009a.607.607,0,0,1-.37.727.511.511,0,0,1-.689-.319l-1.535-5.007a.61.61,0,0,1,.371-.731.515.515,0,0,1,.694.321Z" transform="translate(-1725.148 -478.01)" fill="#91b3fa"/>
        <path id="Path_289" data-name="Path 289" d="M2000.081,685.89l1.132,5.145a.6.6,0,0,1-.417.693.5.5,0,0,1-.651-.371l-1.138-5.143a.607.607,0,0,1,.419-.7.506.506,0,0,1,.656.373Z" transform="translate(-1728.74 -490.62)" fill="#91b3fa"/>
        <path id="Path_290" data-name="Path 290" d="M2004.719,709.218l.7,5.256a.6.6,0,0,1-.465.652.5.5,0,0,1-.608-.422l-.7-5.255a.6.6,0,0,1,.467-.656.5.5,0,0,1,.612.424Z" transform="translate(-1731.32 -503.556)" fill="#91b3fa"/>
        <path id="Path_291" data-name="Path 291" d="M2007.361,733.018l.226,5.335a.593.593,0,0,1-.511.6.489.489,0,0,1-.557-.473l-.232-5.335a.6.6,0,0,1,.514-.609.493.493,0,0,1,.561.476Z" transform="translate(-1732.792 -516.752)" fill="#91b3fa"/>
        <path id="Path_292" data-name="Path 292" d="M2007.557,757.134l-.221,4.436a.585.585,0,0,1-.555.552.485.485,0,0,1-.5-.522l.216-4.436a.588.588,0,0,1,.557-.555.488.488,0,0,1,.5.524Z" transform="translate(-1732.787 -530.122)" fill="#91b3fa"/>
      </g>
      <g id="Group_88" data-name="Group 88" transform="translate(0)">
        <path id="Path_293" data-name="Path 293" d="M1359.2,234.1l-2.187,18.045-11.281-9.239Z" transform="translate(-1279.31 -213.908)" fill="#7d97f4"/>
        <path id="Path_294" data-name="Path 294" d="M1196.317,188.679l43.551,48.65a4.6,4.6,0,0,0,6.623.241l47.2-45.567a1.844,1.844,0,0,0-1.278-3.17Z" transform="translate(-1196.317 -188.679)" fill="#91b3fa"/>
        <path id="Path_295" data-name="Path 295" d="M1276.2,208.871l-79.883-20.193,72.289,27.57-.394,5.03Z" transform="translate(-1196.317 -188.679)" fill="#7d97f4"/>
        <path id="Path_296" data-name="Path 296" d="M1348.727,255.037l9.949,6.326-5.413-10.666Z" transform="translate(-1280.974 -223.127)" fill="#7d97f4"/>
      </g>
    </g>
    <g id="Group_94" data-name="Group 94" transform="translate(732.571 319.399)">
      <g id="Group_90" data-name="Group 90" transform="translate(61.463 74.348)">
        <path id="Path_297" data-name="Path 297" d="M1646.4,652.129c13.786,5.034,47.191,13.8,91.342,2.048a6.485,6.485,0,0,1,7.487,3.346c4.068,8.135,12.2,24.942,15.967,36.626a6.061,6.061,0,0,1-4.477,7.807c-17.58,3.792-69.171,11.568-106.717-17.045a9.734,9.734,0,0,1-3.569-5.555l-5.223-22.626A3.945,3.945,0,0,1,1646.4,652.129Z" transform="translate(-1641.102 -651.884)" fill="#91b3fa"/>
        <path id="Path_298" data-name="Path 298" d="M1751.072,716.947a1.58,1.58,0,0,1-1.486-1.046l-11.42-31.8a1.579,1.579,0,1,1,2.972-1.067l11.419,31.8a1.58,1.58,0,0,1-1.486,2.113Z" transform="translate(-1694.965 -668.604)" fill="url(#linear-gradient-49)"/>
        <path id="Path_299" data-name="Path 299" d="M1782.331,719.768a1.579,1.579,0,0,1-1.422-.891l-16.989-35.122a1.579,1.579,0,1,1,2.843-1.375l16.989,35.122a1.579,1.579,0,0,1-.734,2.109A1.563,1.563,0,0,1,1782.331,719.768Z" transform="translate(-1709.234 -668.328)" fill="url(#linear-gradient-49)"/>
        <path id="Path_300" data-name="Path 300" d="M1808.436,716.882a1.579,1.579,0,0,1-1.434-.917l-17.033-36.923a1.579,1.579,0,1,1,2.867-1.323l17.033,36.923a1.578,1.578,0,0,1-1.433,2.24Z" transform="translate(-1723.71 -665.724)" fill="url(#linear-gradient-49)"/>
        <path id="Path_301" data-name="Path 301" d="M1834.566,712.426a1.58,1.58,0,0,1-1.495-1.07L1820.524,674.5a1.579,1.579,0,1,1,2.989-1.017l12.547,36.853a1.579,1.579,0,0,1-1.494,2.088Z" transform="translate(-1740.716 -663.288)" fill="url(#linear-gradient-49)"/>
        <path id="Path_302" data-name="Path 302" d="M1860.359,707.128a1.579,1.579,0,0,1-1.476-1.02l-15.038-39.663a1.578,1.578,0,0,1,2.952-1.119l15.039,39.663a1.58,1.58,0,0,1-1.476,2.139Z" transform="translate(-1753.659 -658.785)" fill="url(#linear-gradient-49)"/>
      </g>
      <g id="Group_91" data-name="Group 91" transform="translate(202.299 15.302)">
        <path id="Path_303" data-name="Path 303" d="M1958.587,590.2l13.552,27.649a5.452,5.452,0,0,0,5.57,3.009c13.225-1.636,57.5-9.08,91.675-38.047a7.357,7.357,0,0,0,2.212-7.864L2055.1,523.66a6.6,6.6,0,0,0-8.235-4.3c-9.935,3.1-29.8,11.743-46.823,34.266-10.389,13.745-28.676,23.33-38.263,27.68A6.586,6.586,0,0,0,1958.587,590.2Z" transform="translate(-1957.912 -519.06)" fill="#91b3fa"/>
        <path id="Path_304" data-name="Path 304" d="M2045.085,674.488a1.58,1.58,0,0,1-1.405-.855l-18.158-35.256a1.579,1.579,0,0,1,2.807-1.446l18.158,35.257a1.578,1.578,0,0,1-1.4,2.3Z" transform="translate(-1995.368 -584.056)" fill="url(#linear-gradient-49)"/>
        <path id="Path_305" data-name="Path 305" d="M2067.133,662.5a1.577,1.577,0,0,1-1.377-.8l-22.33-39.671a1.579,1.579,0,1,1,2.751-1.549l22.331,39.67a1.578,1.578,0,0,1-1.374,2.353Z" transform="translate(-2005.298 -574.946)" fill="url(#linear-gradient-49)"/>
        <path id="Path_306" data-name="Path 306" d="M2105.32,670.791a1.579,1.579,0,0,1-1.455-.965l-9.839-23.289a1.579,1.579,0,0,1,2.909-1.229l9.839,23.289a1.58,1.58,0,0,1-1.454,2.194Z" transform="translate(-2033.448 -588.65)" fill="url(#linear-gradient-49)"/>
        <path id="Path_307" data-name="Path 307" d="M2122.539,617.86a1.58,1.58,0,0,1-1.471-1.007l-19.785-50.9a1.578,1.578,0,1,1,2.942-1.144l19.785,50.9a1.58,1.58,0,0,1-1.471,2.151Z" transform="translate(-2037.488 -543.914)" fill="url(#linear-gradient-49)"/>
        <path id="Path_308" data-name="Path 308" d="M2144.895,599.871a1.58,1.58,0,0,1-1.516-1.14l-16.1-55.568a1.579,1.579,0,0,1,3.032-.879l16.1,55.569a1.582,1.582,0,0,1-1.516,2.019Z" transform="translate(-2051.952 -531.328)" fill="url(#linear-gradient-49)"/>
      </g>
      <g id="Group_92" data-name="Group 92" transform="translate(267.126)">
        <path id="Path_309" data-name="Path 309" d="M2104.141,561.472c3.826,6.57,11.941,21.375,12.607,29.827a2.93,2.93,0,0,0,2.706,2.708c13.345.979,71.577,2.8,97.257-37.024a2.911,2.911,0,0,0,.324-2.441c-2.366-7.631-14.964-47.105-28.771-68.568a2.934,2.934,0,0,0-4.853-.1c-9.544,13.368-45.557,61.346-77.6,71.326A2.927,2.927,0,0,0,2104.141,561.472Z" transform="translate(-2103.741 -484.638)" fill="#bdd0fb"/>
        <path id="Path_310" data-name="Path 310" d="M2298.454,583.33a1.579,1.579,0,0,1-1.565-1.387c-2.608-21.358-23.021-53.569-23.227-53.892a1.579,1.579,0,0,1,2.662-1.7c.856,1.343,21,33.135,23.7,55.207a1.578,1.578,0,0,1-1.569,1.769Z" transform="translate(-2197.987 -507.404)" fill="url(#linear-gradient-49)"/>
        <path id="Path_311" data-name="Path 311" d="M2280.409,598.767a1.579,1.579,0,0,1-1.542-1.245c-3.337-15.436-20.87-48.872-21.047-49.207a1.578,1.578,0,0,1,2.793-1.471c.73,1.387,17.912,34.154,21.34,50.01a1.579,1.579,0,0,1-1.209,1.876A1.611,1.611,0,0,1,2280.409,598.767Z" transform="translate(-2189.224 -518.723)" fill="url(#linear-gradient-49)"/>
        <path id="Path_312" data-name="Path 312" d="M2277.928,656.589a1.578,1.578,0,0,1-1.442-.937l-7.335-16.448a1.578,1.578,0,0,1,2.883-1.286l7.336,16.448a1.581,1.581,0,0,1-1.441,2.222Z" transform="translate(-2195.542 -569.259)" fill="url(#linear-gradient-49)"/>
        <path id="Path_313" data-name="Path 313" d="M2259.514,666.449a1.578,1.578,0,0,1-1.483-1.038l-5.455-14.962a1.579,1.579,0,1,1,2.966-1.082L2261,664.329a1.58,1.58,0,0,1-1.483,2.12Z" transform="translate(-2186.359 -575.561)" fill="url(#linear-gradient-49)"/>
      </g>
      <g id="Group_93" data-name="Group 93" transform="translate(0 29.54)">
        <path id="Path_314" data-name="Path 314" d="M1506.68,551.48c11.347,7.192,45.631,27.456,72.649,28.111a2.484,2.484,0,0,1,2.3,1.735l12.783,39.861a2.5,2.5,0,0,1-2.78,3.236c-15-2.453-67.988-12.827-88.287-39.668a2.505,2.505,0,0,1-.5-1.512V553.6A2.5,2.5,0,0,1,1506.68,551.48Z" transform="translate(-1502.842 -551.088)" fill="#91b3fa"/>
        <path id="Path_315" data-name="Path 315" d="M1671.049,656.286a1.579,1.579,0,0,1-1.516-1.143l-9.319-32.423a1.578,1.578,0,0,1,3.034-.872l9.319,32.422a1.581,1.581,0,0,1-1.518,2.016Z" transform="translate(-1590.22 -589.757)" fill="url(#linear-gradient-49)"/>
        <path id="Path_316" data-name="Path 316" d="M1650.313,653.2a1.578,1.578,0,0,1-1.538-1.231l-7.42-32.838a1.579,1.579,0,0,1,3.08-.7l7.42,32.839a1.578,1.578,0,0,1-1.541,1.926Z" transform="translate(-1579.758 -587.813)" fill="url(#linear-gradient-49)"/>
        <path id="Path_317" data-name="Path 317" d="M1626.17,631.3a1.578,1.578,0,0,1-1.531-1.2c-1.343-5.478-3.575-14.891-3.444-16.382a1.579,1.579,0,0,1,3.148.24c.015,1.107,1.718,8.678,3.363,15.39a1.578,1.578,0,0,1-1.157,1.909A1.6,1.6,0,0,1,1626.17,631.3Z" transform="translate(-1568.578 -585.077)" fill="url(#linear-gradient-49)"/>
        <path id="Path_318" data-name="Path 318" d="M1543.816,609.224a1.579,1.579,0,0,1-1.577-1.534c-.8-28.244-.05-29.465.232-29.924a1.578,1.578,0,0,1,2.8,1.436c-.388,1.83-.228,15.923.123,28.4a1.578,1.578,0,0,1-1.533,1.623Zm1.349-29.813,0,0Z" transform="translate(-1524.527 -565.487)" fill="url(#linear-gradient-49)"/>
      </g>
    </g>
  </g>
</svg>
