<svg xmlns="http://www.w3.org/2000/svg" width="38.906" height="38.906" viewBox="0 0 38.906 38.906">
  <g id="Group_1" data-name="Group 1" transform="translate(-1725 -784)">
    <g id="Layer_1" transform="translate(1725 784)">
      <path id="Path_1" data-name="Path 1" d="M14.048,1a13.048,13.048,0,1,0,8.618,22.82L38.753,39.906l1.153-1.153L23.82,22.667A13.027,13.027,0,0,0,14.048,1Zm0,24.466A11.417,11.417,0,1,1,25.466,14.048,11.43,11.43,0,0,1,14.048,25.466Z" transform="translate(-1 -1)"/>
    </g>
    <g id="Layer_1-2" data-name="Layer_1" transform="translate(1725 786.243)">
      <path id="Path_2" data-name="Path 2" d="M11.768,1A10.762,10.762,0,0,0,4.589,19.786v.008l.156.135c.027.024.057.044.085.067q.29.245.6.47c.055.04.11.079.166.118q.326.229.667.434l.115.066c.25.145.505.282.767.407l.008,0a10.7,10.7,0,0,0,1.757.653l.034.009q.431.118.877.2l.083.015c.286.05.576.09.87.118l.1.008c.3.025.594.04.9.04s.6-.016.9-.04l.1-.008c.294-.027.584-.067.87-.118l.083-.015q.445-.081.877-.2l.034-.009a10.7,10.7,0,0,0,1.757-.653l.008,0c.262-.125.517-.262.767-.407l.115-.066c.228-.136.45-.282.667-.434.056-.039.111-.078.166-.118q.307-.225.6-.47c.028-.023.058-.043.085-.067l.156-.135v-.008A10.762,10.762,0,0,0,11.768,1Zm0,10.768a3.589,3.589,0,1,1,3.589-3.589A3.594,3.594,0,0,1,11.768,11.768Zm1.346.9A4.941,4.941,0,0,1,18.05,17.6v1.776l-.057.046q-.266.216-.545.412c-.041.029-.082.059-.123.087-.2.137-.407.265-.616.387l-.115.066c-.22.123-.444.239-.672.345l-.072.033a9.877,9.877,0,0,1-2.339.73l-.077.014q-.382.065-.769.1l-.107.008c-.262.02-.525.034-.789.034s-.527-.013-.789-.035l-.107-.008q-.388-.036-.769-.1l-.077-.014a9.877,9.877,0,0,1-2.339-.73l-.072-.033c-.228-.106-.452-.222-.672-.345l-.115-.066c-.21-.121-.415-.25-.616-.387-.042-.028-.082-.058-.123-.087-.186-.131-.367-.267-.545-.412l-.057-.046V17.6a4.941,4.941,0,0,1,4.936-4.936Zm5.833,5.867V17.6a5.844,5.844,0,0,0-4.657-5.714,4.487,4.487,0,1,0-5.043,0A5.844,5.844,0,0,0,4.589,17.6v.931a9.871,9.871,0,1,1,14.358,0Z" transform="translate(-1 -1)"/>
    </g>
  </g>
</svg>
